<mxfile host="65bd71144e">
    <diagram id="b0lUlxLJ4gMpwp6lKtfW" name="Page-1">
        <mxGraphModel dx="2453" dy="951" grid="1" gridSize="10" guides="1" tooltips="1" connect="1" arrows="1" fold="1" page="0" pageScale="1" pageWidth="827" pageHeight="1169" background="#000000" math="0" shadow="0">
            <root>
                <mxCell id="0"/>
                <mxCell id="1" parent="0"/>
                <mxCell id="115" style="edgeStyle=orthogonalEdgeStyle;curved=1;html=1;fillColor=#f8cecc;strokeColor=#FFCCFF;strokeWidth=3;dashed=1;" edge="1" parent="1" source="103" target="90">
                    <mxGeometry relative="1" as="geometry"/>
                </mxCell>
                <mxCell id="116" style="edgeStyle=orthogonalEdgeStyle;curved=1;html=1;entryX=1;entryY=0.5;entryDx=0;entryDy=0;strokeColor=#FFCCFF;strokeWidth=3;dashed=1;" edge="1" parent="1" source="103" target="89">
                    <mxGeometry relative="1" as="geometry"/>
                </mxCell>
                <mxCell id="119" style="edgeStyle=orthogonalEdgeStyle;curved=1;html=1;entryX=1;entryY=0.5;entryDx=0;entryDy=0;strokeColor=#FFCCFF;strokeWidth=3;dashed=1;" edge="1" parent="1" source="103" target="91">
                    <mxGeometry relative="1" as="geometry"/>
                </mxCell>
                <mxCell id="121" style="edgeStyle=orthogonalEdgeStyle;curved=1;html=1;entryX=1;entryY=0.5;entryDx=0;entryDy=0;strokeColor=#FFCCFF;strokeWidth=3;dashed=1;" edge="1" parent="1" source="103" target="95">
                    <mxGeometry relative="1" as="geometry"/>
                </mxCell>
                <mxCell id="103" value="Living Style Guide&lt;br&gt;" style="rounded=1;whiteSpace=wrap;html=1;fillColor=#f5f5f5;fontColor=#333333;strokeColor=#666666;verticalAlign=top;" vertex="1" parent="1">
                    <mxGeometry x="1360" y="358.76" width="160" height="81.24" as="geometry"/>
                </mxCell>
                <mxCell id="53" value="" style="endArrow=none;dashed=1;html=1;startArrow=none;strokeColor=#B3B3B3;" parent="1" edge="1">
                    <mxGeometry width="50" height="50" relative="1" as="geometry">
                        <mxPoint x="360" y="840" as="sourcePoint"/>
                        <mxPoint x="360" y="250" as="targetPoint"/>
                    </mxGeometry>
                </mxCell>
                <mxCell id="85" value="" style="ellipse;shape=cloud;whiteSpace=wrap;html=1;strokeColor=#36393d;strokeWidth=1;fillColor=#eeeeee;" parent="1" vertex="1">
                    <mxGeometry x="382" y="1058" width="120" height="80" as="geometry"/>
                </mxCell>
                <mxCell id="79" value="" style="shape=trapezoid;perimeter=trapezoidPerimeter;whiteSpace=wrap;html=1;fixedSize=1;fontColor=#000000;strokeColor=default;strokeWidth=1;fillColor=#FFFFFF;" parent="1" vertex="1">
                    <mxGeometry x="380" y="950" width="120" height="60" as="geometry"/>
                </mxCell>
                <mxCell id="124" style="edgeStyle=orthogonalEdgeStyle;curved=1;html=1;entryX=0;entryY=0.5;entryDx=0;entryDy=0;strokeWidth=3;fillColor=#dae8fc;strokeColor=#6c8ebf;" edge="1" parent="1" source="55" target="91">
                    <mxGeometry relative="1" as="geometry"/>
                </mxCell>
                <mxCell id="125" style="edgeStyle=orthogonalEdgeStyle;curved=1;html=1;entryX=0;entryY=0.5;entryDx=0;entryDy=0;strokeWidth=3;fillColor=#dae8fc;strokeColor=#6c8ebf;" edge="1" parent="1" source="55" target="95">
                    <mxGeometry relative="1" as="geometry"/>
                </mxCell>
                <mxCell id="129" style="edgeStyle=orthogonalEdgeStyle;curved=1;html=1;exitX=1;exitY=0.25;exitDx=0;exitDy=0;entryX=0;entryY=0.5;entryDx=0;entryDy=0;strokeWidth=3;fillColor=#d5e8d4;strokeColor=#82b366;" edge="1" parent="1" source="55" target="90">
                    <mxGeometry relative="1" as="geometry"/>
                </mxCell>
                <mxCell id="130" style="edgeStyle=orthogonalEdgeStyle;curved=1;html=1;entryX=0;entryY=0.5;entryDx=0;entryDy=0;strokeWidth=3;exitX=1;exitY=0.25;exitDx=0;exitDy=0;fillColor=#d5e8d4;strokeColor=#82b366;" edge="1" parent="1" source="55" target="89">
                    <mxGeometry relative="1" as="geometry"/>
                </mxCell>
                <mxCell id="134" style="edgeStyle=orthogonalEdgeStyle;curved=1;html=1;entryX=0;entryY=0.5;entryDx=0;entryDy=0;strokeWidth=3;exitX=1;exitY=0.75;exitDx=0;exitDy=0;fillColor=#f8cecc;strokeColor=#b85450;" edge="1" parent="1" source="55" target="91">
                    <mxGeometry relative="1" as="geometry"/>
                </mxCell>
                <mxCell id="139" style="edgeStyle=orthogonalEdgeStyle;curved=1;html=1;entryX=0;entryY=0.5;entryDx=0;entryDy=0;startArrow=classic;startFill=1;strokeColor=#d79b00;strokeWidth=3;exitX=0.75;exitY=1;exitDx=0;exitDy=0;fillColor=#ffe6cc;" edge="1" parent="1" source="55" target="94">
                    <mxGeometry relative="1" as="geometry"/>
                </mxCell>
                <mxCell id="55" value="&lt;font color=&quot;#000000&quot;&gt;Proxy&amp;nbsp;&lt;br&gt;/&lt;br&gt;Load Balancer&lt;br&gt;&lt;/font&gt;" style="rounded=1;whiteSpace=wrap;html=1;strokeWidth=0;fillColor=#F2F2F2;align=center;verticalAlign=top;" parent="1" vertex="1">
                    <mxGeometry x="290" y="470" width="110" height="60" as="geometry"/>
                </mxCell>
                <mxCell id="2" value="" style="html=1;verticalLabelPosition=bottom;align=center;labelBackgroundColor=#ffffff;verticalAlign=top;strokeWidth=2;shadow=0;dashed=0;shape=mxgraph.ios7.icons.user;fillColor=#cce5ff;strokeColor=#36393d;" parent="1" vertex="1">
                    <mxGeometry x="20" y="480" width="40" height="40" as="geometry"/>
                </mxCell>
                <mxCell id="9" value="Public network" style="text;html=1;align=center;verticalAlign=middle;resizable=0;points=[];autosize=1;strokeColor=none;fillColor=none;fontColor=#FFFFFF;" parent="1" vertex="1">
                    <mxGeometry x="230" y="260" width="90" height="20" as="geometry"/>
                </mxCell>
                <mxCell id="14" value="" style="endArrow=none;dashed=1;html=1;strokeColor=#B3B3B3;" parent="1" edge="1">
                    <mxGeometry width="50" height="50" relative="1" as="geometry">
                        <mxPoint x="-40" y="240" as="sourcePoint"/>
                        <mxPoint x="1120" y="240" as="targetPoint"/>
                    </mxGeometry>
                </mxCell>
                <mxCell id="16" value="Private network" style="text;html=1;align=center;verticalAlign=middle;resizable=0;points=[];autosize=1;strokeColor=none;fillColor=none;fontColor=#FFFFFF;" parent="1" vertex="1">
                    <mxGeometry x="380" y="260" width="100" height="20" as="geometry"/>
                </mxCell>
                <mxCell id="18" value="API--alpha" style="rounded=1;whiteSpace=wrap;html=1;fillColor=#F6E9FC;strokeColor=#9673a6;fontColor=#000000;align=center;verticalAlign=middle;" parent="1" vertex="1">
                    <mxGeometry x="1080" y="920" width="120" height="38" as="geometry"/>
                </mxCell>
                <mxCell id="19" value="Application&amp;nbsp; Servers" style="text;html=1;align=center;verticalAlign=middle;resizable=0;points=[];autosize=1;strokeColor=none;fillColor=none;fontColor=#FFFFFF;" parent="1" vertex="1">
                    <mxGeometry x="520.5" y="318" width="120" height="20" as="geometry"/>
                </mxCell>
                <mxCell id="20" value="" style="endArrow=none;dashed=1;html=1;strokeColor=#B3B3B3;" parent="1" edge="1">
                    <mxGeometry width="50" height="50" relative="1" as="geometry">
                        <mxPoint x="720" y="800" as="sourcePoint"/>
                        <mxPoint x="719.9999999999999" y="320" as="targetPoint"/>
                    </mxGeometry>
                </mxCell>
                <mxCell id="21" value="Database Servers" style="text;html=1;align=center;verticalAlign=middle;resizable=0;points=[];autosize=1;strokeColor=none;fillColor=none;fontColor=#FFFFFF;" parent="1" vertex="1">
                    <mxGeometry x="805" y="318" width="110" height="20" as="geometry"/>
                </mxCell>
                <mxCell id="22" value="Database&lt;br&gt;SQL" style="rounded=1;whiteSpace=wrap;html=1;fillColor=#d5e8d4;strokeColor=#82b366;fontColor=#191919;verticalAlign=top;" parent="1" vertex="1">
                    <mxGeometry x="800" y="520" width="120" height="40" as="geometry"/>
                </mxCell>
                <mxCell id="24" value="" style="endArrow=none;dashed=1;html=1;strokeColor=#B3B3B3;" parent="1" edge="1">
                    <mxGeometry width="50" height="50" relative="1" as="geometry">
                        <mxPoint x="1000" y="800" as="sourcePoint"/>
                        <mxPoint x="1000" y="320" as="targetPoint"/>
                    </mxGeometry>
                </mxCell>
                <mxCell id="117" style="edgeStyle=orthogonalEdgeStyle;curved=1;html=1;entryX=1;entryY=0.5;entryDx=0;entryDy=0;fillColor=#fff2cc;strokeColor=#d6b656;strokeWidth=3;dashed=1;" edge="1" parent="1" source="25" target="89">
                    <mxGeometry relative="1" as="geometry"/>
                </mxCell>
                <mxCell id="135" style="edgeStyle=orthogonalEdgeStyle;curved=1;html=1;entryX=1;entryY=0.5;entryDx=0;entryDy=0;dashed=1;strokeColor=#d6b656;strokeWidth=3;fillColor=#fff2cc;" edge="1" parent="1" source="25" target="91">
                    <mxGeometry relative="1" as="geometry"/>
                </mxCell>
                <mxCell id="25" value="Component Librabry" style="rounded=1;whiteSpace=wrap;html=1;fillColor=#FAFAFA;fontColor=#121212;strokeColor=#001DBC;verticalAlign=top;" parent="1" vertex="1">
                    <mxGeometry x="1360" y="520" width="160" height="80" as="geometry"/>
                </mxCell>
                <mxCell id="65" value="" style="shape=image;verticalLabelPosition=bottom;verticalAlign=top;imageAspect=0;aspect=fixed;image=data:image/png,iVBORw0KGgoAAAANSUhEUgAAA/oAAAL8CAYAAABQyM4IAAAABmJLR0QA/wD/AP+gvaeTAAAgAElEQVR4nOzdeZRcZbm28fvZ1UMIJiRhSgBRQY4KSkh3ByGiiKKAigOQOIGGJF1VnQAecEJwKDyioB6RAElVdQYEPWpHxQEVjkgcwpgeCIiCeBAF0yiSkABJurtqP98fgB8qQ4aueqt2Xb+1XMsFkr50Cem7373fMgEAkBAut1sXXDapycdMjEbiiXFKk0ya6O7jTR5J2kWSYkUTJcncJ8hkco23SCl3jZOpSa6dJbVsw5celulxxdpkkYYkbZA0ErttjBQPSdrkbo/JNCKzRySNxCqvj6xpXdmG1+8srT9o0YLHRvl/DgAA0KAsdAAAAM9mzSlX7OxjtuxdbrI9zX1vj32yme8RK5poiieZookunyRpoqRJkiYETt4RI5LWS1onab3J1rvi9XJbb+br3KIHrKwHIunPj5VTfz5i2dxHA/cCAIAaxdAHAFTdylyuadIDe79wuKn0oshtH3fb06S9LdKe7tpH0h6S9pH0gsCptewRSQ9I+pPL7jf3+y2y++Xxn9TU9Kdpuz9wv+VycehIAABQfQx9AMCo81wu6v3rHi9OlZr288j3c9l+kfl+7tpP0n564gQelVWS9GeZ7pXrXpPf69Jv4yi+849/3+1Ps1bMKocOBAAAlcHQBwBst950YayloldYXD5IZq9w9/0k28+k/fyJR+lRmzbI9HuT7olj3WXmt6XM+w/Jd/0ldBgAANhxDH0AwPPqP3XZ7moqTY0jHWTyA012kMsPFCfzSfOoyW6XeZ/c+zxK3Tnm77vccdCKWcOhwwAAwNZj6AMA/sFzuahv7ZT/iCI7xOWvkvsrJHulnnjcPhW6D0E8ImnATP1xrP64qfTrQxctuD90FAAAeHYMfQBoUHfO7GnZPHH9oTJrN/d2mdolHSCpOXQbat7fJL/VpFWx2w2SbukoZkZCRwEAgCcw9AGgAXguF635y16viKO43WWvkXSEGPUYPY/JdLOkG6xsq7a84LEbZlx01ubQUQAANCqGPgAk0Ko5S8e1No8cFpm9Ru6HSdYuabfQXWgYj5nsV1J8TRRH1x7Snf596CAAABoJQx8A6pzLbU1n94HlyF8j1xEyvUZPvFMP1Iq/memX7rrOXT/qKGYGQwcBAJBkDH0AqDP3nL6wdcNQ6/TI/DUuHWGy6S7tGboL2EqxpAGXXRfFui42/yXv9wMAMLoY+gBQ4zyXiwYGJ7fFbkdbpNfJNUPSLqG7gNHg0gMmfcfkPdMKmZtN5qGbAACodwx9AKgxLrf+riVtFpePdrOj5Tpc0s6hu4AqeFiun8h8xcYpD/70qFyuFDoIAIB6xNAHgBpw6/zLXpgqNx1npqPddaSkPUI3AYH9xUzfjWOtaC+mb+CkHwCArcfQB4AAVs5ePmaX1qHXyOxodx0tqU1SFLoLqFH3uOzrzWVbNnVJ5wOhYwAAqHUMfQCokts6i/8RR/G7pOh4l79aUlPoJqAO9UkqDo19/MoZF521OXQMAAC1iKEPABXiuVzUt3bKDJm9zeTHSzowdBOQII9I6nHXpR3FzB2hYwAAqCUMfQAYRavmLB03pql0rEnHK9Kxcu0eugloAH2Siu76ekcxsyl0DAAAoTH0AWAH3bLg0l2bSk3Hmdnb3XWMpPGhm4AG9aDLFrZEpfzBi+evDx0DAEAoDH0A2A696cIUmc2KpJkuP1xcpAfUkiG5elz6fEcxc1foGAAAqo2hDwBb6db5l02Oys3vZtwDdSOW/Ccmfb6tkL0pdAwAANXC0AeA57Amu3iPEU+998lxf5ikVOgmANvOZDe44gvbCpmrTeahewAAqCSGPgD8izWnXLFzaeymt0k2S9JbJI0J3QRgdJjs1rLiT04vZH8WugUAgEph6AOApDtn9rQM7fbIsR7H75fsbZLGhm4CUFE/j2L7xLTu9OrQIQAAjDaGPoCG1TOzJ7X/pHVvkdtMmd4hbssHGo/puljxx6bnuwZCpwAAMFoY+gAazkBn8RBP+amx6wST9gndAyA4N9N3PEqd075o3h9CxwAAsKMY+gAawsDs5RPiMSMz5fEpkh0h/vkH4N9tlnRpc1T+wsGL568PHQMAwPbiG10AibXmlCt2Lo/ddKKbnSLXUeLGfABb5xGTX9C6btJFB62YNRw6BgCAbcXQB5AovHcPYBTdLbMPtefT14YOAQBgWzD0ASTCzfO692xuij8o1xxJLwvdAyAxXK7lQ+XUR2csnbcudAwAAFuDoQ+gbt05s6dl88T177BIabneICkK3QQgsR5xWa59ytpLLJeLQ8cAAPBcGPoA6s5AdvGLXdGc2HUqt+YDqC6/3t3SHcXM/4UuAQDg2TD0AdSFNadcsXNp7Ob3S0pLag/dA6ChbTF57g/rJn151opZ5dAxAAD8K4Y+gJrWmy4cYaZTJL1HXKwHoLbcFMk/OK2QvSd0CAAAT8fQB1Bz1pxyxc7lnbe82+Vz5ZoRugcAnsMjZtbVlk9/K3QIAABPYegDqBmrs4unRR5lJb1X0rjQPQCw9fzyMany6QctWvBY6BIAABj6AIJaOXv5mHEtw+8286xkh4XuAYDt5dLvLYre1764sy90CwCgsTH0AQTRn8lPddl8cXoPIFlKJv9kWyF7YegQAEDjYugDqJobz/zKTq2bdj5F3JwPIOFc9k25z+soZjaFbgEANB6GPoCKuy27eO+yok7F6pRpr9A9AFANJrs1VbYTpy7pfCB0CwCgsTD0AVTEylyuadzaKe+ySGm53iApCt0EAAE8bLGd2Nad/mXoEABA42DoAxhVtyy4dNdUqeVUc8/I9NLQPQBQAza5a3ZHMbMidAgAoDEw9AGMiv5M/kCXfUjSKZJ2Ct0DADXGZfpUez5zfugQAEDyMfQBbLeVuVzTLoOT3+eyM8TlegDwvFx2xaNT1s49KpcrhW4BACQXQx/ANru9a9HEUhylY1nGpJeE7gGAeuKyHwyPfey9My46a3PoFgBAMjH0AWy1NfO69xlJ+WmRvNOlSaF7AKBumX46tNPjJzL2AQCVwNAH8Jxcbv2Zwttkdga35wPA6DHZDcMtW95y2CVnbAzdAgBIFoY+gGd045lf2al1086nSJovaWroHgBIqL6hUurNM5bOWxc6BACQHAx9AP/k9q5FE0c81SnXAkn7hu4BgKQz2Q2bRlLHHbFs7qOhWwAAycDQByBJ6k0XXm7SOTLNktQaugcAGovfPCZVftNBixY8FroEAFD/GPpAg+vP5A936RzJ3iLevweAgPz6jUOtbz3q8lO3hC4BANQ3hj7QoPqy3W+Qlz8m2ZvFPwsAoCaYacUfHp743lkrZpVDtwAA6ldT6AAA1bNy9vIx41pHMiZfII8PYN8DQG1x18z9Jj2yUdK80C0AgPrFd/lAAxiYvXxCPGb4P82VdWnP0D0AgOdh+nh7PvPF0BkAgPrE0AcSbM287n3KTfFH3XWqpHGhewAAW81ldkp7Pv2N0CEAgPrD0AcSaHXXov2iOHWWpFMljQ3dAwDYLo+76/COYuaO0CEAgPrC0AcSpDddeJXMPmHyWZJSoXsAADvs3qFSavqMpfPWhQ4BANQPhj6QAP2Z/Bul6DyXvyZ0CwBg1K0as27iGw9aMWs4dAgAoD5w6z5Qx/q6ul+ruHyuy46RPHQOAKAyjhiatC4n6ZzQIQCA+sCJPlBnXG596eJJMp1j0iGhewAAVeGSv6O9kP1R6BAAQO1j6AN1wuU20NV9vGKd6/JDQ/cADeZRSSVJsaQNT/6xLZI2P/nvN8pUfsa/0mWSJjzDn5mgJy7LHCtpl9GMRWIN2nDz1Lblcx4KHQIAqG08ug/UOM/lov7ByTP7vXiOYh0cugeoY1skPWSyQVf8N8kekrRBrkckbZD5Bln0iGQbPI4f8VT5kZHhlkce2Dh+w6wVs555xI+iVXOWjmuK4rGp5pGdrZz6xw8BzHwPk/aQ2V4eaw+Z9pQ0xaQ9XNpD/NC+kUzxlpHlLj/eZLyvBQB4VnxzANSo3nShWdL7zPQJSS8L3QPUsEcl3ffEv/x+mT3kbn8z06DH/pCnyg+Vm0qDh11yxsawmaOvZ2ZPar+J6/eQNMXMX+xuLzHpxTJ/sevJfy/tHDgTo80s3Z5Pd4fOAADULoY+UGPuOX1h66PDLae67ON64pt0oNE9pidG/H2u6I+R4vtk0Z/c7L5SNHTfqy877eHQgbWs/9Rlu1tT6cWe0v6ST3XXqyQdLOmFoduw3TaWU6VXHrpowf2hQwAAtYmhD9SI3nSh2SKbLfdPiW/A0Xhcrj/L/C65/VaR/c5j/52kuzqKmb+Hjkui27sWTSyVmg72lL9K7gdLdrCkqZLGhG7D1vBr2wqZ43iEHwDwTBj6QGA9M3tSL931kfe5+2ck7R+6B6iwkkv3mvxOk+6SRb+Tx79rTZXvOmjRgsdCxzW6O2f2tGyeuH6azA4z+eGSDpe0b+guPAuzU9vz6ctDZwAAag9DHwjE5TaQKZzosvMkHRi6B6iARyWtcdlAZLotjv22ndZP/M1BK2YNhw7D1rstu3jvWKnDYtcMkx+lJz7Wk+8faoHpoaGR1MtnLJ23LnQKAKC28Bs1UGWey0UDg5NPdrezZXpF6B5gFMSS7pKrz836olh3qpz6bduyuWtDh2H03Tn/shdsKaeOkuxtko4VJ/5huZa1FzNzQ2cAAGoLQx+oov5M/o0ufU6yw0K3ANvLpHWS3Ry732yR3TpSstsOW9L519BdqL4nf3DZ5mbHmNtx/sTj/lHorgYTu2tGRzFzS+gQAEDtYOgDVdCXyR8v2bmSXh26BdhGW0zWF0urTPENNtLcx0k9ns2Nc5dMGtNUeptLMyU7RlJz6KYG0dtWSB/KxXwAgKcw9IEK6k0XjorM/svlrwndAmwNl/5orlVu1meRrfJyfHtHMTMSugv1h9Ffbf6e9kL226ErAAC1gaEPVMDq7OJXRm6fleyd4u8z1La/m2ml3K+P3X7RXkzfzakgRtut8y97YVRuPtXkc8U7/ZVy98Ypg688KpcrhQ4BAITHAAFGUW+6sK/M/svkJ4v3VFGbNkr+K5ldb+7XTytkbmfYo1o8l4t6Bycfa4rSJn+rpKbQTYliyrbnM4XQGQCA8Bj6wCi4ce6SSa1NpU9IdpqkMaF7gKfZLNMN7na9RbZy455/6eXED7Wgf87SveKm0lwzzROn/KPlz2PWTTyAj7AEADD0gR2wcvbyMeNbhk+X6ROSJobuAfTER931u+wat/LPJzSP3HTAJWcMhY4Cnk1vutAs6X0mfZyPHB0FZun2fLo7dAYAICyGPrAd7pzZ0zI0ad2ZLvuIpN1C96Dh/VnSNZJf3bRp7PVTr/zA46GDgO3Rmy4cYZE+I9fRoVvq2P1j1k18Kaf6ANDYGPrANurL5I+V24UyHRy6BQ2rLPlqV/RTt/I1HZP/2mu5XBw6ChgtvenCm810rqTXhW6pR2b2gbZ8+srQHQCAcBj6wFbq7yweqUhfdPmhoVvQkO4z0w9Vth/F5jd2FDObQgcBldafyb/RZV+SNC10S535TVshfTAXbQJA42LoA89jddei/aJy6nyZ3i3+nkF13WHyq2K3H7QX0wN8045GtDKXaxr/4JS5cuUkTQ7dUy9MfmRbIfur0B0AgDAYLcCz6E0XdosifcpdWUktoXvQEGJJt8h1lZpSV7UvmveH0EFArbhz/mUvGIqbPuauD0saG7qn5rm+217MnBQ6AwAQBkMf+BcrZy8fM6515EyTny1pfOgeJN6IyX4Ru18VlZp+0LZs7trQQUAtW921aL9U3LTU5a8P3VLjyuVU6SWHLlpwf+gQAED1MfSBJ3kuF/UPTpkn12dk2it0DxLtEbl+JPMVQ2M3XTfjorM2hw4C6k1vujAzMuVdmhS6pVa57DMdhfRnQ3cAAKqPoQ9I6k0X2sz8q5K9NnQLEusxyX8gi77rsV/LZXrAjhvILn5xrKibj+N7Vve0FdIv434PAGg8DH00tFvnXzY5VWo6X6bZkqLQPUicLZL/VBZ9y2O/mnEPjD6X20CmcJrL/ltSc+ieWuOu13YUM6tCdwAAqqspdAAQwj2nL2zdMNR6ppV1jkzjQvcgUUqSrnPXtyR9v6OY3RA6CEgyk7kKuqQ3XRgw0wpxM/8/MdMpkhj6ANBgONFHQ+E9fFTIiOTXmrQidvtBRzHDuAcC6E0XdjPzb0v2htAtNeThjVMGJx+Vy5VChwAAqoehj4Yx0Fk8JE75V+U6MnQLEsK02ty/lSqneqYu6XwgdA6AJ57Y2jjccolknaFbaoZFb2zPd14fOgMAUD08uo/Eu3le954tTfHnYvc5ct7Dxw6730yXe5S6gs+5B2rPAZecMSQp3Zcu3CfT+aF7aoKXT5TE0AeABsKJPhLrntMXtm4caf2QXOdKGh+6B3VtSNL3Zba8bfLan1kuF4cOAvD8ejPF+Sa/RI1+2aprbVsxvQ+37wNA42DoI5F604W3muliSfuHbkFdGzD58i2lpm/MWDpvXegYANuuL5M/WbLlavCnGE1+SFshuyZ0BwCgOhr6Nz0kT2+6sK+Zf1XSu0K3oD6ZtC6WfcOtvHx6vmsgdA+AHdNeyH59IJN/NJb1SGoJ3ROKmx0jiaEPAA2CE30kwsrZy8eMax3JmfxMNfA3cthuI2b6vspW/MMjE1bOWjGrHDoIwOjqz+RPctm31aCP8ZvsF22F9FGhOwAA1cHQR93r7ywe6ZEvknRg6BbUGdefXFoaN5UuP3TRgvtD5wCorL5s4Vy5Phe6I5Ahd03qKGY2hQ4BAFQeQx91q3/Bkhd5qXSpZG8L3YK6MmKm78exFnYUM6tCxwCort5McaHJTw/dEYLF9vq27vQvQ3cAACqPd/RRd3pm9qT2n7g+66Xy5ySbELoHdeNvZlqWKkXFqUs6/xg6BkAYj05Ze9b4wSkvk/Tm0C3V5uaHSmLoA0AD4EQfdaW/s3i0R36ppJeFbkFdKJvpeypbcdrea6/nY/EASNLA7OUTyq3Dd5i0T+iW6vKr2gvZE0JXAAAqj6GPurAmu3iPUhx9WaaTxf9v8XxMD7nbMrl3dxQz/xc6B0DtWZ3JvymSXavG+j1lsL2Q2St0BACg8hrpNzfUoZ6ZPan9Jj1ymslzknhMH8/NdJ3HKu7SOvTDAy45Yyh0DoDa1p8tLHJXV+iOanLXizqKmT+H7gAAVBbv6KNm9c3vfoXK6/OSXhe6BTVtxGXfkfvFHYXMLaFjANSPTcNNH9+puXSMpP1Ct1RL9MR7+gx9AEg4hj5qzppTrti5vPPmz3s5ni/+P4pn41pr5gtT5sun5rv+FjoHQP05YtncR/uy3Z3y+OehW6olVnS4pO+E7gAAVBaP7qOmrM4uPjTyaImkV4VuQc26110X79RUWnbQogWPhY4BUP/6MoXrJL0xdEd1+K/bC1melAOAhOO0FDVhzSlX7FzaafN/yXWGpFToHtSkVZJf1Dblwe9zez6AURVFH1ccr1ZDHIAYP0gHgAbQAL+hodb1ZfInSHappCmhW1BzNku6UlF0WfvizttDxwBIrr5M4SpJ7wzdUQ3lVGnKoYsWPBi6AwBQOZzoI5gb5y6Z1NpU+m/JPih+6IR/tkHybne7hNuhAVRFFF2oOG6IoZ/ylgMkMfQBIMGi0AFoTL3pwswxTeXfSjZbjHz8f/fJdebmkaYXtheyH2XkA6iW9sWdN8u0OnRHNVhc/o/QDQCAyuJEH1U1kMkfEJt1y3Wkh45BLemV/LNtUx78Me/fAwjGfaFkV4bOqDSXvSx0AwCgshj6qAqXW3+m2BlLX5Rrl9A9qA0u3SbX59v3GvwuAx9AaBuHWr+zS+vwxS5NCt1SYQeEDgAAVBaPTKPibussHlSO4iWSHRa6BbXCr3a3CzuKmVWhSwDg6foy+cskmx+6o6Jcv2svZg4MnQEAqBze0UfFuNx604UzypGvZuTjST931xvaC9njGfkAapHFUU/ohooz7dczs4ePsgWABOPRfVREb7qwb78Vl5n0xtAtCM4lXe2u8zuKmVtCxwDAc5m299pf9w1OecCkfUK3VFDrfhPX7y2JC08BIKE40ceocrn1ZoofMtNdYuQ3uiEzLYyj8kvbC5m3M/IB1IMn7guxq0J3VFpkvkfoBgBA5XCij1HTf+qy3ftbinmTTgjdgqBGJH09FdsFh3Snfx86BgC2lSu+xmSnh+6oqDjaPXQCAKByGPoYFX2Z/MmukUskTQjdgmC2mKmYKkVfmrqk84HQMQCwvSa0DP9843DrY5JeELqlYqKYoQ8ACcbQxw5ZNWfpuDHN5Ysknxu6BcHEkn8zFUef5QQfQBIccMkZQ32Z/A2SHRO6pVJiN4Y+ACQYQx/brS9bfJu81C1pcugWBFGStMyaUp9vu2zen0LHAMCoMvu1XIkd+jKGPgAkGUMf2+zO+Ze9YEu56b/l3inJQveg6sqSljaVowumLun8Y+gYAKiEWPENUYLvLDZ3hj4AJBhDH9tkdXbxtC3l6ApJrwzdgqpzSVfHFn9mer5rIHQMAFRSy+M7ry6N3VyWlMzPmzcx9AEgwRj62Co9M3tS+++6/my5Pi2pJXQPqsz006hsn5nWnV4dOgUAqmHqlR94vC9TuEfSy0O3VMhuoQMAAJXD0Mfz6pu/5KUqr/+mXB2hW1BVbqbvlBV/dnq+6zehYwCg2sx0h3tih35yP1EAAMDQx3Pryxbfr3J5saRxoVtQNW6m77hFn2tb3Hl76BgACCV2+43JZ4buqJDm0AEAgMph6OMZrZy9fMz41uEvy31B6BZUkelGj/XJ9kJmZegUAAjNFN+d2Dtnne8BASDJ+Ic8/s1AZ/GQOBr+lqSXhW5B1fRbbB9v605fFzoEAGpFbP7HyBM69I37dgAgyRj6+AeXW1+m+4xYfqGk1tA9qALXH1w6p72Y/o7JPHQOANSSFum+UuiIyuHRfQBIsOR+QCy2yc2nLxzfny7+j8m/KkZ+4pm0Tq6PDe38+MEdxcwKRj4A/LuD89mHJG0O3VERxmEPACQZ/5CH+jP51/mwfV2mF4ZuQcVtMPkXUpvGXjr1yg88HjoGAGqZybxPhYck7Ru6ZdQ5j+4DQJIx9BtYz8ye1P67rv+Uuz4pKRW6BxW1xWUXl5uGv/Tqy057OHQMANQLl9ZZEoc+j+4DQKIx9BvUmuziPUq+7gq5HRO6BRXlkq5y17kdxfRdoWMAoN6YtD50Q4Uk9JZBAIDE0G9IqzP5N5XcrpA0OXQLKsdkv4jdz+4oZm4J3QIAdWxD6IAK2RQ6AABQOQz9BtIzsye136RHciY/R1zEmGRrLLZPtHWnfxo6BAASYCh0QIVwTwsAJBhDv0HcsuDSXZtK6/9H0ptDt6AyXHogMjtn2uS137BcLg7dAwCJ4BpO5EPuztAHgCRj6DeAgc7ijHjEV8i0V+gWVMQGl31G7ovaCumR0DEAkCRuNmxK4CeQGo/uA0CSMfQTrj+TnxvLL5U0JnQLRl3ssq83WfmcQ/JdfwkdAwBJFJm7J3Dni0f3ASDRGPoJteaUK3YeGbul2+XvDd2Civixuz7CTfoAUFnuCf1BuTH0ASDJGPoJ1De/+xWl8ubvmfTy0C0Ydb+x2M5s605fFzoEABqBmVqTeKLvbgx9AEgwbl5PmN504c0qx78WIz9pNsr08fEtQx2MfACoHo/VGrqhEiJzhj4AJBgn+gnx5EfnnW/yj0mJvB+4UQ257KstUenCgxfPXx86BgAajZmN9wRexufuD4VuAABUDkM/AW6e171nS+qRb7n89aFbMHrMtMLcz51WyNwTugUAGpXLdw3dUAkmDYZuAABUDkO/zvV1dR+scvxdl14augWj5m6ZfaQtn746dAgAQJNCB1QIQx8AEox39OtYXyZ/suL4JhkjPyE2uusj7npVOyMfAGpFMod+HK0NnQAAqBxO9OtQb7rQbKZLJaVDt2BUlM102ZaR1Hkzls5bFzoGAPCEWxZcuqtK2il0RyVYFDP0ASDBGPp1ZmD28gluIz0uf1PoFuw4k91QtvLp0/NdA6FbAAD/LCqn9g3dUCllt7+EbgAAVA5Dv46s7lr0sjge/pGkA0K3YIc9aPKPTyukrzRZ8q5zBoAEaHLbNw4dURkbOoqZTaEjAACVwzv6daI/kz88Fad+KUZ+vSubafFQKXVQWyF7BSMfAGqXS0k90eciPgBIOE7060Bftvh+d18iaUzoFuyQVbHFZ/CYPgDUB5e9LHRDhfDYPgAkHEO/hq3M5ZrGD065TO5culff7pP8jPZC9kehQwAA2+TA0AEVclfoAABAZTH0a1RvurCLDfq3JR0TugXbbYtMFw7t9PiFMy46a3PoGADANnt56ICKMIY+ACQdQ78GrZnXvU/J4h9I1ha6BdvLr3e3BR2FDN9MAUAdGpi9fEKs4SmhOyohdr87dAMAoLIY+jWmv7N4ZCmKvytp19At2HYuPWDy+TymDwD1zZtHOkI3VEqz+W9DNwAAKotb92tIX7Y42yP/XzHy61HZTAvleiUjHwDqX2ye1KG/4ZB8F5fxAUDCcaJfA1xu/enip+X+GUkWugfb7O7Y4uz0fNcvQocAAEaHmU9L5G/Jpt+HTgAAVB5DP7DedKF5ICp2y/XB0C3YZkMyXTC+eegLB1xyxlDoGADA6HHZ9ATOfCnmIj4AaAQM/YB604XdzPRDdx0eugXb7JqmcjR/6pLOP4YOAQCMrt50YV+TXhK6oxJc4v18AGgADP1AetOFKTL9RNIhoVuw9UxaJ7OPTst3LjeZh+4BAIy+yPw1nsTH9p9wR+gAAEDlcRlfAKuzi6eZqc8Y+fUkNtNCG2rZvy2fXsbIB4DkcrcjQzdUiA+XUzeFjgAAVB4n+lXW19X9Wovj77s0KXQLtpLrD+bW1dadvi50CgCgKl4XOqBC/jhj6bx1oSMAAJXHiX4V9WXyJyiO/5eRXzdiuS5yaSojH8BJz0AAACAASURBVAAaw+quRfvJ9IrQHRXhujV0AgCgOjjRr5LedOHDkr6kRH5WTyL1K4pObV/ceXvoEABA9USeekfohkpxicf2AaBBcKJfBb2Z4gVm+rIY+fVg2ORnu+swRj4ANCD3t4VOqBRLRZzoA0CD4ES/glbmck3jByd3Sz47dAu2Sq+75rQXs9xIDAANaGD28gmxhl8buqNChsY3bR4IHQEAqA5O9Ctk5ezlY8YN7vUdyWaHbsHzGjL52RunDB7eUcww8gGgQcWtQ8dIag7dURGm2w+45Iyh0BkAgOrgRL8CetOFsZGNrHD5W0K34HndoSg6tW1xZ1/oEABAWK7oLaaEfnoqF/EBQENh6I+y3nRhFzNd7fIjQrfgOY2Y/Aut6yadf9CKWcOhYwAAYfXM7EmZrT8uqTvfzFaGbgAAVA9DfxT1pgu7mekaSe2hW/DsXLotFdup07ozt4VuAQDUhv132zBDsXYP3VEh5SYrXR86AgBQPbyjP0p604UpMv1CjPxaVnbZ5+Q6dFp3mpEPAPgHj/2DoRsqxWR9By+evz50BwCgejjRHwUDmfwBsXSdpH1Dt+BZuG536eSOYprL9gAA/2TVnKXjTKX3hO6oGPNrQycAAKqLE/0d1JsuvCqW/UqM/FoVu+zCjcMtr+ZGfQDAMxnbUp4paefQHZXiFv0sdAMAoLo40d8Bq7OLDzXXNZImhm7BM/qLxTa7vTt9XegQAEDtcvdTQzdU0MaNe/7lptARAIDq4kR/O/Vn8h2RRz8RI79W/XikHLW3MfIBAM9hddei/SS9JnRHpZhs1VG5XCl0BwCgujjR3w79ncUjXf5jJfgxvzq23l2ZjmJmRegQAEDtizw1V5KF7qiU2Hk/HwAaESf626ivq7vdI79KjPyaY7JbU7EdxsgHAGwNz+UixXp/6I4K+9/QAQCA6mPob4O+ru52xfHPxOP6taYk03kbpqx9zSHd6d+HjgEA1Ie+tVOOlulFoTsq6LcdxcxdoSMAANXHo/tbqTddaGPk16T7FEXvbV/ceXPoEABAfbFI/ykPXVE5Lvte6AYAQBic6G+Fvq7uw8y0Uoz8GuPf2DzSdDAjHwCwrVZnF0+T67jQHRXl3hM6AQAQBif6z6M3XXi14vgaSeNDt+AfHjf5/LZC9orQIQCA+hR5dFbohgq7u6OYuSN0BAAgDIb+c+jP5Ke69GNJu4RuwT/cE1v87un5roHQIQCA+tQ/Z+lertKs0B0V9sPQAQCAcHh0/1n0pgttLvuFpF1Dt+AJZlq4cajlYEY+AGBHePPImZJaQndUUhQbn0ADAA0ssZ8buyP6M/kD3ewXcu0eugWSpEfMbF5bPv3d0CEAgPo2MHv5hLh1+M+SxoVuqRjXn9qK6ZeYLMFXDQIAnguP7v+L3nRhX3f9RGLk1wKX7myK7d2HdKfvDN0CAKh/8ZjhU+UJHvmSLNIPGPkA0Nh4dP9petOFKSb9POGfqVs3XLZUrkMZ+QCA0dCbLjQr1odCd1RaWfE3QjcAAMLiRP9J/acu291t5DpJLw3dAm2SPNNRyHw9dAgAIDks0hx5sn+Y79Kd0/Ndt4buAACExdCXdPO87j09NfJLSS8L3dLonnxU/4RDujO/D90CAEiONadcsXPJN+dCd1SamZaGbgAAhNfwj+73pgtjm1PxVWLkB2eyn7RE5dce0p1m5AMARlVpp83zJU0O3VFhpXJU+mboCABAeA19on/P6QtbNw7rakmHh25pcCWXfaSt0LmQy4MAAKPtxrlLJsnK54TuqIKrD1204MHQEQCA8Br2RN9zuWjjUOvlko4K3dLITPqrxXZ0RyF9MSMfAFAJY5rLH5U0IXRHpVlky0M3AABqQ8Oe6PcPTr5EpveE7mhwt6TK0UlTl3Q+EDoEAJBMt2UX71325N+0L+nBDXuu/UnoCABAbWjIE/3edOFsyeaH7mhkZloyvmXoSEY+AKCSym7nSNopdEelmekbR+VypdAdAIDa0HAn+r3pwvvMdH7ojgZWkuujbYXMV0OHAACSrX/Bkhd5qTw3dEc1lBVfHroBAFA7Gmror87k32TScjXokww14OHY4pOmF7p+EToEAJB8XipfKKk1dEfl+fXT812/CV0BAKgdDTP0+7q6D1Mc/0BSS+iWBtWXsvgd7fmuv4QOAQAkX2+68FZJ7w7dURUWXRQ6AQBQWyx0QDX0zV/yUsXlG+XaPXRLY/KrmjaNPWXqlR94PHQJACD5Vs5ePmZ86/BvJO0fuqXSXPp9eyH9cj65BgDwdIk/0b+9a9HEkVL5hzJGfgAu02fb8pnz+AYEAFAt48cMny1P/sh/gi3i91gAwL9K9Lvq95y+sHUkTn1fpleEbmlAmyV/b3s+k+MbEABAtazuWvQyuc4O3VElG7eMpJaFjgAA1J7EDn2X28ah1sslvS50SwMadNdR7YXst0OHAAAaSxSnFqohLuCTXPa1I5bNfTR0BwCg9iT20f3+dPG/ZHpP6I6GY1ptw03vbF82d23oFABAY+nPFk909zeH7qiS2FLRwtARAIDalMjL+Poy+XdL9k0l9L9f7fKrN480v4/TBQBAtfWmC2PNdKekF4duqQ6/tr2QPTZ0BQCgNiXu0f3edKFNsmVi5FeVy/L/t27SOxn5AIAQzJRTw4x8KTa/IHQDAKB2JWoMr5nXvU8pFa+WNDl0SwOJXXZWRyF9cegQAEBjWp1d/PrIo58rgQcYz8Rkv2grpI8K3QEAqF2JeUe/N10YW7L4h2LkV9MWyd/fUch8L3QIAKAxrZqzdFzkpeVqkJEvSYp1fugEAEBtS8zQN/OiZNNCdzSQh01+fFshe1PoEABA4xrTXP6iGuiRfZPd0Nadvi50BwCgtiVi6Pdn8h932ftDdzSQP5v8uLZC9rehQwAAjau/s3icyzOhO6rJTbybDwB4XnX/jn5/Z/Foj/ynSsgPLerAXZHFx03Ld90XOgQA0LhWzVk6bqfm0u1qoNN8SXe0FdJTTeahQwAAta2u32frm7/kpR75CjHyq8SvHZMqTWfkAwBC26l5ZKEaa+TL5J9l5AMAtkbdDv2Vs5ePUbn8LUkTQrc0iB8Njd30roMWLXgsdAgAoLH1ZYvHSPbB0B1Vdvcf1k26KnQEAKA+1O3QH98yfJmk9tAdDeLb7jpxxkVnbQ4dAgBobLcsuHRXd1+iBLx+uC1Mft6sFbPKoTsAAPWhLh9578sWTpNrTuiOxuAXtxUyZ/KoIAAgtJ6ZPamm0voVkvYJ3VJlN7UVst8MHQEAqB91d6Lf19X9Wrm+ErqjEZjpv9oL2f9k5AMAasH+u67/lKSjQndUm8nPDt0AAKgvdfXYW/+py3b3lpE+SS8M3ZJ0Jv9CWyF7TugOAAAkaXV28esjj66TlArdUk0m+1lbIf3m0B0AgPpSN4/u98zsSXnr+hVyRn6FuVyntxWzl4UOAQBAkm7LLt67rKhHDTbyJcWx+4dDRwAA6k/dPLr/0knrPi3XkaE7Ei6WWaa9mGHkAwBqwp0ze1rKbt+Ra/fQLdXmsq93FDN3hO4AANSfujjR78/kX+cyHiOvrNjk6bZ8ZmnoEAAAnrJl4vpPS3ZY6I4Ahj0qnRc6AgBQn2p+6PfPWbqXq7RCddBax0ruel97MbsidAgAAE/py+RPkNSQP+g30yXTF8+/N3QHAKA+1fSj+57LRd48skzSHqFbEsxlNr+jmGHkAwBqRv+CJS+SrKg6uzh4lKzXUPOFoSMAAPWrpk/J+x+c8mlJx4TuSLDYXXM6CumvhQ4BAOApA7OXT4hLw9dI2jV0SxCmT7Qtn/NQ6AwAQP2q2RP9/kz+cLnODd2RYC7XGR3FDCMfAFAzPJeLyq0jl0t6eeiWIFy3b5w8yH05AIAdUpMn+rd3LZo4HFuP1WhfAsRm1tlWSC8LHQIAwNP1D075b5O/I3RHIG7m2aNyuVLoEABAfavJE/3huOmrJu0TuiOh3F2ZtjwjHwBQW/oz+ayk/wzdEYqZrmgrZG8K3QEAqH81N/T7u4pvN/kHQncklcs+1lHMLAndAQDA0w10Fme47KuhOwJ6LFLMK4sAgFFRU0P/1vmXvdBj553xSjF9sqOQ/nLoDAAAnm4gkz/AI/+RpNbQLaGY/DOH5Lv+EroDAJAMNTP0XW5N5ealkiaEbkkk10Xt+cz5oTMAAHi6gdnLJ8SyH7o0KXRLQHdsmPLgwtARAIDkqJmh358pdrr8TaE7Eup7/7d+4kdDRwAA8HQ9M3tSccvw19SoN+w/wd31ES7gAwCMplToAOnJR/Zk35fUHLolcUw/dddJb7ryg3wDAQCoGZ7LRUPlpq/JNDN0S2DdHcXMxaEjAADJEvxEv2dmTyo2u1zS2NAtiWO60WOd1FHMjIROAQDg6foHpyyUdHLojsDuH2kZ4ok7AMCoCz7095+4/nS5ZoTuSBzX70qpkbd3FDObQqcAAPB0/Zn8JyUtCN0RWizPHnbJGRtDdwAAksdCfvHVXYv2i+LUGkkvCNmRQINxVD5i+uL594YOAQDg6fqzxTnuvkSBvwcJz3vaC9l3h64AACRTsBP9npk9qShOfV2M/NG2weRHM/IBALWmP1t8j7t3q8FHvkl/LTWV5ofuAAAkV7Chv/+u67skHR7q6ydU7K7ZbYXsb0OHAADwdP2Z/Bvd/XLVwGuDobn8I6++7LSHQ3cAAJIryE/U18zrfkkpFf9GXMA3qtz1oY5ihs/hBQDUlL6u7tcqjq+VtFPolhrwvfZC5sTQEQCAZAvyU/VSKv6KGPmjykxLGPkAgFrTn8kfqDj+nhj5krS+qRx9KHQEACD5qj70+7LFWZLeWe2vm3A/+sPDE7OhIwAAeLr+TL7DZask7Ra6pRZE8lOnLul8IHQHACD5qvro/u1diyaOxKnfSppcza+baK7bN5eajjhi2dxHQ6cAAPCUgc7i9Djy/5U0IXRLLXDZ0o5Cel7oDgBAY6jqif5IOfVZMfJH099dOoGRDwCoJb3pwqvilP9YjPyn3Cf3D4eOAAA0jqqd6D/5+N4t4rbd0VKWRW9uz3deHzoEAICn9HV1HyyPr5Nr99AtNaKsKDqqfXHnr0OHAAAaR1VGt+dykcsK1fp6jcBlH2bkAwBqSW+68GrF8a8Y+U9j+hwjHwBQbVUZ3n1rp8yR1FaNr9UIzPS1jkL64tAdAAA8pTddeLWZrpW0S+iWGnLTxsmDnwsdAQBoPBUf+gOzl08w0/mV/joNpH/LTo93hY4AAOApfV3dhzHy/82jcVQ++ahcrhQ6BADQeCo+9OPWoXMl7VHpr9MgNsZR+X0zLjprc+gQAACkJ27Xtzj+sRj5/8RdZ01fPP/e0B0AgMZU0cv4etOFV5mpX1JTJb9OgyjH8uOmF7I/Cx0CAIAk9aYLM810paTW0C01ptheyGRCRwAAGldFT/QjswvEyB8VLvsyIx8AUCv6M/kPmOkbYuT/qzvcdWboCABAY6vY0O/L5I91+Vsq9es3mJXtU9aeEzoCAACXW2+meIHLviapOXRPjXnYmlLHdxQzm0KHAAAaW0Ue3V+ZyzWNXzvldpleUYlfv8E83FSODpm6pPOB0CEAgMa2MpdrGj84uVuy2aFbapDL7O3t+fTVoUMAAKjIY/Xj1k6ZzcgfJWadjHwAQGi96cJYG9S3JB0fuqUmub7UXmDkAwBqw6gP/VVzlo6LrPQ5H+1fuAGZaXFbPn1V6A4AQGPrP3XZ7rLS1S4/NHRLjfrVxr0Gzw0dAQDAU0Z96O/UVDrdpT1H+9dtQHelHt/po6EjAACNrX/O0r28eeQaSa8K3VKj/l5OlU4+KpcrhQ4BAOApo/qO/o1zl0xqbSrfKz5Ld0cNRbEdNq07fVvoEABA4xroLB4SR/5DSS8M3VKjRiy2N7V1p38ZOgQAgKcb1Vv3xzSXzxEjf8e5zmbkAwBC6s/kPxBHfrMY+c/KzOYy8gEAtWjUHt1fM697n5LHC0br12tgv2rba3Bh6AgAQGPyXC4aeHDKRe46I3RLTXN9sa2QvjJ0BgAAz2TUhn65KT5HrjGj9es1qMeaytFsy+Xi0CEAgMZz8+kLxw8Mjvmmy98SuqWmuX7YttfgJ0JnAADwbEblHf3VXYv2i+LUXZKaR+PXa1Qu+8+OQvri0B0AgMYzkF384tijH4pL957PHWNSpRkHLVrwWOgQAACezai8ox/F0dli5O8gv/nedRMuDV0BAGg8A53F6XEc3SBG/vNZH8lPZOQDAGrdDp/or5nX/ZJSKr5bDP0d8VhTOTp46pLOP4YOAQA0lv5scY67L5bUErqlxg256+iOYmZV6BAAAJ7PDr+jX4ris8TI3yEu+zwjHwBQTT0ze1L777r+s+7+CY3yx+0mkulDHQVGPgCgPuzQ0L8tu3jvsqtztGIakuv2R/da+6XQGQCAxjGQXfxi90e+7a5DQ7fUBde57YVMIXQGAABba4fe0S979BFJraPU0ohcqei0o3K5UugQAEBj6O8sHhd7tNrljPytYKaF7cXM50N3AACwLbb7RP+WBZfuqpLmjWZMozHTd9oWd/46dAcAIPk8l4sGBief4/KcpFTonjrx4w2TBz8cOgIAgG213UO/udz8IZdeMJoxDWbDcCk6PXQEACD5+ucs3at/sPRNSa8L3VI//Ncbh1pP4qk7AEA92q5H99eccsXOci0Y7ZiGYjrvsCWdfw2dAQBItr5s8RhvKd0mRv7Wc93ubscfdfmpW0KnAACwPbZr6I/stPm9Lk0a7ZgGcrfHujR0BAAguVxu/Zn8x+V+tVy7h+6pIw82xdE7O4qZDaFDAADYXts89F1uZjqzEjGNwl1ndxQzI6E7AADJdMuCS3ftzxR/5LILNAofpdtANsQWv4WPvAUA1Ltt/s2/P1N4m2QHViKmQfy8o5j5fugIAEAy9aYL77SyihKn+NtofRTbG9q7u24LHQIAwI7a5qFvik53eSVaGoG769zQEQCA5OlNF8aa6YuS5stloXvqzGZ3nTitO83IBwAkwjYN/ds6iweV5W+qVEzSmemb7YXMLaE7AADJ0t9ZPNLlX5P0otAtdehxdx3bUcysCh0CAMBo2aahX4qU4Yhgu20xxZzmAwBGzT2nL2x9dKT1i+5+mrbzgt0GtyWWv2t6McvIBwAkylYP/d50YazJT65kTKK5lkwrdN0XOgMAkAwDmfwBG4ftSkmvDt1Sp8qSz55eyP4sdAgAAKNtq4e+RTpFromVjEmwzeWm0vmhIwAA9c9zuWhgcPJHY1lO0pjQPXWqZGbvactnvhs6BACAStj6R/dd8yrYkXC+/NBFCx4MXQEAqG+96cKUgUFb4vK3hG6pYy7TaW35NCMfAJBYWzX0V2cXT5Oro9IxCbXZ3T4XOgIAUL96ZvakXjpp3Udc+rTLx4buqWMlMzulLZ/+VugQAAAqaauGvnnqVPGRetvHtbSjmBkMnQEAqE+96cKrzdYXXDY1dEudG3HX+9sL6RWhQwAAqLTnHfp3zuxp2WLr38PO3y7DLn0pdAQAoP70pgtjZfZpk58lqTl0T50bkdnJHYx8AECDeN6hv3ni+neYa/dqxCSNy67sKKb/HLoDAFBf+jP5D7h0geRTQrckwGbJT2jPZ64JHQIAQLU879A30ynVCEmiSPEloRsAAPXj1vmXTU6Vmi5y6T2hWxJiSyw/aXohy8gHADQUe64/uSa7eI+SR3/RttzOjyf5te2F7LGhKwAAtW9lLte0y+DkD7vs05K4bG90bHTXWzuKmVWhQwAAqLbnHPAjcfR2M0b+9oilhaEbAAC1r6+ru12D8SUuHR66JUE2WGzvaO9OM/IBAA3pOUe8md5XrZCEWTO9kP1J6AgAQO1aM6/7JaVUeaHi+G2hWxLmz0pFx7YVOn8XOgQAgFCedejfPK97Tyl+XTVjksJdhdANAIDatHL28jHjWkfOLCn+hGTjQvckzN2RxcdOW5S5L3QIAAAhPevQb47ikySlqtiSFJsk/U/oCABA7enP5E+KNfxFk14SuiV5/GZ3O35aoevvoUsAAAjt2R/dN51YxY7kcH2ro5jZEDoDAFA7etOFI8x0kUsdz3kLLraT94xvGf7AAZecMRS6BACAWvCMQ783XdhNEo/tb4fIbWnoBgBAbRjILn6xK/qiu07S83zSDbaXL/q/dZPOmLViVjl0CQAAteIZh76ZHysZj+1vu7sP6e68SUqH7gAABLRy9vIxu7QOfSh2O0fS+NA9ieU6v62Y+VS7zEOnAABQS55x6Luid5j4PXNbmXy58c0GADSs3nSh2SLNcR/+pMv2Cd2TYCMyW9BeSHdLmdAtAADUnH8b+nfO7GnZovXHhIipc66mpm+FjgAAVJ/nclH/4OT3ScrJtT/P6FeOSevcopnt+c7rQ7cAAFCr/m3ob9r14RmRR3zcz7Yy3dR22bw/hc5A8q3JLt5jxFPZyPyV7v6npnLq4qlLOh8I3QU0Ipdbf6bwrr5B+6xJB4XuSTqXfp+K7fhDujt/H7oFAIBaFv3rH0gp4jR/O3isb4duQPL1ZQtnljz6g8nPc9dMyT5SSsV39Wfyc0O3AY2mL5M/tj9TvFWy7zLyq2LlcCl1+CHdaUY+AADP499O9N3F0N92ZUkrQkcg2foz+Y+764Jn+FM7u2xJb6bYce+6Cadx8zRQWX1d3a9VXD5fsteGbmkUZloSx5o/Y+m8kdAtAADUg396jfDmed17NqfiwX/943huJvtFWyF9VOgOJNdt2cV7lz26V1LL8/xHvzdm3cT3HrRi1nA1uoBGsjq7+NDIo/MkHRu6pYGUTf6xtkL2K6FDAACoJ//06H5zkx8pRv42c/cfhG5AspU9equef+RL0glbJq3/5spc7hk/UQPAtnG59WXyx/Zl8j+PPLpFjPxq2iCzdzLyAQDYdv809E3++kAdda0pjhj6qLRXbMN/9oTxg1O+zdgHtt+NZ35lp95M8UP9meI9kv1UsjeEbmosfnM5VXpVez59degSAADq0T8NAXcdESqkbrl+N3VJ5x9DZyDhXLtu47M2J4wb3OsSl883mVeoCkicO+df9oItpaZ52qQzJd83dE8jMtPX4tjmH7powabQLQAA1Kt/DP3edGE3Sa8M2FKXLBKn+aiGDdv6F5g8258pllXQaZUIApKkN13YN4r04S1lzZHpBaF7GtTjMsu05dPfCB0CAEC9+8fQd/NDTcb7+duorPja0A1IPpf+tp1/cy7oSxceai9mzhvdIiAZBjL5A2K3D8v0QXeNCd3TwO4z+cy2fKY3dAgAAEnwj6EfmU0TD/huq80TmkduCh2B5DPz27b7nkxTrj+T39JWyF44ulVAfXK5DWQKb3BpQSx7h+yf76tBlZl+OjSSOnnG0nnrQqcAAJAU//8d/VjTuG9/G5luOOCSM4ZCZyD5bKS5z5tL2/3Xu+yC3kwx6iikvzCKWUBdufn0heNbhls+2K/ifMleHroHKvn/Y+/Ow+Qqy/SP38+p6u7sK0s6IDuCRAjp7rCDRBYBEVBJRkWYbF2nOpuDLP5GHCxRB9eggaTrVIcEQQU7AjojosMSlhCWVFUSMAgEUEDSYUtIIEt3V53n90cSDZClu1NVzzlV9+e6uBxIp86XIenUU+c976u4rr627fuSSPjWMUREROVku6X7qOOc3z3q4wHrBqoMdfMmrcrEvKchOKanryHQ/87EvOF1w9u+xjfVVEnSMe8Ux8EM7cAFCtRY9xCgwAviOF9paG7MWLcQERGVoygApGPeQAEOMm4JHUf0YesGqhwqcq9AezzoAwAE07JttYNWjG2dNGLBuI4CpREFTjrmVYnoFwCZAuA05aNpwaG4A0C8vrmx25uMEhERUddEAcARHanciK+72vtXd2StI6hyiCML4Os3CvBSX908dO3Hnpjc8m8nzG18owCvRxQYy+LN+/kqMQUaAam17qEPeB8i0+u92C3WIUREROVOACAd82aI4OfWMSHzZL3nnmAdQZUl7Xp/EWBEgV7udYGOrfPi3FCSQm1hIhHt1zbsbIEzQaAXYfv9ZygYBEsc1UtGefGV1ilERESVwAEAER1lHRI2CnnKuoEqjwO9rYAvt59CHkq7qa8plCt6KHSybrIh4yZ/NrCt9h8O5B6BXgwO+UHjK+SH6uNkDvlERESls/UNkYy0zQgfETxp3UCVxxH9ZV7l+wAiBXrJaoH+LBtPnb881zJh5NzGfxTodYmKIjt17oGaz38Viq8qcCQAngwbVIpX4DgTG5KND1qnEBERVRoBgIzrrQMwwLglVAQ6os6LP2vdQZUn43p/APDZIrz0uxCZVp+M/aoIr03UY0vHzx/k9+ocC9WvAjgV4GGwAadQpDbloledMm/Se9YxRERElSj6dNOcwZ0+h/xu2ryudvUL1hFUmcSXn6mjxRj0B0H1lxnXi0V8mXJsS2xFEa5B1CUrpszu156PfEFFLvW1Ywy0YKtYqLied3yZOKolttg6hIiIqJJJpqnlGPj+cuuQMFFgWYPncl8DMqFQybqpZ7F12XKRbFbI9e+1V/1ozC0TNhfxOkT/lI55VeLIpwV6MRRfUGCIdRN1mQJo6axuv+qEG2est44hIiKqdFGoHmAdETaieMa6gSqXQDSt3rUiaC3iZXoJ9DsDajq+mm1KXVnXHPufIl6LKti24V4VYwV6EVSH8pn70HlVFY0NKff/rEOIiIhoiyh8PZBPO3aPiHLZPpmqT8V+m42nlkAxusiXOlx9/X3GTT6qKlc1pFxuQkl7LB3z+kREz/IhFwpwoaoO4R9DoaQiuLmjqv0K3sUnIiIKlqiKfEy4Z3G3KPB36waqbALRjLRcAfUfRkk2JpNTRfB42k3dGYH/TR6TRd21PN68T17lc6pyAQRn+ZDeAHfMD7G/CHRqXTL+iHUIERERfVQUAJfud5Oq/N26gai+ufHRjJucC0hjiS4pAr3Yh1yYst6+oAAAIABJREFUdlO3O/B/yJMnaGcUKul48ljRyDkien5OcQIAhyvIQu99VSQAzKpPxTutY4iIiGjHogLdzzoibPxo7hXrBiIAcNprrvZrOj4HYFgJL1sl0MsU8tW0m/pfqF7PJf0EAIsnzR1SE82dBeCcLFLnOOoMA5S37cuGtkZEv36s1/S6dQkRERHtmmRcLwuAO8h3XcdLawb3GbdgXN46hAgAsk2pC9TX3xtnLITIzJfeGXQvf29UjhVjW6vbh6w5AcAZCjkLwHEAj8ErNwq8oNBpo734fdYtRERE1DWSdr3nBfi4dUhoKF6sT7mHW2cQbS8b936uihnWHQK84UNugWpLQ8p9ybqHCmvl9Fk1723udarv4EyBnglgJLY8Akblab1Crn2vdtXsMYlEzjqGiIiIui4KoI91RKgIuGyfAsf38Z8iOBvAkZYdCuwr0G9AcGXG9f4IkRTv8ofXirGt1R2D3m3wI3oKVE9d3yGnwNFBfMy+7KkIbvd9/GdDKvaqdQwRERF1n2Rcbw2AwdYhYSGCX9Ql3fHWHUQflo55R4vgcQB9rVs+ZDUUv/Ud/46GZHyxQPjEdkClY95AET0RKqdAcCqA0QB6W3dR6Qjksbzkvz462fSUdQsRERH1nGRcrx1AtXVIWIjgp3VJ90rrDqId2fq8/t0AHOuWHRFgjSrugeiCl9YM+SPv9NtJx7w+jspJuuVufT0g9QBqrbvIzF/El8vrWmL3W4cQERHRnpOM6/HuWncorqlPuf9tnUG0M5m4930ovmnd0QUvQXGvI3p/e3XHwhNunLHeOqhcrZw+q2Zde80IER0JYKTAaVBoHXi3noB1UHx/QE37rMNvnNFuHUNERESFwU2UusvBO9YJRLtSN6ztv7Krao+A4IvWLbtxKATTfMi0qo6aXMb1lojgfqje76s83pByeUZ3DyyLN++X850R4uBYqB4DyMj1HThSBFFsPcReed4dATlAU6ry7YaU+7Z1DBERERUW7+h3kyrGNaTcBdYdRLuycPz8XgNqOv4M4DTrlh56H8CTEDypPpY4uehTdfMmrbKOCpKnm+YMzvnO0b7KCMfB0aoYAeBocM8V2rWcCH7l+/guT8YgIiIqX5Jxvc0AaqxDQkOcM+qTjQ9aZxDtztLx8wf5NR2PYMvwF3oK/EOgS1TlKQBPOp1Vf6mbP/Et665iSse8gRJxDhPVw6H+YT6cwwV6OASHQbG3dR+FSh7A7Q70ulFefKV1DBERERWXZF3vHQWGWIeEhS9+3ehk01LrDqKuWBZv3i/vOw9BcJh1S5GsFchKhb4g0OcVWKkqK3tHcy+MmDP1feu43Vk08eb+vaK5g0T0IAEOgsiB6uMgCA4EcBCAvYwTKfx8hfwGqtc1pNznrGOIiIioNCTteq8JsL91SFj4Tv7I0c1TnrfuIOqqp6bM/lgkH30IwCHWLSXWBuBNQFdD5U0VeUtE3wDkTfX1LUf0jVwk/0Yvlff1/X4dI2+7bMOeXOzppjmDASCvMlBVBsJ3BiGKgVAMVOhAALWqsr+IDoeP/SDYH0D/Avx7Eu2ID+hvBfhOnRd/1jqGiIiISksyrvccgCOsQ8IiH8kdcNycqa9ZdxB1R3bq3AM1l38IW+4S0851ANgAoB3ARijaIdi43Y9XA+iLLRuZ9seWYwwHlrySaOdyImj1ffygIeU+Yx1DRERENqLYsukVdZGTi26ybiDqrrrZk19ZPrnl07mIfz8q785+d1Rv/WsLsQsh6qYNIrhZ4N8wKtn0d+sYItq9p5vmDM77zl6+ExmqeX+oIzpURYbCx1AV6erJWBsF/mviO6vzkfxrg6o6V/KoTCICgCigrwJSbx0SFrma9g7rBqKeGDm38W/pmHeKCO4FMNK6h4gK4k1V3JSv6pxz/OxpPP6VKCAUKtkpNx+qufwh4siB8PXAbfuvKHCQALWdPiIAAN+HCKAQQAEIIN06BlWgjsJRB+s7avIZ13sZiqcBLFLgkfrhbcskkfCL8K9JRAEmGTf5Y0CutA4JC6e9evCoWya8a91B1FNbd+P/PcJ79B4RKV5UYGZH3w23nHTD17nSjMhQ69jWyMFD3/lEBJFRqloHwSgoRgEYYN221WsKWRD1Me/YltgK6xgiKg1Jx7wmEcyxDgmL9lxk6Ek3T15j3UG0JxZfPrN3zca+vwZwkXULEXXLIlXMennt4LvGLRiXt44hqlTLGlMfzzk4U6BnARiDcOzXogK5Xx35bn1z46PWMURUXJKOeWeL4M/WIWGhir0bUu7b1h1Ee0oTCSfbVvsDAFdZtxDRLm0A8CuBzqnz4sutY4gqVTrm1UFkvKhesHUZfojp3aoS43taovIl6Zh3qAhetA4Ji4j4+x+bbHrduoOoUDLx1HioJgHUWLcQ0Qc8r5BmqN7SkHLXWccQVSJNJJylq4d/XlX/H4AG655CUuAfKv65o5NNf7FuIaLCk9axrZFDh6xdC57n3CWq+ERDyn3OuoOokNIx7xRxcBcUe1u3EFW4PID/FV9mj2ppfEAg3dmRi4gKKB3zxkAwU4BjrVuKRYA1GnFOqZ/T+FfrFiIqLAGATNx7CIpPWceEgUBH13nxtHUHUaEtn9yyfy7i3w7gFOsWogr0MhS35qO5ecfNmfqadQxRJdNEwsmuqr0egqtQGQetPjeguv1YHstHVF62nNGpugQQDvpd4Ktw5QOVpZFzG/+xMJEY079t+PcEejUq480NkaX3Af2t+M4to1oaH+Hde6JgyLbVNkMQs+4ooSPf66y5BsC11iFEVDgCAOmYN1YErdYxoSDyb/XJGP9/RWVtiZs8z4H8AsBe1i1EZUYheER9zO8dzd05Ys7U962DiOhflsSbT3fUWWjdYWCdKoY3pNyN1iFEVBjRrf/7pGlFiIj6+1o3EBXbaC/+x+zEm0dqdW4uFOda9xCFnuKvCtxe5Tu/HDm38W/WOUS0Y47vuBW6nm1gRPQsAL+3DiGiwogCQEPKfTXjei8DOMS4J/BUhYM+VYS6eZNWKfSz2XjLZKj+FNywk6h7FK+oyB0O/NvrUjwWjyjoVkyZ3W9zHhdYd1jx+ec8UVnZdkcfClkoUA76uyO6n3UCUakIRJFEy/LJLffnov58btpJtGsCvOFDWiM+7ji2pfFxPndPFB6b85GLAPSx7rAS8Z2nrBuIqHCcbf+HCCrxeaQekCOsC4hKbeTcxr/VDWv7NABXgDXWPUQBs1oEzQI988U1g/dr8GIzRrXEFnPIJwoZka9YJxh6+diW2AvWEURUOP+8oy8dkYValVNwp+1dEoCDPlUkSSR8AKl0zLtLgB9CMAH8fkEVSoF/OIK7oHrnqNrVi7b+/iCikMpOmLe3audZ1h129C7rAiIqrA+8Sc/EvOUQHGMVExbSUbVP3fyJb1l3EFla2pg6Ke/obAGOtW4hKgUF/ibQO+FE7qxrnvwk79gTlY9MPNUI1ZR1hxnHObG+ufEJ6wwiKpzoh/7+TwAH/d3xqzqPAMBBnyraqJbY4taxrQ2HDF47QQQJANy/gsrRUih+L6K/q/e231Cv0a6IiApP9ULrBCsK/KO+efKT/L5GVF4+MOiL6D0KudoqJizEkU8AWGTdQWRt3IJxeQBz0zHvFyKYIMB1CvBkCgqzdkDvE2CBr/LHhpT7tnUQERXXE9NnDUAHzrTusCLQO7hCiaj8fGDQ91UeF8F6AAOMesJB9XDrBKIgaUi5nQBST0696c5oZ9U1EDQB6GXdRdRFbyvkPkdwr+/rvQ2pOId7ogpS3dnrLIXWWHdYUZXfWjcQUeF9ZCOtjOvdAeDfDFpCQyB/rPNin7XuIAqqdMyrFcHlAOLgubwUPD6AJRD8SX3cWz+8bQk30yOqXJmYdysEl1p3GPl7nRc7hHf0icrPRwb9bDz1RVXlJ3u7trautm0vvjEk2rWnm+YMzvnOVBWZAcXe1j1U0V4F8IBA7/NV7uOSfCICgIWJRHRgW+0bCgyxbjGh+FF9yv2GdQYRFd6HN+OD7+u9ItgAoK9BT1gMXto27GgAy3f7lUQV7JjmKWsBfC8d82Y6opN8yDQBPm7dRRXhbREsVOABR/XBUV58pXUQEQVP/1W1p6pU6JAPABGn1TqBiIrjI4N+Q8rdmHGT9wAyziIoLFTkVHDQJ+qShpS7EcCNCr0pG285G6rTAZwLwDFOo/LxjkIWOfAfEd958Nj9Vj3NVVdEtDuOg89qpS5aV7xY39yYsc4gouL4yKC/1W8AcNDfBQFOA3CTdQdRmAhEkcSfAfw5HfMOdRw0qWIigMHWbRQuCvzDETwC1Ucd33l0ZEvjs3zGlIi6S32c9dEHWSuEA97NJypjOxz0B1R33PNeR82ain1eqQtUcap1A1GYNaTclwBcuXL6rGve76g+x1f5EgSfAx8boo/qALBUBE/6Pp6MOP7iUcmmv3/wS2IWXUQUYk9NmT0MeRxt3WFFVDnoE5WxnX6GmXZTzQKNlzImbCK+HHFsS+wF6w6icrH80lv75vtsvEC3DP3nAKi2bqKSUwAvK+QpAE+KI08OiG5aeviNM9qtw4iovGTjqUtV9VbrDiPP1XvuJ6wjiKh4drZ0HxEft/kOOOjvQk70DAAc9IkKZORtl20AcDuA29Mxb6A48hn4ej4E5wLYyziPCq9TgRUCXaZwljnwl/oqyxtS7jrrMCIqf+prxS7bF/BuPlG52+m3N4VKxk09xx2yd04g99V5sbOtO4jKXevY1sjhg949Xh3/fIWcB+BocCO/sFkP6HKFs8wRLMsjv7TPO0NXjFgwrsM6jIgqj0Il66ZWARhm3WJBFcc0pNxnrDuIqHh2+TlmOuZdIYKflComhDrbc5FhJ908eY11CFElSce8gSJ6ogAnKuRkAMcD6GfdRQCAdgArAbwAwXPqY5lEI0vr5kx6iZvlEVFQZJpajoHvV+rpSS/Ve+5h1hFEVFw7Xbq/1S8AfA9ArxK0hFFVTZV/AYBbrEOIKsnWpd1/2vrXtjv+R+cdnCTQkdhyx/+TAPobZpYzH8Cr2PLo0sqtA/0LVb6z8pj9X39lx8faTS5xIhHRzmneP0sqddm+4HfWDURUfLsc9BtS7tsZN3knIJeUKih0VL8ADvpEpsYtGJcHsGzrXwC2LMt8evLcg/JVerTm9ZMQHAPgKACHAehtlBomG7FlmH8dwKuqeMFxZKXv6wsDa9pf4OZ4RLu3Ysrsfu1SM9TvzA8VR/YW9Yco5J8fQCqktwP/IzdTVORd9ZEX0TdU5XU/mls1es6UN7gqpnBE9KzdLGwtW3n4d1s3EFHx7fY73NLG1Em+o4+VIiakNm/qjO5zyrxJ71mHEFHXPDG5Zd+qKhwsfv5gH85BAv9giBwMHwdBcADKf7f/DVC8CgevC/A6VF9RyOuqeF0d/5Ua0dePaZ6y1jqSKMiyE+btjeqOAyHOgVD/QIgcqIqDoTgQwF4QDAVQU8BLbgDwHBTPwsFTEOeRun1f/8uOV9DQrrSObY0cOmTtWlTgqi8B3hhV2zacv26Iyl+XPsrMxL3HoDip2DFhJSJfrkvG7rDuIKLCeHLqTUOrctF94Tt7I4Ja39d9BNgHQC1E9wFkbwB7Y8vKgN4ABhmltgNYA2Dttv8VwRpVrFXFGnGwVn2scVTW+qJroiprtbPqzVG3THjXqJcodBQqmVjqEAB1joM6VR0FkToo9rZuA/A2gP9VxZ31w9vu5fDWNUvizaMcdbLWHTa0pd6Lx6wriKj4dveMPgBAffxYBFzmsxOq+lUAHPSJysTxs6e9A+Cd7vycxZfP7I31A3pXVXcMqspFe/uO3xu+MwhR9PHz2q27ehHRDvWdDXD8DnUiG3zNtUN0Y5VKuyO6sSMfaW9IuRu79S9FRF22pGnOEY5GzlKVM7NIfUq2fpinCgACBGcB/V4AJohgQrat9qWsm/zJutrVc8ckEjnrsCBzfOekCl21Dx98Pp+oUnTp25wmEk62rXYFgCOL3BNWeYlGDq2bPfkV6xAiIiLqHk0knOzq/U5X1a8I9GwAH7Nu6jHFX33HHz862fSUdUpQpd3UrwX6ZesOAxvb+2zY66Qbvr7JOoSIiq9L51BLIuELlMfs7VxEO/ON1hFERETUdU83zRmciXtXZ9tqX4L6Dwh0EsI85AOA4BOOOovSMa/JOiWoRLUiH0cVyEMc8okqR5cGfQDoX93xSyhWFTMm1AST0jGvyjqDiIiIdm1hIhHNusmvd/qRv0PxQwAHWTcVWJUI5qRj3v+zDgma5ZNb9ofgQOsOG/6frAuIqHS6POgffuOMdjj4eTFjQm6YI3qhdQQRERHt3FI3efiAttrHFfJTAAOse4pJBNcvdZN8b7KdXLQy7+YDgEai91o3EFHpdHnQBwD14QFYX6SW0FNI3LqBiIiIdmxpvPkgH/IwgAbrllLxVeakY95A646gEOjJ1g1GVtbPmfyidQQRlU63Bv2GlLtOIc3FiikDn17SNOcI6wgiIiL6KF/lRgC11h0lJRjuiF5mnREUWqHHRYuAd/OJKky3Bn0AyEc7fgyAZzDvmDi+w+fhiIiIAiYd82oBOc+6w4JCxlk3BMHWlQ3HWneYyAufzyeqMN0e9I+fPe0dhfyoGDHlQb66pGnOIdYVRERE9C/iyPnowfueMlFZqxh2wonIpwBErTsM5DbmI4usI4iotHr0B9577VU3AHi1wC3lIur4kW9ZRxAREdG/iOIi6wYziiXWCUGgeT3LusGCQLKnzJv0nnUHEZVWjwb9MbdM2Azg+wVuKSeXpGPeAdYRREREBKRjXh+FjrHusKLAA9YNQaCCivw1oKqPWTcQUen1eAnb+tq2eQCeL2BLOal2HPBZfSIiogBwInImgN7WHUZyAH5nHWEtHfMOFeAo6w4TjjxqnUBEpdfjQX9MIpETkWsKGVNOVDFxWbx5P+sOIiKiSuf7ONe6wYpAFjak3LetOwLgKwDEOsKASnuUz+cTVaA92pRmVLLxLoE8VaiYMlPjw0lYRxAREVU6gZ5u3WBFBQusG4JAgC9bN5hQPFc3f+Jb1hlEVHp7NOgLROHj6kLFlBtVTFwSbx5l3UFERFSpthyrhyOtO4zk1Ne7rSOspWNeHQSfsO4wIcq7+UQVao+PmalriT0sgl8UIqYMOY46sxVaiUvFiIiIzInoGdYNZgT3cdk+IMBXrRvsSNq6gIhsFOQ8Wd/HfwJYV4jXKkMnLnW9L1pHEBERVajTrAOsiOqd1g3W0jGvClKhy/YB+OKvsG4gIhsFGfQbUm6bKv6zEK9VjnzIDcsvvbWvdQcREVHlkUq9o98u7TUVP+g7ohcDGGbdYUTbO6qfto4gIhsFGfQBoH54mwfoE4V6vXIiwP6dfTZfYd1BRERUSbJT5x4I4BDrDht636hbJrxrXWFNRVzrBjOKV0+ZN+k96wwislGwQV8SCR9O5HIAfqFes5wI9Mp0zDvAuoOIiKhi5P2KXbYPcSr+bv6SpjlHQCv40Q0RLtsnqmAFG/QBoL658QkAzYV8zTLSXwS3cGM+IiKi0lBfz7JuMLK5s2rzXdYR1iIamQKgct93iXLZPlEFK+igDwC5aOe3AVT8Dq87MSbreuOtI4iIiCqBCsZYN9jQ+0+4ccZ66wpLiy+f2RtaybvtA1D9q3UCEdkp+KB//Oxp76jiykK/bvmQmdmJNw+3riAiIipnS5rmHCHA/tYdFgRYYN1grXpD30sUGGLdYclXec26gYjsFHzQB4CGlPsLQFuL8dplYJBW537BJfxERETFE/Gds60bjGza2Fl1t3WEJU0kHAiusu6wFhH9h3UDEdkpyqAPAJ35yAwI3irW64ea4sxMLFWxZ7oSEREVm6Jil+0/UOk7rWdW1Z4pwMetO6w5G/ussm4gIjtFG/RPmNv4hkCaivX6YSeCWVzCT0REVHitY1sjgJxu3WFBxKnou/kAIILLrRsC4N2Rt122wTqCiOwUbdAHgLpk7E4A84t5jRAbqlW53yxMJKLWIUREROXkkMFrGwAMtu4wkOuMdPzeOsJS1k2OBHCOdYc1BV63biAiW0Ud9AGgyslfAX6z2ZlTBqyu/YZ1BBERUZmp0GX7WHz87GnvWEdYUmCqdUMQiKDNuoGIbBV90D+mecpaiEwCoMW+VigpEksbUydZZxAREZULR+Qz1g0mFBW9bD87Yd7egFT2kXrb+FhnnUBEtoo+6ANAfTL2Z4V4pbhWCEV90V8vHT9/kHUIERFR2C0dP3+QQk+x7rDgOP7vrBssaVXn1wD0tu4IBMF66wQislWSQR8Aqjb2ulKBFaW6XqgIDszXdLZYZxAREYWdX9P+GQAVt/+NAstGJZv+bt1h5YnpswZAuGx/GxFU9MkLRFTCQX/kbZdtkIgzFsD7pbpmmAj04rSbmmLdQUREFG5yvnWBDfmDdYGl6o7qJgBcHbmV+hz0iSpdyQZ9AKif0/hXiMRLec0wEejPso2pT1l3EBERhdHWk2zOte6woJL/k3WDlcWXz+wNCI/U246IctAnqnAlHfQBoD4Z+5VCbiz1dUOiSh29OzNl7mHWIURERGEz8PXhpwMYat1h4J2/vTP0CesIKzUb+roK7GvdETCd1gFEZKvkgz4AQPUKAI+bXDv4BiOf/990zBtoHUJERBQqEf2CdYIFhfzfuAXj8tYdFlaMba1WwRXWHUHjq4h1AxHZMtmspiHldmamzL0M+XwaAAfajzoSInMVOk4gPJaQiCrKiimz+3V2Vg3Pie4jjvRVXwcAQES0Q31nAxz/XV/lfQAvNaRc3rUiAIAmEk62DRdYd5hQ/bN1gpVNg9d+WYD9rTuCRqxu5hFRYJjtSls/Z/KLWTc5WSELrBqCTKAXZ2KpbyGF71q3EBEVw+JJc4dUR/InCnAiBJ8AcCiAQzfn0Q+OQgBAFdvuS/kQwFEAsu2f5dKu97IongPwDBx5tJfT+diIOVO56WsFWto27HgA+1l3GFA/mqvIQb91bGtEZO1/WncEkgPe0SeqcKbHz9R58d+m3dRMgX7dsiOoRJBIx7znGlIuPwwhotBLx7wqdfyTHd85F4JzgfwngT16MxoV4OMQfBzABVDF5nw0l3G9DAS/yUU6bz1+9rR3CpRPAefD+bKgIhfBLT1uztTV1hEWDh367pegOMK6I4hElYM+UYUzP2f25TWDrj50yNpPAjjbuiWAHBHcmmlqWV3f3PiodQwRUXc9Mbll3+pI/nxVOReCM0WdgUW+zxQFcDwUx0dzVden3dRdER83jGqJLSnqVclUOub1Eeil1h029EHrAgutY1sj0LXfsu4IKhXpbd1ARLbMn98Zt2BcflNn9GIAf7FuCahe8P0/LG1MHWsdQkTUFYsm3tw/43qxrJtaVBXxVylkLgRfROn3ZKkR6Jd9R5/KuqlFS+LNp5f4+lQ6X0GlnqEuzsPWCRYOG7LmEgBHWncElmpl/n4gon8yH/QB4JR5k97znfzFAN61bgmoAb6jd6djXq11CBHRjihUlsSbT864nte7KvcqAE+hJyMgf84o9GRHnQczMe/GdMzrY91DhSWCydYNRjQX6ai4U4w0kXBU5f9ZdwQcN7smqnCBeAMGAKObpzwvvnwFQEUeD9MFB4ngnkUTb+5vHUJEtM3K6bNqsm5yUjaWWuGoswhADMG9syoQTBNBNusmG6xjqDCybnIkgOOtOywo8Gwl7kOxdPXwcVs38KSdkqB+HyaiEgnMoA8AdS2xe1XxDeuOABvVu6pzQTrmVVmHEFFlS8e8gVk3+Y31HTV/27o0P0xvuo9QyCPpmHeRdQgVgIhrnWBHKm7/ni138/W/rDuCTjjoE1W8QA36ANCQcn8qgl9YdwSXfAYiv9BEInD/7Yio/C2LN++Xcb0fieBVhfwAQFgfKeotgt9m4l4FD4nht2LK7H6quMS6w4xqxQ362bZhYwEcZd0RdAoN6/dmIiqQQA6L/avaXQgWW3cElUC/nG2rbVbw6BQiKo3Fk+YOybjJH+fVeRHAVQAGWDcVQASK5mw8NdE6hHpms1/1ZZTHr8Ue8aO5ihr0t+y0L9+27giJ4dYBRGQrkIP+4TfOaFcf50HxtHVLgMWyrneTdQQRlbcnps8akHZTP6iJ5l8F5EoAvaybCkxUtSUd88Zah1AP+DrNOsHQ6uPmTH3NOqKUDhm8dkLIHhOy1P+J6bMq9kMwIgrooA8ADSl3nR/Jf16AN6xbgkumpGMen1MjooLTRMLJusnLqjpqnhHoNwD0tW4qIkcEt2TdJJcDh0g65h0PwTHWHWakso4lXjG2tRqCb1p3hEkkF+XyfaIKFthBHwBGN095GdDzAbxv3RJUIrguHfNmWHcQUfnINLWcmmmrzSjkFwAOsO4pkT6qcvvC8fPLbcVC2RLR6dYNprSyBv1NQ96dLMDB1h1hEslFP2bdQER2Aj3oA0CdF0/70H8DkLNuCSoR/CzrJidZdxBRuGUnzNs74ybnw/cfFuBY656SExwzoKbjeusM2r10zKsFpKIftxBoxQz6iy+f2VtUr7HuCBuN8IMRokoW+EEfAEZ78T+KyKUA1LoloEQhLWk39TXrECIKn4WJRDTrJr+h1Z1/A2Q8gEre6HNGOuZV5JnsYSLAVADV1h2WxHcqZh+j6o39/gPCzeW6SxWHWjcQkZ1QDPoAUJeM3aEQfpq7cyLQGzIx7z+sQ4goPJY2pk4a0Fab3npUXjk/h99Vjghm8wjT4Fo4fn4vCCr9WEQ/L7rCOqIUFk+aO0SgV1t3hJEjeoh1AxHZCdUbmXqv8QcKudm6I8AEgpmZuFfJuxATURcsHD+/V8b1fuQ7+giAkdY9AVOfXT38YusI2rGBvTrHAtjLusOSAq80pNyN1h2lUBPJTwcwyLojjFS5dJ+okoVq0BeI1nuNjRz2d0mguJG78RPRzmTd5Gn9azqeBXAVgIh1TyCpfkuhlfwIQ2D5ql+3brDmQF4/p9K9AAAgAElEQVSxbiiFJya37AvBVdYdIXaYdQAR2QnVoA9sGfZ7rxk0BcA91i1BtnU3/iusO4goOBYmEtG0m7pWIfdz9+rdOjobbznbOoI+aGlj6qSK3CjyQxT+69YNpVAV8a9AEB4pErxlndBDg56cetNQ6wgishG6QR8ARiwY17G+vfpiQB+0bgkyEfyEd/aJCAAyU1o+MaCt9nGBfgdAlXVPGIiCR5cGjF/pR+pto1L2g3524s3DsWXTRWtvwsd3rCN6yslHuCEfUYUK5aAPAGNumbA5urHPBRAstm4JMhFcl4l5M7kElagyKVSybnI68n4WQIN1T5go9DNbhw0KgGXx5v0g+KJ1RxCoyCrrhmLTqs5rAPSx7oDiJ47KU9YZPSW+w+X7RBUqtIM+AIy87bIN6uM8AFnrlkATXJ51Uze3jm3ls7hEFWTp+PmDsm7qtwqZBaCXdU8IRfxo7jLrCNoi7ztN4GoUAIBT5kv3l8abDwJksnUHBG9FN/We42zu9SwA3zqnR0Q46BNVqFAP+gDQkHLXqeIzClTEMTN7YMKhg9f+ZuX0WTXWIURUfEsbU6PzNR1ZAF+wbgkzEYyzbqCtR+o5iFl3BEhZD/q+yrcBVFt3wMePR9522YaRt122AYrnrXN6iEv3iSpU6Ad9AGhIuW9DcRaAldYtgSb44nsdvf53+aW32m9sQ0RFoVBJu6mv+Y4u4oZ7BXHsU1Nmf8w6otIN6NX5JSj2tu4ICo1E3rVuKJZ0zDsSkEutO7bdzf/X32soV4+KKO/oE1Woshj0AaAh5bZJZ/R0ILSfuJaEQs/K9dl03+JJc4dYtxBRYT3dNGdw1k3dJdCfIQh3w8qDOPmqz1lHVDxVboy4nWgH3rNuKBbHwXUIxrGfPxl522Ubtv2NhPUxUeURe0SVqmwGfQComzdplSrGQPFX65aAO7Emmn8sO3XugdYhRFQYWTd5VGc+8hSAi6xbyo1Az7JuqGSZppZTAYyy7giSTscvy0F/Sbx5lCoutu6A4K3oht6zt/9H+ZDe0QewzxPTZw2wjiCi0iurQR/Ycme/03fG8Jn93TpSc/nHlzamKv48YqKwyzalLlDIExDeuSmSU3hyiR1Rn0fqfZC+vHbw+9YRxeCo8wMAQfi99oG7+QAgvrMUgBr17JFIZxWf0yeqQGU36APACXMb36gS/9MAnrFuCbha39GHs42pM61DiKj7FCqZuHeN+no3gP7WPWVsr6Wu9wnriEqUjnkHqOLz1h0Bs3HcgnF564hCW+ImzwJwtnWHAG98+G4+sGXzZyhesmjaUw4iR1k3EFHpleWgDwAjk01vquLTAJZbtwTcAHX0nkw8dYl1CBF13fJLb+27NJ76DRTfQxl/Lw8KBY63bqhEIpgGIGrdESQCtFs3FJomEo5AfmTdAQA+5PoP383/p5Au3xfoJ60biKj0yvrNYUPKfTsX7TwDwFLrloCrhuptmbh3tXUIEe1eOuYd0Nln0yJVjLVuqRxyjHVBpVkxZXY/AI3WHUGjZfjebenq4ZcIEIRHCV8dWL05udMfVUmXsKVgVFFn3UBEpVd2f1h82PGzp71T5eTPEMhT1i0BJ1D8MON6XjrmVVnHENGOZd3kSAEeD8ib4gqiHPRLbHMu+u8ABll3BFAQnmEvmIXj5/dS1e9ZdwCAKr57+I0zdrpiwnf8xaXsKaATW8e2BuEkAyIqobIf9AHgmOYpa2sinWcAeMC6JQRijsj/PTn1pqHWIUT0QVk3eYZCHoFguHVL5RE+41pCmkg4EHzNuiOgymrQH1DdMR3AAdYdAFa+N7ztll19waCqzjSAzaXJKaj+hw1Zw5MriCpMRQz6ADBiztT319e2nQPoLdYtQafQ06O5quWZppZ66xYi2iIT91yF/BkAj0myMWzRxJu54WGJZFbVXgDgcOuOgCqb925PTG7ZF4L/su4AAFVcMyaRyO3qaw6/cUY7BE+WqqmQfDgXWjcQUWmVzR8WXTEmkci9tGbIZIXcbN0SAvvB9x/IxFOfsQ4hqnSZuHc1FM0AuPTSUK9o7iDrhkohojxSb+dqrAMKJRrRqxGME0OeqR/edmdXvlBUQ7l8X6Cfs24gotKqqEEfAMYtGJev9xobAfzYuiUEBkL1nnTMm2EdQlSJNJFw0m5qFhQ/RJkt1w2pICwvLnuZppZjAPm0dUeAVaVjXh/riD21fHLLwQKdat0BAA70vySR8Lvytb7KY8XuKZKRyye3HGwdQUSlU3GDPgAIROs992oopgHo0jf2ChYRwc8zMe/2xZfP7G0dQ1Qp0jGvKts27HYB72wGhSPKvUtKQH29wroh6JxcNPSbFOYi+R8gGKsTHhnlxX/f1S/O1bQ/CiBfxJ6iyUfyn7duIKLSqchBf5v6lDsbInGE9Bt2SQm+VLOx7z3cpI+o+BYmElEBbgVknHUL/YuvEvrhKuiWx5v3ESh/3e+G9vIHWjfsiS17AEkgjgf10b0d/0+4ccZ6AM8WKaeoVOQC6wYiKp2KHvQBoD4Za8GWNxVh3EW11MZEO6ueSMe8I61DiMrVirGt1QPahrVC8CXrFvogcTDEuqHc5XynCUAv647AU4R60Ief/xEC8TiSPjjai9/X3Z8lgkXFqCk6xalcvk9UOSp+0AeAei9+l+PLaQDetG4JPMFhIliSjnkXWacQlZsVU2b32zx07f8BwuWVASTAYOuGcrb48pm94SAQz2wHnmqtdUJPZZtSFwRkDwYfTuTyHv1M1UcL3FIqTj6Sb7SOIKLS4KC/1aiW2BLfyZ+owAvWLSHQTwR3ZeJewjqEqFw8MX3WgM356L1QfMq6hXZMlXf0i6l6Q99LoNjbuiMUfB1undATCxOJqPr6I+sOAFDIb+qbG5/uyc91RB8pdE+pKGRCOuZVWXcQUfFx0N/O6OYpLzud0TFQ9Ogbf4URKL6dcT1vxdjWausYojBbOH5+r6qOmrsAnGLdEiCbACwHtBVACsB8CB4G8I5hU7iXSwecCKZZN4RIKO/oD2gbdimAI6w7AOTUyX2npz/52GTT6wBeK2BPKQ0TR3h0MlEFiFoHBE3dvEmr0jHvNIHeFZClZUEX2zx07SfTMe/ihpTbZh1DFDYrxrZWb65Z+1sAZ1i3BMCTCvm9A/+hdbWrl4xJJHIf/oKFiUS0/6ra80XwfQBHlTJOIJFSXq+SpGPeGAAjrTtCQxC6O/qLL5/ZWzfKdQF4MB8A5o1unvL8nryAQhYJ9MuFCiop1UkA/mCdQUTFxTv6O9CQctf1WjPkXIXcbt0SCoqTBEhn3eSJ1ilEYdI6tjWyaci7vwLwWesWQ6sV8u1o3jmk3nNPaPBi19d58cd3NOQDwJhEIteQcn/X3mdDAxT/U+pYKg4B/sO6IUwEsr91Q3dVb+z3HwIEoXtTRPzr9vhVwvucPgCcv3xySxD+WxBREXHQ34kRC8Z11HuNlwD6E+uWUBAMV8hDmbjnWqcQhYEmEs4hQ96dJ9CLrVuMrBSRSQOq2w9q8GLXjZzb+Lfu/OSTbvj6JgUuQ3iXz9JWmSlzD4PgfOuOMFHVUO2cnp0wb2+BfsO6AwAUMmvr0vs9ElV5oBA9RqI5x59uHUFExcVBfxcEovVe/CqIxAB0WveEQDUUyYybTK2cPqvGOoYoqBQqS1fX3iTQy6xbDLwt0BmqGFGXjM07/MYZ7T19oYaUuw6KZCHjqPQ0788A3490j+DA1rGt4XmUpKbzOwjGHhdrq53cDwvxQse2xF4A8GohXsuEoHHFlNn9rDOIqHj4B2sX1CdjLRDnHABrrVvCQRrXd1Q/tCzevJ91CVEQZdyW61XRZN1RYj4UN6nisDovfmNDyi3Ih6cKPF6I1yEbS8fPHyTQCdYdIVR1+NB3PmYd0RXLGlMjVBGMI90EPzimeUoh38uF+a7+4M1+dLx1BBEVDwf9LqpPNj7oO/kToXjRuiUc5IS8Oul0zOMu4kTbycS9aUFZwloqCizzxT+xPuVOb0i56wr88iW7o6ZQLdW1KkW+umMSAN5V7AEf0UOsG7oi7+hMBGPz59fbe2+4sZAvqIr7C/l6JaeYoYkEZwGiMsXf3N0wunnK87mqzhO2HvFEuzdMBA+k3dQU6xCiIFjqJi+E4mfWHSWUE8F3oThudLLpqWJcoMrx3yvG6+7E+yW8VtlbmEhEBeBzwj2mh1oX7M4SN3kegLOtOwAAIt856YavbyrkS+Z85wEAYf4A8PBlbcM+Zx1BRMXBQb+bjp897Z1e7ww+G8B865aQqBbo7EzMu3nh+Pm9rGOIrGSaWk7wIb8GEJ7navfMSwI9rS7pXluoZfo70u74JfxzTNeX7lrlb2DbsIsgONC6A8BG64CeUEWgB/10zKtyVIKyofFz64etKvj7thPmNr4BxTOFft1SUjhXWTcQUXFw0O+BLTvyuxMh+AYA37onFAQTB9Z0PszjXKgSZabMPQzq/w+APtYtJaG4s7O6va7Oixf9+fkq3ynZB4giwkG/oJwgHKm3Fop51hE9IaqHWTfsiiMah+AT1h1b6DU7O7Jzj19ZJNTL9xV6ctZNnmHdQUSFx0F/D9Qn3R9B5EIAhX7mtCwp9Lh8xE9n3eRp1i1EpZKdMG9v5PL3QrG3dUsJ5FRxZV0qNvaEG2eUZCjO+86+pbgOAPjKQb9QlsSbj1PoydYdIrgNjmSsO3pEENhB/+mmOYMV8m3rjq0W1Xvxu4r14o4f8uf0ASjkWusGIio8Dvp7qD4Z+4Pv5I8H8Jx1SxgosK9CHsjEvcsVKtY9RMWUjnlVWt1xZ5DfkBfQWl/8sxpS7k8FUrJnVh3Rku08Lsql+4UiGgnC3Xw4eUmJ+n+x7uihQ4P652inH7kWwFDrDgDqi39FMS+wud/7DwEo6LP/Bk5bEm8+3TqCiAqLg34BjG6e8nxndfvxUPyPdUtIRKGYmXFbWhdNvLm/dQxR0YjMAuRU64yiU7yCiHPy6GTTQyW/tEjJBn3lEasFsXxyy/4Cvdi6QyCPHdsSW7GuveYvAIq2j0QR9VsyZU7JVrR01bLG1McBTLXuAACF3FGsjUC3OemGr2+C4KFiXqMUHJX/sm4gosIKwnEnZeGEG2es10Ti89nVtddCcS2AQH7KHiQCvbh3Ve7oZY2pLx7bElth3UNUSBnXiwEat+4ogaUKfLZhTmObydV9fKyE321t/h3LTD7qT4WiyroD8FMAMOaWCZszrvcsgJHGQd3m5KKHAVht3bG9vOiPgSD898XmiOS/WYoLieq9Cjm3FNcqHvl0Ouad0pByF1mXlIvFl8/s3fe9/kNzVRiieX+o48gQhe4lqoNUpT9E+ymcfo7oAFUMhKAfFDUAAEUVZBdHjyreh/zrA0qBbFbR9VCsB7AOinfhYL2orvdV1osj69XXt6Iqb1ZVda4aMWcqT5GpABz0C0gSCR9AIh3zlongVgC8W717R+QdfTId82INKffX1jFEhZCOeacAKOh5zQG1qLO6/bOleh5/h0q4a3tU5fVSXatcpWNeHyhi1h0A1m7us3HBdn+fRQgHfQCHAgjMYJZ1k2cocIF1BwBAMWuU1/T3klwqEr0X+XwpLlVUjsi1CMpxiAG3aOLN/WuqOw5zVA5Wlf0F2A+C4RB8DIrhAPbHRvTORXzAB0QA1S1PtSlk6+1AgUCh2x522/6ht919gP2hH1foR3++brmWCABViAB5UeTzUWRcb5MCqwVYrZA3AbQ58P+uwEpVWdnRd8OLhT6OkkqPg34RNKTc32WmtByvef93AnzcuicE+orgV5mYd2KvtYOvGLFgXId1EFFPPTVl9secPH6rQLV1S3Hpg9GNfS6o99wNphXAJ0t1Q9+J5laV6FJlyxG9TCFDrDtEcNsH3sQKslBMMEzqGZHA7P/ROrY1orp2ZiDWMwreUsV/l+py9XMmv5hxvZUADi/VNYtBoWdl3eSJpTgxJQzSMa8qqvLxnOhRjugREDlMgcNFcagity90yxPQsv2v+ZLtULPHegtwMICDBdt9AIEt/z41G/tqxvVeA/RFqKwU0RfgO08jF11eN3/iW4bd1A0c9Iukfk7jX9Mx7zgIbgPwOeueUBBM2zxkTcPyyS1jR85t/Id1DlF3rRjbWr3ZX3unAoF7brbA/tTeZ+MX6r246af9yy+9tW8Om0o16Gw6pnkKn9HfAwqVLFJfs+4AtmzCt/3fi2pGAzGhdk+Qjtg7dOi7E6E4xroDAODjOw0pt6QnIongXtVwD/rAP3fgD/ljCN2XjnkHiGiDACN9OEcJ9CgAh+dFq7bcHJd/DvHhmeX3iAA4AJADIPi0QgBHgepOZGLeKhFZBvjLVZxlvuSW/+3tvV4ct2Bc+Je1lBkO+kXUkHLXKfTCTCz1LREkwM0Pu0BOyEX9bLYx9ZW6lljoj6yhyrJpyLvXi2K0dUdx6YPr22s+P8ZzN1uXdPTdMMJRp1TfV/nh4x5a2thyDoAjrTu2bcK3/T/zVZaLIA8gYpTVM4JPWicAwBPTZw2QDv1uQAag5xVI7f7LCktV7wVkRqmvWwTnLIk3H1fsTQwtPTG5Zd+aSP4EFalXoAGKegD7AFvubUuljPI9JRiu0OGAnAdVOBrBoUPWrsu6qcd8YBFUHx1Y077k8BtntFunVjoO+kUmEEUK3824ySUC+ZUC5ksWA0+xtzr6p0zc+3ZdMvbfpTyqi6inso2pcxV6uXVHkT3ZK5K/sP6WCeZDPgA4iIws4b2Vl0p1oXKljgbiSL1tm/BtryHlbky73nMCjLAo2gNHLhw/v9cY49+T0Y5e31RoIFYyiSNX1zfHSn6KQnufjQ/XbOy7EUCfUl+70Bx1rgVwvnVHIWgi4aRX73uUA+dkVTlJVE+C+If5292hp4IYqNDzBDgPAqzvqNmccZNLIPIoII+0937/ET7zX3rhW6cWYssntxyci/h3Ahhl3RIe+ocqx7+MS2YpyNIxr1YEywDsY91SRM+05yKnn3Tz5DXWIdtkYt6NEEwrycUUN9Wn3Om7/hKVZa53WF5lhCM6VFWGiKjjq6yWiPO85v2/lno5cVAsa0yNyDv6DIzfdwiwZnOfDfvv6A1nJubdCsGlFl17QqCj67x42ur6W9/bPAugl1XDNgJ5qM6LjbG6fsb1/gDgs1bXLyCF44yub27MWId0l0Il2zT3aPV1jKh+GoLTAAyy7iJsAvCwKu6NiN47youvtA6qBLyjX0Ij5zb+bfHlM0/utalvsyr+3bonHOT8Tj+SXhJvvnh0smmpdQ3Rh2ki4WRX41ZoGQ/5ilWSi55z0rxJgRnyAQAO6kp1R0ZFXtzZj23ZaVwas0idAcheIv/aVfmfOx77PkTgp13vr47gcVX9nwHVHf9XKUsb847/tQ9tWWXCh9yys7tKIrpYIaEb9FWkHoDZoJ+P+j+E2g/5AHxf9QrTApHfQ7UcBn1B3r8WwIXWIV2RnTr3QM3nzxHgjCxSp8PH3ls3tafg6A3gHBGc40N+nnG9lwD8yYf+sc+aIfdzI+7i4G8BI2k3NUWgN6Dsd+YumM0iMrUuGZtnHUK0vayb/JZCvmvdUUSbVXF6Q8p90jpkewvHz+81oKbjXWDrmcNFporzG1LuPdv/s3TMO94R+alCT+7hy64D9G5Vubmcz65Ox7y9RPAqtrzRs6SIRD5eP2fyDj+0WRJv/qSjzjOljtpjijvrU+7FFpfOusnTFPIQgvB+UnFbfcq9zDLhickt+1ZF/NcRtr0ediywd/VXjG2tbh+y5lSInKuKcwEcZd1Ee+RdEfze97Gg99rB93HoLxz7b8wVLNPUcgJ8/zcADrBuCQuF3Pxee9U06+cRidIxr04EPwJwhnVLUYlMqE/GbrHO+LB0zDtFBI+W6nqO+AePSm45k3vl9Fk16ztqZgFoROH+HH0e0O/V1a7+tSQSfoFeMxAyce8aKL5n3QHon+u9+Dk7/dFEwlnaVvtWCPfSWbe+tm2vMYlErpQXbR3bGjl0yNoMgJGlvO5ObMpHckccN2fqa9YhGdd7FMAp1h2FIJA/1nmxQKxQWDFldr/N+chnFc7FAj0HQD/rJioKDv0FxF3gDdU3Nz6Ri3bWQXCvdUtYCHTSgJqOx5ZPbjnYuoUqU3bq3AMzbvKXIliCch/yoT8P4pAPAI70+C56T6w/Nhl/BQCWxZv3W99Z8yiAGAr7YfkRgNyWbatdknWTJxbwdU2tGNtaDR9TrDsAwAGad/Xjkkj4Cl1cqp4CGjiwbdhJpb7oIYPXxhCMIR9QzAzCkA8AAr3buqFQFHqe5fejdMwbmImnLsm43t2b89E3AblDoBeDQ345G6SKfxfBHzYPWbsq7aZmpWNenXVUWHHQN3b87Gnv1A1rOx+CbwHg+ZNdU5eL+JlMPFUWO8JSOCyeNHdINu79RHP55wG5BOX//fOB9bWrr7SO2BmFlG7QF/xlwdgFTjrmfTavzpMo7hGKdQp5NO2mfrpibGvoH+3aPGTNOAiGW3cAeHXlmiF/2N0XqcpjpYgpNFUp6V3XxZPmDhFBUB5ZatuUi/7QOmKbSD5yN8poP3cVua6U11t8+cze6Zg3NuMm7xLBaqj+EsBFsH/0h0pvqECniyCTiXnLMzHvP7IT5u1tHRUmXLofIOmYN0YEvwYwzLolJFQh3395zaDEuAXj+CEJFcXC8fN79a/pnCbQbwIYbN1TIqulo+qYuvkT37IO2RGFStZNvQVgaImuOAcq+0NwQWmut4VA7tvYGfniKfMmvVfK6xZSxvXSAOqtO6C4pj7l/vfuvqzUj4QU0Kt1XuygUh1Hm3G9mwBMLcW1dkeg/17nxW+17thexk0+Asip1h2FItBP1XnxR4r1+gsTiWi/tmFnOypfguAiAP2LdS0KvU5A/wCJ3FSfbHzQOiboOOgHTDrm1Toiv1bo6dYtoSG4X9qrvhLUoYTCSRMJJ9s27CtQ+R4EB1r3lJACel69F/+TdcjOZN3kUQpZUcJL3gOzI7P00fXtNWeHcV+STFPLqfD9og0H3dDRmXcOOGFu4xu7+8Kt+y+sQ4k2eSwoxzmtvrmx6B9SpGPe0SLIIhgnNz1e58VOLtUHHF2VdZOTFDLXuqOAHqn33E8V+kWXNM05xNHIJPgYH5CVPxQiCixzoDfUrBlyB5/l37FyX3oaOg0pt+3FNYPOFOj1KKOlX0WlOFOrOzOZppYTrFOoPGQbU2dm22rTgNxWYUM+FPL/2bv3OKnq8g/gn+fMXrgoCiiymJl3EwV3ZlDES6JdzDQ1WzJvcZtzZhdBwbI0rdHUtAwLZHfOWW6plS15yV9WdpG84YWZWSDJDO8VizdQENjLzHl+f7AUEgt7Oec83zPzfb9evn4Js9/v5yfL7Dzne3nuUrnIBwBmCrpPtp9b9feATh1U2d4oN38fuIWZ0hEAgEH3d6fIB4DOdofLfY7kC2L3q0HMYxDNgRpFvkvgGaoV+QDQXtG+BMAW6RweOi2XcD7txUBrps+pzCWdi7KW/SfDjbwMxnW6yNd6g4DjGfTT1sEbXstYzrXLpswP20WqvtOFvoImLJlQiNrJ6wA+G8Db0nlC4iC47uPZpH2FdBAtvLK1jaOyVvr3bPAfAVRL5xHwt/YBH35TOsQeEc4IeMZhAc+3s0uzSWeCcIYe2XZhKgV61KFLzPU9eTkRQtnqkBkT1kyf4+tOhIxp16iy45AIC6N2MiOdY1fGzp2xkQgPSefwEhvcp7P6y5MNx2at9I83tlf+m5l/gW2X2eqdxVrfEUYQ+NbKssKbWSv944xpV0lHUoUu9BUWs5O/L0Tyown0R+ksIVEBxtxc0v7ZysvuHigdRguP5+vmHZRL2ovhus0AfU46j5A2w6VLxt05a6t0kN3hVMoA4PkWUtUx820Z0y6XztFd+Yg7Ayr0EmesijtWjwp3Rjgv5AMwdFN7xZf8Gjxj2gMI+KFf4/fQBxG435YOsTsF5sXSGTx20nIrfXZPvmB13by9clZ6StZKP2Ow8VeArkRgd6toJWggQFcS4RVd8G+jC33FnVA/bV111dqzQPgmgA7pPGHAjIs7Bmx9bnlt/VHSWTS1NU9ctG/Gcm6LFMpeYsbXUMrviYwbqhvNFdIx9iSz7oDRKMEPigQcQgZdIJ2jO56dPmcQgMnSOQCAiHfbUm9X2jqMZQBcH+L4joksv8YmA9coc5SJcOPodK3SOx7jtvUnAGukc3jJAN3I4D2uwq9MNgzLWM73Wgtlb267q4D00UotSP23F/y5pP2T3OQFJXs0pHQ/1IYIpVJuLG39wCX3FACvSucJAwJGGm7k+VzSuVA6i6ae1TVNFVnTvsqtbH+ZwN+EbtvzRHREy4+kQ3QHuUbQ2/aVwYwa6QzdUd5WORnAIOkcADZWRgr39vSLxi2Yuh7A33zI4z/Gadm6xk96PWxu2vyDwbjG63F76W/s4i7pEHtCIAajR8dGQiC+wrK7PJKTMe3Dckm7Ps/G6wS+HqXTqUZTU39mzODy/CtZK/3DVbX1Jff9qAv9EBmTrn2+o6KtmkG/kM4SEoOYeUnWtG9vqmmS30KqiWMw5ZLORa1DNrwIwp0owZXhXWiNuJSgVCoUK5gGUckW+gSOSmfYk6aapggTZkjnAAAw7h5ZP+3D3n0phfKcPgBCoeD5qr6bd++AIg9EXfBVcccKxQ5Ho71iMYDN0jm85IJu7DxC9R8Z045mLfs+IrzEjFoo8r2iaZ36AfT1DjeyJmM5V66uaaqQDhQUXeiHzNi5MzbGbfNigCcD6NUHmBJDIFxz2JANj2ZMez/pMJqc5cmG03NJ57nOS4AOlc6jDMLNxzea/5CO0R2ra5oqGFw0val74ZCnJi9Qur/04UPWX0DAIdI5AHBvtu1vZ8D9s5dhgkWTmicu2ter0TKmPZ7AX/ZqvL7hB8fYydDcW1S9eNL7AP9cOofHRmfXVl0IbOtQk03afyRCFsBXoMK9HJrWtaEE/nHrkBPEcR0AACAASURBVA0vlMqOX13oh1TMTi5yjUIcQLN0lpA4kwjZnJWOSwfRgrUi4YzMWvZvDDaWgiXbpCnpr+ziB9IhuqttyPpTAShd6PqM9qpoV2FLfJcYNEs6AwAQ6PGonez19vuOsvxShPScPoBBhYr2pBcDLU2lyojwEy/G8kBrWSFytXSIHjMiyh8z6Cki3Ja17Cwb/EcwPGm7p2kBOoKZf5W17CebE87x0mH8pAv9EBvTUPfSoIq2kwD+CQDl+sgq6OMMejKXdJS4JErz14pkw4EZy5lfMHglgC9I51GQy4xEWLbAAoALo0c3PhejdsNV9ud2trZxLICTpHMAgNvDlno7O3HeFe8hxA/SiXDl0omL+vV1nEHrqpIAjvMgUp8x6I7R8xOvSefoqVhDYhUIf5LO4bFDASh/lEjT9uAU1+DluaR9x+q6eXtJh/GDsh8YtO45Yu6MtpidvIoZZ4KxVjpPCPRj5gVZK31vxrQHSIfRvLcy2TAsa9l2gY3XCDwFeivhLhHhzrhjPSedoycIfL50BmGcr2x7VzpEl9yCEpe1MfCvTSNaHuzrOAT+gxd5hAzfu6J9Ul8GyJh2FRi3eBWoLxh4rX3Ah7dK5+gtYr5NOoOmabtUxoyrWwtla3JW+nLpMF7ThX6RiDvWUsqXjQH4Meks4UCXEOGxlVMbPyadRPNGxrTLs0n7ijyMFwCYAELTc1zAm1vay26UDtET2br5h0PfrfDOuDtnbZUOsSvNyYZPANTlbdxBMsALx6dS+b6OUwCWepFHDOGqnS9N69mX47tQo3sCDKLrVP3e745q23oMwF+lc2ia1qXhDPppxnIeer5u3kHSYbyiC/0iEl04ZW20at1nwPg2gD5/yCkBJ+YjbjaXcD4lHUTrPQZTzkp/mQirwZgLxv7SmZRHNO2UhVM2ScfoCS64+vgF8HfpAF1x2bgSauyeyRvEjhcDdQzY8hSAVi/GkkDAkbmW4b3aBZOz0nEQEl5n6qUnqtOJX0qH6AsCMYHvkM6hadruEfi8SKFsVca0L5bO4gVd6BcZSqXcmGPdSuDTGAjdWTYBw9jgP2WT9kzpIFrPZUz7lJxlL2PQEgBHSOcJBcbDsbT5G+kYPUXgkj+fD/Dz0gl2JWPa+wCYIp2j08PHp2v/7cVAnSvIT3sxlhzq8XGKbbsAjHlQ4zNigcAzCBT6e4gq1w+5D4An35uapvlqXyL8LGM5P/eyg4kEFd7ENR9E7eQzrR1lowFeLJ0lBMrAmJ017V+svOzugdJhtD3LmPbRGct5iAhPAjRWOk+ItDGgxK3oPdF5SU7J77whQNU7FaZCkW4IhL5dwrcz5tBfonZiT3et5daNmMLgE/wK1EPpqJ1cKR3CCyOXTGgH4UfSOTRN6x4Cf9WtbF+ZMe3x0ll6Sxf6ReyUhVM2xezkJCL6MoD3pPMoj3BRfsDWZzrPAmsKer5u3vCsaaeJ8FcCnyedJ2w6L+B7RTpHT7W65Z8BUCmdQ1qkEHlWOsPOOtuvzZDO0envnWehPRNh+r2X40ngCH+zu699btpdQ8H8fT/z9MA6o63ieukQXirb3N8B4R3pHJqmddvHifCnrGnfvjSVKpMO01O60C8B0bR5P3WUjQIQ5huEg3IcCoXly630Z6SDaP+1um7eXtmknYoUytaAYAEI3ZutOMbaSiOvxA3aPaW37QMM/GP0/MS/pHPsbJ91I74M4OPSOQCAQWmvt3gf35hYGfqONoyzsrWNse68tCxffiuAoT4n6hZmXF29eNL70jm8NPqeyzfDxY+lc2ia1iMGCNcMahn+WG7yghHSYXpCF/olIrpwytqYbX2OwF8D8KF0HsXta4AezSbtlHSQUrd04qJ+OSv9zbZC2RtgfBdAUfY5DQIZdPXI+mmh+7vPYGLGOdI5pBHwR+kMu8LM35DO0Glja0dkodeDEohB/IjX4waMyOWb9vSinJU+DVDmAr5H4o71c+kQfijb2v8nANRtk6lpWhfoVC7Pr8olnM9LJ+kuXeiXmKidvLusYIwC8JR0FsURGN/NmvaC1TVNFdJhSg2nUkbWss1Ble0vMeg2BoZIZwo1wuPRtHmfdIzeaLbsGIDh0jnEEf1ZOsLOlicbTgcQlc4BAET4mW+dJMj4nS/jBojBZ2dM+8Sufn9pKlXGoLsAUICxurKZyiLTpEP4ZfQ9l28G4y7pHJqm9cpQNviRjOXc1lTTpEKnmd3ShX4JGj0/8Vq/9YPPBOMHAFzpPEojTG4b8v5vVtXWD5aOUipyVvqkXEvV4wBsKLIlOORco0CqrLr2mMsUmifnPnLbOozHpUPszGBS5Ww+CnAb/RqbXX4MQIdf4weFgOu6+r1B66qmADguwDhdIvCPovOmviGdw08MzAOwWTqHpmm9QgT+5mFDNvxK9Uu8VXhyqwnKJZxPMfFPQThYOoviXjLA51bbyTXSQYpVs5U+wmX6Pghfgn5v8tKimG1Nlg7RW1kr/YzurIBMzLbGSIfYUbZu/uEoFP4OQH5Fg7AslrZO9nOKrGU/DuA0P+cIADMjHnes3I6/mDHt/QzCS0rsnGK8vLG94rjxiye1SkfxWy5p38GMq6VzaL7aCKDQi6/Ti0vhkaOOsnOjC6coeZeLvtCqxEUbzcczpj2awPMAukQ6j8KOYtCz2WRjTSyd8PRW51K3MtkwLM/Gd1zABKFcOk+R2VyI5LtcxVNdbtLC/RkdqrT5EsNQb9s+8oUrQQoU+QAINNf/Ofi3DAp7oU8EfBfARzqWGAa+z6xAkQ+AgWmlUOQDgOviR0SYBqCfdBZtj9YBWAvgbTDeAfAuE71jEN4C4V1m+hCEDyJ53uQWIh+6ZfnNccf6oC8TLps5u3+kvWKA4Rr7UCEykA23f6QQGcQR7E3sDmGmIUw01CAeyowhIAzFtv87HIz9Pfn/WuuOqFuefy5npc9RsRWoXjXT/iOXdC5i5nroJ4m70wHC9FjasqWDhF3GtAcYxLMYdA0U6cFddBi3xBwrtO2pMqb9NSIsls4hzQV/doydVOYyvlW19YM73MibUONyzH8z45C4Y/m6tT5b2zgKrqvch7he+Miqfsa0TyTCMqhxlPOXMdu6SDpEkHJJu54ZtdI5NLxNoDUMdw2YXodBbwD0psGFf+5V0f7mEXNntEkH7Ik10+dUbtnaf0SH4R5IxAeCqYqJDiLwgSAcCsYhAPaTzllkNrngi8bYyd9KB9mRXtHX/iOaNu97vm7e05FCZDFAZ0jnUVQ5GOlc0j7m5fcGz5qwZEJvtmSVtKaapsihgzdMIuBGBoWqTUnIvMfAD6VD9AUBX5LOoIDWjgFblLo8Ne8aJtQo8gFCQ9z2t8gHgGjD1L9mLedfBHzM77l89p9V/aaapgjRhnlQo8jfSB1ls6RDBI3g/oBhTAX0brYAMIBXAawEYxWI/85Ma/KVbS+PnTtjo3Q4L3U+mHit859denb6nEGVrf0OdSM4hF0+lIgPBXAYQMcCODCorEVkbwP0cDbp1MbSpm93xvSUXtHX/genUkZzy/CrGHQL9Jay3fk9My7q6/asUpJNOucw820EjJTOUuwIfHXUTs6WztFbT01esHf/8vzb0O9Bf47Z1qelQ2yXMe1yIrwGNT4ItlJ7+cejiya/E8RkWdOeC8IVQczlM2ZGHMCJRKiXDgMABJ4RtZO+H8FQUdayFwKYJJ2jyOQBrAb4eRBliXnVlo7yF3zrzFFkVtXWD867xnEu00gQjSK4IzsfAOgdv3vGzPhG3LF+JB0E0Cv62i5QKuUCmL0i4TxaMPgeANXSmRR1FgHPZEz73LhjvSIdRmXNCWcMG/gBM5+uny4G4s0P2iqV+ADfW/3LO84GqNSLfDDjT9IZdkTEXwFIhSIfAH4RVJEPAMT0KyYuhkKfiHAHgOOlg3TKvrx+SKjfr/qCGbcQ4TLoz+R9sQ7gJwh4zmV6HkAu7lhbpEOF1aiGug0Anuj85z9WTm08pBApjAXRWDCNZXA19G6UnRER7shZ6UFRO/ld8TDSATS1ra5pqmgduuG7YHwTKtyurKb3yKULo42mcu2vpC2vrT/UcCO3ApgA/X4TIJ4cs5OLpFP0RS5pNzGjRjqHOMOIxxoSWekY22UtOwsgKp0DAAyXqqsbzRVBzddU0xQ5bMiGfwEYHtScJaBguHRSdaO5XDqIpFzSXsyMr0nnCJF3GfQXYv4LES+N2sm/SQcqRUsnLuq3b3lHlA13LINOBvApAEOlc6mDfxK1rZkEYqkE+oO31i05K30SM90NwuHSWRTVRuBJUTv5C+kgKsiY9n5EfD1AtQAqpPOUmL+9sn7wqDDfH7Fs5uz+lVsGvg1VzoHLeS9a1TKsc5eVuOXJhtMNNpZK5+j0RMy2PhX0pPryNM/Ni9lWMeyS6JNmK32EC3oRekGlKwUCPcvMv3UN93fxdHKFZPGk7RqnUkZ2bdXxBJwJwhkATgWgdJ95vxFhfnXaNKW+X3Whr3XbysvuHtgxoPUOAlvQ3zu7wgS+Nmonb5cOImXZzNn9KzYPvJII3wKwj3SeUmSAz6+2k7+WztEXzVb6PBf0kHQOedwUs5NfkU6xXdayHwZwrnSObfjCmJ18IOhZc1b6TAYpdZwixNYx42h9z802WdO+G9u28GvbvA/gN0T0SGuH8YdxC6aulw6k9czqmqaK1v0+OBEF93NMOL9072fi+qhtXSFR7OvzQFq3jb7n8s0AanMJ52E2eAGAKulMiiEG3Za10h9/Zf2QGWFeUe0pTqWM3LoRl2ML3wTCQdJ5ShZhWXU63EU+ALhMF+pHiQDIUKagXF5bfxRcfEE6BwCA8cYrG4aIfJ9/ULXu8X1aqt5i4ACJ+YsJgWfFnKQu8ju5kcIthhu5GKW9qv8uER5i5vv7rR/y2MglE9qlA2m91/nn92TnP9evSDhHuoZ7AYMuAHACSmbRkOqak85WpPH1wGcOekKtODw37a6h5YXyBn2GtguMhxn4ailcBpO10meB6XYQRklnKXlknBlLJx6TjtEXq2uaKlqHbHgLwL7SWaQZ5B5Sna59XToHAGQsp4HASekcAADGNTHHEmsdmTXt20G4Rmr+okD4UyxtfUY6hmpySftnzLhYOkeQCFjP4PtBkfteeW+fx0tpkaSUrUg2HFhwjfOJ6KsMHocSqEkZdHPcNm8Ics6i/4+q+SubdC4B813QH8r/B4Gej1Dh3NHp2rels/ghY9pRIvwAwJnSWTQAhGWxtHWydIy+ylrpswD6nXQOcYyXY451hHQMYNuD3bJ8+ZsABkhnAbClLR85SHIb7/La+qMMN/Ii9Geo3mqNuDT6+EbzH9JBVJOta/wkCu4LAAzpLD7bzKCHCe4v+q0f8qheuS9tnbf5X8JMF4PwSek8fmLGtXHHui2o+Yr9jUTzWSxt/qwQyY8CqdUCSgUMPiHvGk8vr60/VDqLl3LT5h+ctdL3EmE5dJGvDJf5FukMHvmSdAAVkIE/SmfYrqxQnoQaRT7AuEf6rO6YhrqXAH5KMkOYMeNGXeTvWqw+8SIYTdI5fJQDYPWL5IfHbfPimJ38P13ka6PnJ16L2smbY451DAwjDsadIATWOjVIRLg1m3QuCWy+oCbSihuDqdmyr2DQ7QD6S+dRTAsM46xYQ2KVdJC+WFVbP7jDNa4DaDqASuk82kdko7Y5Juy3EDfVNEUOG7qhBYz9pbPIk7lsbmdrps+p3Nhe+RrUuJOFIy4dd3yjuVo6SM5KX86gn0rnCKHmjVUtJ4xPpfLSQVS1IuGMLBi8CsWzGLeZQfdFXNil3kZR67410+dUburodwEYFoM/heKqWduY8em4Y/n+wLhY3kQ0YQTiqJ2cy4wotq30av9VBdd9PGPap0gH6Y3VNU0V2aQ9M+9GXgbo69BFvnqIbgl7kQ8Ahwx971Rd5AMACkZbpRJ3LWzs6PdVqFHkA4Q/q1DkA4DL9CsA+iK5nsm75E7RRf7uDezX+jKANdI5PPRy3Dan6iJf64kj5s5oi6bN+6K2OZ4Zx4BxJwHF0nmhkggPZuvm+96yXBf6mqfijvX3jcNbxhH4JgD6h/l/7UuEP2STzjnSQbqLwZS10l9pHbLhRTBmMzBEOpO2Sy9Eh68N/U37AGC4xoXSGRSRqV486X3pEAwmuDxTOsd/MM+RjrBd3LG2gHGPdI4wIcIdY9K1zdI5VLYy2TBsY0flYwCOks7iodErEk6JtlXTvBB3rL/HHGtW64DNHyPwDABvSmfywH5cKDyybMp8Xz9b60Jf89z4VCoftZPfdck9mQF9Du+/+oP5wZyVvlw6yJ7krPRpzVbjswDdB6Co7hgoNgS+lVIpVzpHXzGYQLhAOocKGKTE+fzmROOZCnXTeCVate4R6RA7ciOFuwCEfidNQF76oLXiRukQKsuY9nF5Np4DY5x0Fq8ViL8qnUELv3F3ztrauXv4cCKaEvYag4AjK8sKTU01Tb611NSFvuabMena58GoBrge+sPQdmUMWpw17aukg+xKxrSPzljOQwx6nMEnSOfR9mjNy+uHFMXFTc2WPRbAgdI5VGC4alxuyhGeJZ3hPxh3qfZAa9ulfHhUOkcIuDCMxPjFk1qlg6gqm3TOIcLTAD4hncUXhK8yuJjOWGuC4o7VEU2bC2NVLZ8E+CIAL0hn6oMzDx3yvm+XKetCX/NV3LG2xOzkNBB9Hoy10nkUQSDcmU3a35YOst2zUxsPyFhOAxH+SuDzpPNo3cXfL5aewwx8RTqDIj6sfH/fZ6RD5Kz0MWCcJZ2j08aOyraF0iF2hVxS5jiBujgda0g8KZ1CVRnTvhrMDwHYWzqLjw7tfJiraZ6hVMqN2clfRqtaRgN8GYBXpTP1BoGvySYdX3Y06kJfC0QsbT7aVogcB3BRrD56gnFzxnK+Jxlh5WV3D8yY9g3lEXcNgZMAyiTzaD3yT2a6VzqEFziVMgCaIJ1DBQR6Qol2U0Qzocotx4wFY+fO2CgdY1eqGxO/D/v2UZ/9c2tH+bekQ6ioqaYpkkva9US4A4BvW3dV4cLQ2/c1X3QW/Pcy42gC14ZwYZHAvHh5bb3nd3PoQl8LzLgFU9fH7ORXmHEJAPGLplRA4OuzVvqHQW9pa6ppiuSs9JR8/63/IMJNKO6VhKJE4Hlxx+qQzuGF7NqqT0GVm92FMbP4+fyVyYZhzLhUOkengmG4yq6aE4gN8F3SOVRFLlmnLJyySTqHapbNnN3/sCHrlzCjVjpLUAzwhKWplF5M0HwTd6yOqJ1Mtw3cfDgI1wPYIp2pBwYZbuSBlZfdPdDLQXWhrwUu7lg/L0Tyo0BqnEOVR1/PWc7coIr9XML5/GFDNqxg0HwQRgQxp+a5LR1l+fnSIbxChIukM6jCNVzx98W8a9QC6CedAwCI8EB1uvZ16Ry7s6WjfDGADcIx1MNYGG00fycdQzWrausHV24Z+AeASuryUQYOGLRuxJnSObTiN+7OWVtjaesWg9yRAB6SztMDx+T7b/2RlwOqsS1PK0kMpqzpTCfCbQD6S+eRRoT51cNbLL8unMrWNsbgurcD0D9oQ48bY3bSlE7hhYxplxOhBcBQ6SziGGujjvkxAoldXrp04qJ+gyrb3wAwTCrDjgg8Lmonxe8s2JNs0r4FjOukcyjkn8w4Lu5YH0gHUUnGtD9OhN8BOEY6iwQi/DSatiZK59BKy3IrfbYBmgPgMOks3cDMODfuWJ50mdEr+poYAnHcseYgYsQAZKXzSGPG1FxL1fxt55W9s3Jq4yG5pP0zuO5y6CK/GLBL6vQT98BnoYv87f4sWeQDwN4V7ZdCkSIfwDNhKPIBoCNvzAGgb5XfhkGU0EX+R61IOCOJsAwlWuQDADPOy5h2uXQOrbSMsZO/3dhWcWznwmJeOs8eEBHm5yYt3N+LwXShr4mL1SdeZMZJDLoZQFHcIN4Hk7ItI+Z5sY3/uWl3Dc1a9p35iPt3ZlyM0tzBo1Q7Lm/w0jHp2jC3kvkIvW3/v8gg0fP5DCYizJTMsCNm3CmdobvGzk+8BcZPpXOogAgLYmlTtx3cQba2MVYw+HHoFqL7kmGcKh1CKz3jF09qjaatawl8EtRvxzecK9ptLwbShb6mhLhjdcRt8waX3E8x8Jp0HkkETuYsZ3Zvv37ZzNn9M5ZzbVm+/BUAVwGo8C5deDDo1yBcKZ3Da2QYP5HO4JVlM2f3B6DbOW7Drsui5/Nzlv05qLPa+PqrGwY/IB2iR8oid0A/rH6zvbztaukQKmlOOOPgun+G3rm0jeueIx1BK11RO5npt35wrHNxUeELjemCXNK5rK+j6EJfU8qYdO3T+Yq248G4RzqLsKtyVvrWnnzBtlY9zuTKLQPXEPhWAPv4lE1x/CwM47S4bZ5PwGjpNB57tfqAtb+RDuGVflsGfAG648N2q+OO1SIZgGDMkpz/IwhzJiyZEKqiOVY/9WUGPSidQxAzI6FqK0QJ2WTjGa7Bf0DJ/jzepXOlA2ilbeSSCe1x27zBcOlklRcXmfmOZVPmD+nLGLrQ15Qzdu6MjTHHuhzgi1DCbfgYdG3GtG/ozmuzSeecQ4dsWMnMC1C6WwPXELgmalvjYg2JJ1fXNFWA8SXpUJ4i3OXXZY0SmElv2/8v0dX8jGkfx+BPS2bYwcaO8rYF0iF6gwy6TTqDoMa4Y/1BOoQqMqb9BbD7CABP22WFHuHwjGkfLR1D06obzeVgVDPoV9JZujCssizfp58putDXlBWzk79kxmgQHpfOIoUIN2VN+xtd/X7GtE/MJu2/gPn/CBgZZDZlEN4BYTozRkbt5K+2X2bWOvT9zzLQpyehivmQXSyUDuGVZ6fPGQTCF6RzqMIFi57PJ+JZUOQeDwbND+uqcKwhkSXQb6VzBI7xxtaOsq9Lx1BFs5U+jwgPQJE2laoxiD8jnUHTACDuWB/EbbOGQdOg5IWqNKU54Yzr7VfrQl9TWtyx3owObzmDGdcCaJfOI4Jwe9ayP9JKrdlKH5FL2k1EeAaMT0lFE7YFjFs6ytsOj6Wtu+KO9dGzVuwW1Woxg35ZTLdYV7RXnA/9IXi7jgGRwhNSkz9fN284QF+Vmn8neaPMCHlXCfdm6QQBcxmYdMrCKZukg6ggl3A+74KaUKL343SHC0N3ANKUErfNehjGKQz8SzrLTgyXuGFpKlXWqy/2Oo2meY1SKTfuWLfBMMYBeEk6jwACUJ9NOhNWJhuGZS37Lhe0mhk1UGQFLmAFBi2IkHtkzLGu39XK37ZL3uiLEuH8YsAN5VbmrjDpbfs7eG5k/bQPpSY3CuXTAFRKzf9R/EB03tQ3pFP0RWdLwD9L5wgM4ydxx1oqHUMFuYTzaTb4Aegif7cIfHpvCxdN80usIZF1I/kxANRq60oYtffaqrrefKku9LXQiDUkssyIguFJy4mQiYD5njwbLwOYBqAk+9AS6LcuucfHbXPq8enaf3f1un5b9zobRXTJGwOrw9JPvDsypr0fGKqcB5dHckVhxrQHEDgpNf//MCKhaam3O+TS96QzBORvG9srrpMOoYJcwvkUG/xr6J1K3bHPoLcOjEuH0LSdnVA/bd2girbxRGq1SyXCDRnT7vGlnrrQ10Il7lhbYo6VJIPOA+Ed6TwBq0ARFa89lGHGGVHb/EJ3esizy0XVso0IRbWaD6IJKNGHVbtCzI9JzW0QXw5gP6n5P4KwLNaQeFY6hheijebjAD8pncNnHcy4bPziSQqeaw1Wc8IZxwb/BsAA6SxhwQX3dOkMmrYrR8yd0RZNWxMZdB0Als7TaT+D+Js9/SJd6GuhFG0wHy4Y+VEAfi+dRfMPA68R+OKobZ7Q3a2hTTVNERA+73e2AHVQW/m90iG8RODLpTMoZHPl+iEixS2nUgaDrpKYe1eIuShW87dzgaJe1SfwTXHHyknnkLY82VDtGvxbAHtJZwHh8dAsghCNlY6gabsTt83vA0gCUKLVK4OuWjm18WM9+Rpd6GuhdUL9tHVR2zybwFcD6NjjF2ihQcB6EGb1Xz/46Kid/MX2m/S749DBG06CKiuU3vhzdNHkcHxw64YVCedIACdK51DIkyOXTBC5aDTXMvwLAI6SmHtnDLz28vohRdWDfoyd/COA56Rz+IOf/aBqXSm3EgSw7f3MYOP3AHq8pdYHj7T13/x5uOFYACGw/jmgKS9mWw6ILoYaF4L3z0cKPXqArAt9LdQIxFE7OZsZp4IR6gucNABAgQgNHWUdR8bS1p29KoCIzvEhlxgC/0I6g5fyBi6TzqASBsld2kZ0tdjcOyHGnAlLJiixauIl5qJc1d9sAJePT6Xy0kEkPV8376CCwX8EMEw6Cxj3MeOCcXfO2krEv5OO003Dm5MNn5AOoWl7EkubTQCfByXa79Fly2vru/2AXhf6WlGIO9ZzbYVIFIyHpbNovbYUhhGNpq26E+dd8V5vByHwuV6GEtbaXtH+kHQIrzCYCHypdA6lCJ3Pz1npuEKtOT/Ymi8rrnsoOsUc87cAimp7OzNur7aTa6RzSMpNWrh/pFD2BwAfl84CcOMrGwZfur3FbGu+7FEostV4T1wmvaqvhULMTv6eXPoS5Ff2I4ZrfKu7L9aFvlY0xi2Yuj7qmOfrrfyh8zoRfTlmW2fEGhKr+jLQ8tr6QwEc41EuFfx2V+0Dw6o50XgagE9I51DIe7ERLSskJnZhzJKYd9e4sVh7sG87dsS3SOfwEhFXS2eQ9NTkBXtzRcfvABwtnQXgO6K2Ze24G2bcgqnrQeE4MsIwSvp7SQuXaKP5O2Z8BeI1Bl3S3d0wutDXioreyh8qm0G4fmNbxSejafN+LwakQqSotu2D6AHpCF5y9bb9j2DQUkql3KDnzZj2xwlcE/S8XWiPEP9YOoSforb1IIA9dgsJDzq3pxdCFYulqVRZ/4r8LwHEpLMQ+IaYnfzGru6wYaZQdHwg8LHSGTStJ+KO9RDAl0F210w5w7imOy/Uhb5WlOKOttDVpAAAIABJREFU9Vx5pFCtt/IriQH+WYTco2Jp6xYvWzMR8We8GksB+bYOIyxnLfdo2czZ/Qn8ZekcSpFqq0d0JYAykbn/18+OT9f+WzqEnwjERFRMq/plhTLXlA4hYZ91VXPA8l1dmPGdqJ28uavfNwwsCzJPH4yUDqBpPRWzk78k8BWSGZgxKTd5wYg9vU4X+lrRGtVQtyHmWOcR+GsAtkjn0QCAn3TJjcXs5KVef7jPmHY5QKd7OaYsfmLcgqnrpVN4pXLrXl+CGjdTq+QPQU/43LS7hhLYCnreLhSYUUwFcJeqh69tQhGt6jOQXDN9TqV0jiBlTfs6ZtRK5wAjFXes3V7y2GG0Pw11+n/vzsEZ09Y/F7TQidrJNDO+IxihHyry0/f0Il3oa0UvaifvZsYZeiu/qHVENCVate70MenaZj8mMIjjUKGPsUcIeEQ6g5eIcbF0BsX8M+5YrwQ9aSRfMQnAwKDn3RUG/Ubiv4GEbUc0eLZ0Ds8w9t/Y0e886RhBySadC0DyHRSIMCfmWDfu6XWdF9q+HECkviIocdeBpvVczDFvZtDdUvMzY+LqmqaK3b1GF/paSdBb+cW0A/hhR0XbUdG0udDn88hn+jh24Aj4P+kMXnl2auMBDP6sdA61cOBt9TKmXU7gGUHP2xUD7u3SGYLETPcW1QNn5pLYvp+tbYyB+V6If2bmxuq0eVW3Xw1a6WcaDx0mHUDTeoNADOapAJ4QijC8bej7X9rdC3Shr5WMUQ11G6KOeT4Y1wAo6f6/weDfGOBjY7Z1TTA3xxvFU+gzXiym9lXlZe7FUOdMuBKIDInz+TUADhKYdxf4yaidfEY6RZDijtXBRD+QzuGh8cXeB/3ZqY0HwHUfBDBAOMq90ap1yV1dvLcb4dgtQ3SwdARN6624Y3V0FIwJAETummHm3R4n0oW+VlIIxDHH+iHI+BwI70jnKVJ/B9FZMTt5blDFasa0BzD4pCDmCkjRrOYDAFxMlI6gGgOFwAt9Ilwd9JxdIqOYCt5u29RWvhBAi3QOjxgujInSIfyyuqapoiLC90P+4dj/baxqmdTjHXHMYdi6DwJ/QjqDpvXF2PmJtzo72bQLTH/a8mRDl90rdKGvlaRYOvEYu4gDyEhnKSLvgzGTGaNiafPRICdm4pMBFM3FUFxEhX7OSsdBGCWdQyUM/CPom+Yzpj0eQDTIOXfjhWg6UVR3UHTX+MWTWpnxI+kcnnExkVOpovws2TZ0wzwGnywcI1e2pf9Xx6dSvdmFGI4VfbBe0ddCL2onn2HQTIm5I7t54FqUb86a1h1xx3pzY1vFqWAslM4Sci7AjdRefmTMsX4cd6yOoAMQjNOCntNH7766YXDRbGlmYJJ0BtUQ8JfA51RoNZ/AP+zhFuSiUr61fxrAu9I5PEE4ONMyvHiOTXXKJu0rmDFVOMY/qaPs3NH3XL65N19MZZF/eh3IHyS9Y0LTPBG3zXoADwU9LzMu6uqBqy70tZI2fvGk1phjTWFGHYDAC9TQIyyDYZwQs5NmdNFksaMQVFTb9vmxCUsmFKRTeGHZzNn9AdK37e+EGY8HOV+2rvGTAM4Ocs7deNNl+oV0CEmj77l8M4F/Ip3DKxGiidIZvJQx7VPAkO6QsAmGcU504ZS1vR2AWikUbYUJGCqdQdO8wowEGL3+e9tLB2bWHbDLBS9d6GsagLhjNRguna7P7XcPA68B/MVY2jo51pDISmZpqmmKADhBMoOXCFgqncEr/bbu9WUA+0rnUAy7Zflgz+cX3G9gWxsreYQfSuz6Uc2WjvKfANggncMLzDh/dd28omhtuiLZcCAR7gdQLhijjcDnxBoSq/oySCtxq1eB/MTAUAar8f6kaX0Ud6x3ETEuAhDogg1x5NJd/bou9DWtU3WjuYyYT99WxGpdaGfQ7a0dZaNjdlKJc+SHDt5wDIC9pXN4xXCNJ6UzeIXBl0tnUA0Da06on7YuqPlWJhuGAfhqUPPtDgHr+xn5xdI5VHDKwimbwKiXzuGRAa1uuSo7RnqtqaYpUmC6G8AwyRzMmBm1k31u11URKYSi0AdQ9tz0uUXzM1zTYg2JJxnUGOScBD5/dU1Txc6/rgt9TdtB1E7+rZzcsQA/K51FQY8Y4GPjtvmtUxZO2SQdZjsyaKx0Bg+9Pbox8TfpEF5oTjZ8AowzpHOoJujz+QWmaQD6BTlnlwjzRtZP+1A6hioY+DGAXp2/Vg7zV6Qj9NVhgzfcCJDsexZjYdyxGrwYatOIFokbwHulsqN8iHQGTfNSpK38WgCBPdQHMLRt3/f/Z/u+LvQ1bSej07Vvtw3YcgYY90tnUcQaZpwTs61zlOzt7nLRFPoMeqJYLinrbLulf8bshMB/CWquZTNn92ei3fbYDdDWCNy7pEMo5gMGXpcO4ZHPPzV5QWhXZZdb6bNBuFY4RvPG9oppXg025JVDQ9OJhgqRgdIZNM1L1YsnvQ/wVUHO6Rr4/M6/pj+EadpOlqZSZZVbB14OgnRbHWmbQPhmv/WDj407lsqtsIrmIj4iDvSSNr801TRFwPq2/V3qKA/sz7hy68DLwdg/qPl2jxeNTte+LZ1CJYaBmwgYKZ3DI/37l3ecJx2iN56vmzfcAC2C7GfiDWUF48Lxiyd5tt1+c0V7aAp913CL4gG3pu0oZid/CXBg7aYJfNbOv6YLfU3bQbOVPm/Q2qpVYKQBDJfOI4TBuIc6yo6Opa0fjFwyQdntf80TF+0LwlHSObzCbrC3sfvl8H3f/yyAj0vnUNBLfblFuyc4lTLAEOnpuwsF13CLp3e8B3IJ59PMuEY6h7foQukEPcVgirhlCyF7Lt9lxmWj5yc8vR+oH5MaR3a6gSMRXehrRYmAWQDyAU13TG7a/IN3/AVd6GsagIxpn5i10k+4oIdA+KR0HkFZw6VTYo51eVAFSV9wZVsMxfM+9m7MMV+QDuEFNtyEdAYlcXDn85vfGnEOoMhDMMaSMQ11r0rHUMXKZMMwNvhuFM9713afWTpxUWiKSwBotuwrwP+73TVIDLrVl11z5R2h6XjicocrnUHT/BC1k38DYAc2YT7/kfezYvsho2k90mylj8gl7SYiPAPQqdJ5xBDeYUYiWtVyQnWjuUw6Tg+Mlg7gHX6yGM7nP183bzhA50jnUFGQRzPY5auDmmtPXMP9gXQGVTCY8jAWA6iSzuKDgXtVtoXmAs4VCWckg0S/Nwn09Kvr9035MTYbkdD0py9zDV3oa0WLGSkE1E7VhXHmjv9eFsSkmqaa3LT5B7t59wYX/DVwSf89yAM8z2itTG27OCRcXBijCaGvjQEADGO5dAYvGPmyiSDRHtTKcpn+EsQ8zQlnjAv+n9t3hfxhTLq2WTqEKrKmM4uEV5D9RDDOBfBb6Rx7srqmqaLV2PAzyHak2Bgp0GUTlkzwpd82F9yhFJLu9B3haQWoaT0Wd6x3c1Z6NoO+5/dcxDxux3/XK/paSclNXjAia9l3cb7wDwJPQQk/7CLQ0xGXjo/ZyavCWOQDAIGLZkWfCDnpDH3FYCLCVOkcinop7lgtQUzkEs8KYp7ucMn9vnQGVeSsdJwIt0rn8BOBz2Ww8uVl29AN10N6RxjRlV6fy//I8MCBfo3tMR4cKeiLOrWi1l7RPoeA9b5PRBix4zl9XehrJSE3aeH+uaR9B5fnXwYwDUCFdCZpLnjg6APXviido7dW1zRVAMVznwK1lYW+0G+27DMAHCadQ0kBnc/PTZt/MAhfDmKubnhiTLr2L9IhVPDs9DmDmOkXKP6fPQdmTadaOsTuZEw7yoxviYZg3B9Lm4t9nYNw8J5fpIT1R8yd0SYdQtP8NHbujI0u48eBTJbP/2dVXxf6WlFbVVs/OGvaN3NFx6vMuBpAf+lMqiDg+Ny6EaoUBD3WNmT9J1E8H5r/GV00+R3pEH3FIH0JXxfICGbbPncUroQiO5XI9X+bYliUt1fUg3C4dI4gkIFPS2foyuqapgoiLAYEjxcx1ubLO6wAZgpF5xMG1kln0LSAzAGwye9JmEkX+lpxe2rygr0zpn1Dhxt5FYRvA9hLOpOSmK/nVCqs7wNFs22fQaFfzc+Y9n4AzpfOoSrX9f8ivoxp7wN1jk48E200/yQdQgXZpDMRoEukcwTodOkAXWkdvOE7AI4TDUE8/cR5V7zn9zSsSteNPSBd6GslIu5YHxBhkd/zENEJ2/93WD/ga9ouZUx7QNa0v9G/PP8qEW4CEJr2MkKOy7UMD2dxRjRKOoJXiDn0l5UZxJcDqJTOoSIG/hHE+XwCTAB7+z1Pd+jV/G1WJJyRYL5LOkegGKcsTaWU2FWyo4xpHwfCNaIhGA/H7OQDfk/TVNMUIeBov+fxAoNel86gaUGhbT8PfO0yweBPbr8rRRf6WlFYXdNUkU3aVxDhFRB+AGA/6UyhQSR7VrGXuIhW9EEc+hV9ZlJlJVk5xHjK7zkypl0OwnS/5+kWwvJoo/k76RjSVtfN26tAvATAQOksAdt70FsHxqVD7IhTKYMINiS37AMfFsryVwQx0ZH7vn8YZDsKdJsBd6V0Bk0LSrWdXAPA75+Pe2dN5yBAF/payC1Npcqylm22DtnwKhhzAQyXzhQ6jDHZ2sZTpWP0GBfPRXzMlJHO0Bc5K30aqHj+PDxn0JMBzHIxgIMCmGePqEDflc4gjcHUmi/7Wcn+vSi4Z0hH2FG2ZcR0ACeJhmB864T6af8MYqqC4Z4cxDxecJlCv6NN03qCGQ2+z0F8LKALfS3Eslb63EEtVTkANsLTRkZNBbdOOkJPrLzs7oEARkjn8MjbQbVd8wszfU06g8oMdp/2ew4iXOn3HN3BwIrqxsTvpXNIy5rO6SB8UTqHGAOnSEfYLjd5wQgC3yiZgYEVr2wYnA5uRgrLw3uOtFe8IB1C04K0aUTLo/D5bopI59EdXehroZOtbTw1m7SfBuhhSF+qUywIF+YmLwhN4ez2az0CgPK9mruHX5JO0Ber6+btBcIE6RyqIuCtzq16vskmG88AoERLMwJ/j0AsnUPSU5MX7E2Eeukcohgx6Qj/UZH/IYB9JCMQGVdPWDKhENR8rPCFiDt5o3rxpPelQ2hakManUnkw7vZzDgYdBehCXwuRnJUenbOcR+C6T4Axbs9fofVAOZflJ0qH6C43giOlM3iFYfxDOkNftLnlE6C7WnSJAzifD3Zn+T5H97wQta0HpUNI61+eb0RILkLz0bCMaYu3d2tOOOOY8VXhGI/E0onHgposY9ofJ+CQoObrI//fHzVNQUT8c1/HB30M0IW+FgIrpzZ+LGulFzEox+CzpfMULcKUsLTaI3aLptA34Pq62us3Bk+RzqA4Xz/I5qz0MQAUeV/km0t9NT9npacD+Ip0DhWQQaKr+gwmNnAnZHd/5RExvhHkhAbx6UHO1zf8qHQCTZMQtZMrwXjZr/EZfCCgC31NYavr5u2VsZzv5SPuSwBNhP5+9duhzf8eodQFSl1hpqIp9JnCu6KfMe2j9e6a3SNiXwt9Bn0dKhxjYbwYrVq3RDqGpIxpn8igO6RzKMNl0UK/2bIvY/AJe36ljxgLYvWJFwOdk+hzgc7Xe9xRiPxROoSmSWGi+30bnLbdY6Vcn1NNW5pKlQ1qqZrcVsBNBD5AOk8p4W290P8knWOPqHi27rsohHZFnwiTpTMo7sMPqtat8Gvw5+vmHYQCLvFr/B4x6BZKpXztDayy56bdNZTyaAJQIZ1FGQaiUlNnTHsAA7dKzd+pg8oj3w9ywpWX3T0wz1vPC3LOPlgxdn7iLekQmibFgPtrBn3Tl8EZ+62ZPqdSr5BqSllupc8e1FK1EoDNgC7yg0Y4b+nERWHovVsshb77YWs/37Zu+Slj2uUALpPOoTTCs+NTqbxfw0cKZbOgRmG55pX39r1POoQUTqWMskL5PQDEz6QrhXGs2NxEV0K+G8+90XlT3whywvyALRcAGBjknL1F4JLvzqGVtg+q1i0H8IFPw9Mmd8BwXehrSmhOOMdnk/YfDdAjAI6RzlPCBg3q1/F56RC7k5u0cH8Ag6VzeOTN8YsntUqH6I0I8dkAhkvnUJrr3/n856bdNRRAwq/xe4To1iBvFFdNc8vw68BQ+n1TyIESD46XTZk/hMDXBD3vTgoRl24TmPdSgTl7xXCNn0ln0DRJ41OpPIP+4tf4hULH3nrrvibq+bp5w41C+c0ueBK4xM7gE94BY3/pGP+D+SsAlL052y3vOFT+QLI3CBTabfsu02QFToYrzc/z+WWF8ulQY+Xu1Y3D194rHUJKzkqfyaCUdA5FGYMG5A8BEOgZ9cqy/LUA7RvknDsjwgPHN5qB3r/yfN284SjQp4Ocsw+yxzeaq6VDaJo45sdA8OW4DbnGwNIqrDRlrJk+pzKbtK+JFMpeom23dpfS96ILhm20VhwJRqDb+rrp853bslVVNNtjmflV6Qy9kTHtKpAqN70rKx/ZMuBZPwZeXTdvLzCu8GPsHiO6zc/jCSrLTV4wgkE/BxCRzqIslw8LcroVyYYDAZL/u8F8Z9BTGvmyiQjJ9yKD7pHOoGkqYMP15XNCpwGlVFxpisiY9vkb2ytXg3E7gEHSeYLEwGqX3NNijpWsXjzpfRCelM60C4MMJpVvUi+eQp9orXSG3jC2Xdqod4TtBoFyo++5fLMfY7e6ZQkAQ/0Yu4fe7Pfevj+VDiFhdU1TBZfnfwlgmHQWlTEj0EK/wMbXAQjfM8PPRu3kM0HOuGzm7P5EuDLIOfugo5wKv5AOoWkqGPDe0BUA2vwYmwzSK/pacDKmfVzWSv+ZCA8Cwf7wV8AmZlwLRvWYdO3T//lVoicEM3UtwmdJR+gKER8kncEzzKEr9BlMDJoknUN1Lvw5n7+6pqmCGbP8GLunmHHbyCUT2qVzSNg65P2fADhFOkcIBPazfmWyYRgAM6j5ukRG4Kv5lZsHTkZY7kxh3D86Xfu2dAxNU0Hnz1C/uvMM0Csymu8ypr0fiL5H4ARAodhW5qECGPM7XOO7u2ojwy4/SQqec+ZtF0tdK52jC0W0oh++Qj9XO/8UuDhKOofqCO7Te35Vz7UNff9SYnzMj7F7goF/7VPZtlA6h4Rs0kmAOSmdIwwM4sCKzwKMmQAGBDXfLjHe2Fi19oEgp+w8aveNIOfsCwZ+KJ1B01TCoBcIfKIfY+sVfc03GdMuzybtmURYQ+AkQnJ2zDv8LAzjxJhjJbvqFRtzzJcAqPhke1Ru8oIR0iF2jYqm0C9zjdAV+uzyVOkMYdBRiHhe6HMqZTCzEh/oiXDzEXNn+LLdUGXNCWccmO+SzhEWzBgSxDwZ096HGXVBzLU7DMwVuLPiYhAODnjO3iH8Ke5YOekYmqYSA+7ffBq6Qxf6mi+yycYzCFgJxmwAorffCniXwFOjVetOjjUksrt7IYEYrOQ5feLyjs9Jh9glKp4V/TamFukMPdE8cdG+BK6RzqE8xhtdPdzri+Z1Iy4AcLTX4/bCq+yi5FbzVyQbDnQNvh9AhXQWAKF47+CA7pIgA5Mhf+fPJgDzg5xwdd28vYjwvSDn7At29Wq+pv0P1/CrM0mH3rqveWpFsuHAgmvcAXYvKsHWWy4R7NaOyPXjFkxd390vYqInCXyhn8F66SwAi6RD7Chj2gPA2E86h0c6TvzYv9+RDtETbkX7JQD6S+dQHRMt92Vc8Df9GLenmHFT3LE6pHMEadnM2f3dLZEHgOC2oneJ8TATvUiKfD/sDgVQ6DfVNEXAG+Rv2gcvjDvJD4KcsbVQ9h0Aobi3hkDPxxzzD9I5NE05hvsG/Cia2M3rFX3NExnTLs+Y9tUFNl4E4SLpPAKeg2GcEE1bdT0p8gGAqaDmhXygzyxNpZR6GMiRwkHw5d1QxDpKpVzpED1CSEhHCAMi9rzQzyWcT4Mxxutxe+Hvr24YfK90iCAxmPptHTifwSdIZwHjZaO94msGMUtH6SbfC/1DB284F8Chfs+zBy4zzQ1ywuXJhmMBXBXknH3jKnHsSNNUUxkpvOnHuKS37mteyCWcT4HQTIQ7AOwtnSdg7zIjEa1qGbenbfpdee29oasAbPQ4lxcG7722apR0iI9wjaLZtk8I2bb9hDMGwGjpHGHALjwv9DmiyuotpyYsmVCQThGkXNK5jhkXS+cAsJWIv1y9eNL7AMqlw3TTgNU1Tb4edTCIxM/mg/BY3LFeCWo6BpPBxjyE5fuA8XDUTiq6qKFpskbWT/sQPtQBLtOHSq3WaeGSMe0qIv4hgy+m4lll7S6XQU573vh2T1fwdzZhyYRC1kqvBOhUr8J56EQAylycEwGqwrKMtScMfl86Q0+4hpsovb/mveLmK9t69dCvKzkrHWfGp70cs1cYq6Ij1i2RjhGkrJX+Ehg3SecAABDVRdPWSgBglu4V331bB28oA+BLG8bctPkHc75wph9j9wS7cIKcL2s60wk4Lcg5+yCPMuNb0iE0TXGb4fE9IxHi9brQ13psaSpVNmht1RUg3AiQ9OU3Ep6DYUyL93IFvwt/BaBeoU80FkCDdIztXBjDCMVR6jNIxV0cu7S6bt5erQUqxSM5vfH3sXNnePpny0zfUuEZi0H8ndAdN+mD5cmGajDdDTU6FDmxtLl4h3+XbSPXA635Mt867rh592sk/+fzdv8Ng38d1GQZ044S4QdBzecBO1af8OuyMU0rFlu9HrDAtEH6zVELmeXJhpMHra3KgnAn5G+4DVqft+l3hbYV+srxq69nbxF4mHQGrxBzaAr9rfmyi1B6x3J6hcjbbfvLa+uPAuECL8fsFcLy423rYekYQXm+bt5wg41fAxgonQVAZmNbxZUf/SXeXyZKz/Ur8+c+KAYTwBP9GLuHfjpyyQRfdizs7KnJC/Ymwn0AKoOYzwP/Zsa3pUNomurY+0KfN41oeV+v6Gvd0jxx0b6Fyo7vE7MJEn96HjTPtul3hVxjFRtKrlQfuaq2fvCohroN0kEAgEEHFMuKPkjJexl2iQhTpTOEhdfn841C5Bo13nPpBgIVyV++3Vs2c3b/si3lv2aw+G3mBKwncmvGL57U+tHfoAPC8lbYXoj4sqLfbNkxAh3ix9g9wBGXAmupN6Ain2bGEUHN12dE0+O2GWgnAk0LI/K+0F83PpXK60Jf26Nc0rnQ5fa5BFRJZwkagZ4H3Gkx28r4OU9bv9YXytsrGeodgqYO1zgRwO+lgwBFtqKPcKzoZ2sbR8F1ldrZoTKD6Xmvxlo5tfFjeXIv9Wq8PngqljYflQ4RBAZTbou9WIkb9gEXLl1a3Vj7+i5+7xMBZ+m1SL9Wv36ufcmncXviL8c3mv8IYqKsaX9XkUshu4kfjKWtB6VTaFpItO75JT3BbwDy55o0ha2c2vixrGn/mpl/hRIr8glYDyKzumrtSVE76WuRDwBj587YyMDrfs/TK0wqFXlFU+i7HI4z+uyyXs3vvra9+rWu8mqwvOHOAuDrjeXdQS5dL50hKFmr8SaAJkjnAAAC3xxtNH+3869nTLsKjNBs3S9UtG/xY1wGKXCkhe4OYpqMadeCkApiLi8QsJ46yq+QzqFpIeLtMTGm1wFAr+hr/4NTKaO5Zfi0PNxbUIrnchn3tbvGVWPnJ94Kclpi/BUE6W2I/8uAMoU+A8NU2/LQB8pvZ1w2c3Z/2sIqrCiHA2HVEXNntHkx1LNTGw8AuZYXY/UJ4U/RRvNx6RhByFrpSwFW5DwxP1pdte7GLn7zuECj9E1+3J2zPL9kKmelj2HgaK/H7aE2dtn3Feuclf4yA3P9nsdLTDQ1tnDKWukcmhYi+3k5GBG/BuhCX9tJtrZxVK7FdQB1irvAMN5wievGOMnfikxPtIrAX5SYe7cYKmxh3balFk7RrOgT8SbpDHtSuWXAhQAGS+cIDYZn2/bLI4WvAyR/szoZN0hHCMLyZMPJYJoPNY5PvZkvy1/SZYcDolEIywF9wJf3OSa6QPo/AYN+H3f8PX+eq3W+yC7fC8C3zgVeY1A6njb1ln1N65mhXg7mMr0A6K37WqdlM2f3zyXt78N1Myi9Ir8Axp39yvLHjrFlinwAMAirpebeg6EZ0xY/uvHX2oZ9ocA2Zq8QGXnpDHtGCekEYcLszUV8uUkL9weo1oux+oZ/E2tIPCudwm8rpzYeYsB4EGrcZN5muPTlE+dd8d5uXhOmFX1/HmiyfCcKY9vt977JJZ2L2OVfQY3vy25hYHX7gA9nSefQtDDJmPYAeNwytYxpJaBX9DUAOSt9Jm+mNBMOl84SNAZWGOBE1PH/HP4esxC9DlZzlYYN9ygALZIZ2oBhxfRkkgGl+5EvTzYcC8Zp0jnCxCD2pNB3K/JXk3xbNzbc4l/Nz5j2Pnlyf6PKmXdmXFHdaO72+4iYxymx76B7PL+LZGWyYVieEfV63B7aHNnc7//8Gjxnpacws40QreQD2FTm0lfiPhzV0LRiVu4aB+Qjnn4kbN1w4NqXAF3ol7SnJi/Yu395/g4GEqAQfWzwRiszbtw0ouWO8amUEiurEc7/s6DoJhsDxlEA/iKboXyY4rVxjxChIJ1hd4gj00K0PVgFm6qr1v29r4NkTHs/Ak/zIlBfMOj+6kZzhXQOPy1NpcqohX8J0DHSWbbhxriT3G2rtuW19UfBDdNDef631yPmmcZD+IgFg343+p7LN3s/LlPWdK5n4EaocYyku1wDfNnxjZaqOxM1TVmFcj7O24+3vGJ7baML/RKVMe3zifINAIZLZwkeP1ZWiEwdPT/xmnSSHY0e/lZLrqWqHSpuT2fxS48A5n2kI3jJLbCyhf6yKfOHEApfk84RLry6yzPVPUCEawDs5UGgvshH4F4nnMF3g1qqHACfk87R6Qlm2uMDHqMQ+WKoyj/gTa8HZBifIeGHkET4g9djrqqtH5xznZ8TcJbXY/uO8a1qJ/lr6RiaFkquG/PyuR7D+M8FumouH2q+WV03b6+M5TTQ/7N352FulWX/wL9glbbyAAAgAElEQVT3ySxt0UKLaAtKEeGngkAnSQEriuDC8iKo2LqCFDo5mZZWFoEXEQ0KuFOgMJOT6YKAC60s4oYIguzQZAoIyFZeEOhUlra0pZ2ZJOf+/dGpAnaZ5ST3Ocn3c129LtpJnvNlZjKT+zzPcz+C61B/Rf4GhZyxbOXYT4etyAcAyWR8qO3y+K3Y0zqA2Bc/gRIJb6Hf1OAfB2CkdY5okX8Md4R7Tpo3FoB9p33g1y1e+inrEJXU5WZnAZhmnaPfS+VY6WvJnFvc5iMFR1QhT2AUzgtBjynQQ4Iec7Ac9W8Pcrwlbe3vL5ZjdyOKRT50UTyX+ql1CqKo8uHsF+R4joN7Nv03Z/TrSCHdeWhP2Z8v0N2ss1Sd4B5fyidO6pjxhHWUrRI8D2CCdYzNMJ/R1xo76lFVQrkPof90A/Ol41GjkMeGO0ZTg38qgNEBxBmOImKxLR3rVhO6WnNHKHSOdY5+JVV8af/2mc9v64H5lLc9gIOqkCkwAn+b/1+D8dD0zveW4O8e5JhD8M8gb4TlU9508TEHEsWb2Xpn76j1JwiE+7yIhkigQfYc8Xv6nLs2/YWFfh14dMblb+spx34E9dsQrT1fQVgPwbfj47ovCWJZbaUp5HnrJYlbsNtTsy5tDuqM8KHRCL4J2jInpDP6Xa53GCDmKziiRuEPq9B/uK19TNHXWUHlGSoR/DzePv1p6xyVsiTd8SFV/TVC0uRMoGclcunbBvJYR/TLCmmsdKYgqcqzQY5XipU/bv02RgQD+nptS9e0BTtpUzEH4LNBjGfgkUbHPybB5ntEQ7bUze7pA+8JcMj7J8+fvnLTX1jo17gl6Y6Pbyg7CwR4r3WW6tM7EWs4MRGtN62B72cMSGxtX9P7AAx71nKoVOXtIb0JMiTl8G6d4mz+EDSIDuu1UdTYNwBY96Ho9X183zhDxWzs1u78DvarJja5Ju6lLxrogxWSrmSYSnCKjY8EPGQy4PEGT/Xh4Q7Rlc59SbU4B1HdQql4Lub4h+/bMWOVdRSiKPNFDgvyra0qbnzj31no16iHjrtyu9LIDT+EYiasb39X3wYIzomPWxGJWfw3EtEXwlrLqjjvh2GhL/DfXkvfyg0Bn5kahCVt7bvDlyOtc0TQuonZ9HNA25CenE9520PxjYAzDZ6iM5lzw3qzcVhuO2HhiJL23QBgN+ss/R5pWD/ypIE+eEm64yNQBLqPswpWxBee+HLAY1ofqwdfZchbAAszOj+IcvkyVT00yExV9pICh0/MtgV+ogJR3VE9LMj3ttLgvKkpJgv9GpRPeQeVZMMVAN5nncXA/ao4Iem5wz7myoTq8vAWs9a9HaSmmsOpOKH7/3F8pw3hXWkQZsuGuUd1NoAdggozROsVuNA4Q0UoVJaOyM1XxYets/Rb7UA/P5jj2Rx1IjebL5C/BznebZlMA7rF/GZHTPTJwT5n47GZ+BbK/smI2PaLNxG87MP/xCSvLZrvsYhC5LYTFo4A+oJsLvpYor31TY2BWejXkHzKaxTguxD8L0Ky/7CKelWReWbVmJ9MXTw1lHufB8IH1oa2yvJtlxgqxK+lpfsI2Yx+PuWNEuDEmvoMV4lAhjyzdd+sS0c7fTjF/vOu7clcOqynfgxLwe08VxRfsc7Rz4fIcS1Zd8DN3PIpbzyAKRXMVBE+EGih//bl4z8IsT8NpLccWzPQx9514vy3j2wonQbBaQjPlpGhehXifHJShxv0dgyiujR6RPFoKLYLajyFXP3Wf2OhXyOWutk9FXK1Qve3zmKgSxUnJHNuoG8qLDhObC380O42GG95cYHvh3e1w+Cpr+ZvWN+ov9HXWOsckSS6fKhPbSw2z1LA+vO+VlV+ZJyhIjbuhdaMdY5NBHpGPOv+flDPEf02IM2VylQpAv+BIMdzRFs0BL8DmpplxLYec9+sS0c39I2YKVI6FYqdqpGrkgRYKb58ssVrHXZ/AiLaSBRfD3J7vtPg/PKt/8hCvwZ0udmTfMjFtdaVfACKEFyoPi4Y0PnDERAr6dpySKf0RcS2aZCKH4L3eEEK1Yy+Dzk5RJ/epwBEp/O/Dq3Qv+vE+W+Hlk4NOs5gKeSSZC71inWOoBXaOg9U31+IkNwhFEFHPDvw5nvAv4+Tm16pTJWkKncEOqDIHmFY1FUuF8cCeG5zH3so3fHOosZmSZ+eDOgOYcg7bIrlZcc/bFJnG2fyiQKST3njFfrpAIe8PX759P/6ucRCP8Lun3nZjg2lxpwCn7fOYuAxVRyX9Nwu6yBB8pucdSiFc+eBQk0LfXHgay28aeqnEp6eA/mUd5AAE61z9PMB3IUIFfo6xKX7I5tKs6HYMeg8g/QqVH9qnCFw+ZS3K3z/egDbnH2tkpteG9c9e7BPKsY0I0BTJQJVkgJPJnNuoFtBfJUJYdi+Jb5zKIClm/6umYyz9MWdD0VMUyXFMQKN3NdrSxR4Mub4hyWybc9aZyGqMV9HkHW4yNzN/TML/Yjqas19Ukt6BYBdrLNUmQJo7x31+hmTa/Ds1p4erG0O66tSjPfo+yiHY14uGBtPEQgHCdWRevoXEWmO1E0dkUHP6D/c1j6m6OOblYgzGAr5YTKXes06R5AeOu7K7Yqy4bcIz9Flfy829X7xkEymNJgnPdia27sM/WqlQlWSIwh2Nh+AiE4IQZ0PAU7Lp7xf+g0ldUoNJ3R1YzocfV8YsgWs0Cj+kftl216yDkJUSx6dsqipB6tmBTjks8te3eHGzX0grCUFbcFTsy5tXltsvkBVT0X9dcd+SRUnJnPuH6yDVEpTrLzWOsMWKXbMp7xGq20SNTejD+ed1hkA4KHpne8uiX+sdY5/E8dT1W9bxxgMp4x/DfY5JY2dCeNO+wq8sLa38TLLDEHTTMbp6t5wdYhWqHSr4qgD584ecAM3YONJAV1Orh0RbayrkNsDH1Oxayju9Qp2FuDhWLlhewii20F/q/TPG4qNUw5acFJ435MQRVTP2JVfBWTnoMYT6NwtNSKvt0Ix0rrc7F6v9TXfp4rTUWdfO4H8sVh29q3lIh8A+ovoXuscW+A0OL5Zcarh/bwMiUBDUeiXG/xTgJC8WVUsXzNu+e8kPGedD4jfKOsG8/h8yhuvikEv4w6aA80ccsW0HuscQVraPe58AJ+1ztFvvUCPTubcfw72iV1urhXAxyqQqRqKjVL6Y5ADaibjCPDuIMccpncgLD83A6aQ+WvGrziKRT5R8BQqgAS3mk/wcmz9KG9LH+aMfkQUUt5MBX4isD9apso2QHBmS7b18mGeUx0lawGEssNyWRrGARjyUWLDVFPLiwGYF/r5lLe9Klqtc/ybg87Gf75npDaWrLvQD0pDHwb1hri/i7p1M8bHXxu/4ufGGQJVcLNfU8jZ1jn6+ar4aiKXzg/2if3H6UX3FATB3/btmLEqyCEfe2mnUajRwjpEVKDfSXju+dZBiGpVV7rzK1DsFdR46uOi/a46/vUtfZyFfsjdN+vS0U3F5nmq0TtDd9gUD8dUvjKxM/Uo4FqnqabQnq8HVbMj9gTymtbQJkgNQaEvDlxoaM52LsbgdzY39U2ARmvBkl9qGPCM/pK29t3hSwi6qOs5g90zHmZdbvbDCum0zrGJQM9I5NI3DOm5gstgvK1jOFTl+qDHXNvXtF1jLLy/GmvAOkCnx730NdZBiGrVPadeNBLr9cIAh3ypp9Rw+dYeEK13U3Umn/L2aehrXlKHRb5CMWd0c+/+G4v8uhPmWYvtrS6s6q+2unYlCPDOjUu4bDw6ZVETfHzD6vpvpZDfTsy2vSi+M8E6y2Ct3u25ARf6TjmWgXEXdYE8EPfcwIsxK/mUtysgoemwr5Bs3BvcMXqbFNzsNET7JB2/Qcq/DXrQWGNxu6DHpH97PObLgQkW+UQV1bT+bacA2DWo8QT63W1tseGMfkjlU97XRdCOkJ21XQWv+NCvT8qlA93fFzFhfl2afT8K8FrtzOcDAJr+3taxAzoQ6BLXgerZcfVXoAisGcxwqZQ33pUWmYBordzoGejM+JJ0x4egMO+iriJn18pWqEdnXP62njJuVOBd1ln63bR2/PIhdVPucrN7KSTSzREFcuvEbFvg27ukHNuulk5dCQ3FtRtKDdO4H5+osh6Ycfl7pKxBbi177LXxK+Zt60FhLijq0m0nLByx/Yi+uaoIwdLO6hLI3bGyfGm/ea0vWGcxFtrXpfpq2SOi1vboo+Q7uwLVL/QVKgXNfTNE75sfS2bTfwPaIKoTIvaGfsAFs6PO92G/ku7mRLb1r8YZAqGZjFPobrxaoPtZZ+mXHxErTUkMYUvEPadeNFLXyzWI+M19X7Ui2yck5gh8Lt0PUEkV/5vIpS6qlZt+RGEWKzfkAAR2rLL48o2BTDJYv+GgN8invPeNbu67pw6LfFXIj14bv/zjLPIBhLjQh/GMvtW1K2hPi4s+6HpHC7C3xbU3S9H+7zebgqgt3R/Q8Wf5lHcAgGMqnGVbVBVhaVY3bIXunS8UqPXndJNlDeL/z97tMwd1AsMmIzZsdymADwWcqdpeGrlqTODL9gGgoTi4hpe0VSvEl08mc+7PWOQTVV4hnTsBwOEBDnl1vDN1y0AeGOaCoq7kU95nRbAQEW7AM0Qbl+p7bj0v1X+r0L4uHTGc0e9tfhnNfWaXrwRfZY9qX1Oh0oXcudW+7lasLTb3XvWfv+oERGtKf0A3zEX0QkCs/8cWJXNul3GGQHS52eMVepZ1jn4vIRY7fL9296WhPLmQ8mbWyA3+n++9eGpFfkgXHX+t9YunRtwlxYYvxhectNw6CFE96Jo5b4KWykPq2bIFrzaIf/pAH8wZfWO3ZTINBTf7ExFch/or8u9qKDstk7y63o//JrdlMg0IcZWjhjP6LVdMWw1gSLNlYSUGM/qFVO5IAIlqX3fL9KoD585e85+/S9Rm9Lf5e3TjbL4cWo0wW1F0oGG6wTNkS1tzkxWSs87Rb53jy1GJ9ulPD+XJ+ZT3aQguDjqUgZIjfnulBt++uZcz+sNTgiKzZnz3ISzyiaojn/IatVS+BsCY4EbV1H7ZtgHfVGahb6jrxPk7j+4e91dAvokQF3cVoAr50Zrx3Ydwqf5bPDshtLP5/az3jwbe5MmUoOoz+hvPcA+PmO/8uzhYNGVRDCE4dnCQnHzK2+pJGRtn840pFrR46aesYwxX18x5E3xHrwfQbJ0FQFF8mdrSmVoylCfnU94HRHANQryKa6BEsKgl2/Zspcbfc+7sXtTm9q1qeMLxZXIi555XS0dqEoWd4+AHAA4IcMhcwktfN5gnRP6XS1R1teYOhlO6BpCwdAqullfEl+MTnak/WQcJo+ZY2bqQ3gaxbMYHAC8AeL9xhiBVdUY/n/I+DeDAal5zqwR/e+MRmnu8bd1YHeCe9zBxio07AHh5cx/rcrNfUPvZ/PVSaviecYZhe3TG5W/rKZZvhITiZpBCJBUf4u+yB2ZcPk5K+B1qYyWfSll+UumLCOQJhe5f6evUEAXQroozWzpT663DENWTQjo3VVVPC2xAxT8UOHWwT+OMvoFCypupjv4lRMcBVYdgiSoSQ31jVA9GOf47rDNsg+mNCBHU2gqQ8fmUV7WvuQhCtXRbfVz+xr87DaUwFHCD5jSUNrss755TLxqpKj+tdp63EsGlUV+uq5mM01Nq+AUE+1pnAQAovp3Ipq4YylO7pi3YySk33GKxoqcy9OaWztSDlb6KDzxe6WvUkGcE+qmE556czLks8omqqMvNJqF6BYJbrd3rqHxlKK9lzuhX0VOzLm1eW2y+rEaa7gySdo5u7JvVv/yOtqAk+s5Q7+FQmM7oq48Xam2Ti4ruD6DifSqWuNlPATio0tcZMMVyADe88Z9C//2/BcVYebOzss2vb3dOCE4RWCU9TT8yzjBsXcvH/wCCo61zbKTtiVx6SNsxHm5rH9PnF28O1akXw6NwYpkqXYuF/raVFXIJVM9N5NIs8Imq7KHpne8uwb8BCO79skLOGurNVBb6VfLAjMvHrSk2XAvFZOssVdYj0JPjXnq+dZAoEEd2gob4tBtBk+XlFXgxioXg1jgqk1DhQl8zGaerW8JV7DnoTGbd4hv/KfTf/1sgvrPzW/8tn/L2geBMizxvIvhhfyPLyMqnvK+H4nMJANDrl60cO3soz8ynvO1Lvtwk0IlBp7KjixMdrfdV40oO/Lu11u70BknxsKMyfag9I4hoeLqmLdipFCv+BcAuQY0pgnmJbOqSoT6fS/erYGlrblKs3JCvuyJf8Rwc5yAW+YOgupN1hK0SmFZhjsqzltevBBGp+J7TrhU7fxlAS6WvMwhF6WvYTNd0jeTS/beenrBoyqKYIzIPwFab9FXBi70jX59rnGFYlrbmJovAs87R767eUeu/OnXx1PJgn5hPee8Qwa01tse8z3f8s6t1MV/lXgBrtvnA+vMqFCev2bk7wSKfyEY+5W2vTcU/A/hAUGMK5I+vjetuG84YLPQrrMvNfsF39G8I8O5ORNxcaiwmEh2tBesgkSIIdaEvKqaFfrmh9ITl9StBRSdVcvynZl3aDNXzK3mNwdNFm9szripjLdIM21v2Wu8xduXZoSjoRM6bPOe0DdYxhurBdMcuvqPXIhwd9h/rLcWOGcrnM5/yxkNwO0J1rGUAFJdP6pjxTLUul8y5RQB/rdb1IqAI6CWNTnnPRM69nB31iWw83NY+xhG5GcFOqBSaY8UvDvd1zUK/grrc7FkKWYQA92lEgEJxwbKVY4484PKTX7UOEzkhn9FX43XV//fKO54D0GOZIXCKnZa62Yp131/b1zQTwG6VGn8oBJs/N9wRHV3tLAH59/E5+ZT3WYWcZxmm3xNrxi1faB1iqG47YeEIX2PXARhnnQXAP8ux0uGT509fOdgnds2cN0GAO2poT/4mLypQ9e9z1Tf39ahjN/hOeZ+Elz5l344Zq6zDENWr+2detmPRj90S5M19Bf6vHCsdtXf7zHXDHYt79Csgn/IaHQftddh0bzWgxydy6d9ZB4kqhfNO49Xx22Bb6E9dPLVccL2nAXzIMkfQynCOBDDkPVhbsvSEhTso+s4Jetzh0TvjXjq/2Y8o3l7tNAHZJ5/yxjsq/09Fr0IIbqKr4twoz/BtP6Ivqwr7VRHAK6o4bP/2mc8P9omFts6Elsq/g2B8JYKZEpmV9FJVP9d+bV/TNaOb+34KIOwn1FSEQG5XR86uVl8EItqypemO3fyS8wcAewU2qGJ5g8rhE72ZK4IYzvzNSK3Jp7ztxcEf667IVzztO+UDEx6L/OEQ+OE+clHFN48AqbnOywI9shLj+s195ysQruXw4szZ0ocUEtVC3xFBQR29FcDbrMMAuD+RS/3GOsRQ5d3cN1TxdescANY6vhyZzLmD/plTcLOfge//DajBIh96fSKbut7iyodcMa1HoJ0W1zZWAPSIuJc6hEU+kb0l6Y79VZ37EGSRD7zoiH58YmfqyaAGZKEfoK6Z8yZAcDcUn7TOUk0Cub23HDtgUseMmts/XX1SsSXcgRA1XzYvqrX4fXbwozMuD7RAXJLu2B/AsJq4VMAzy17d4cYtfVDgR7XQBzYWdDHrEACgim8KbPtpDFUh3XmoQH9qnQNAr0A/N5TmZvmUNxuQ6wFsV4Fc1lbHRGeZJig2XgZg2Etao0HvBPSIhOcmE176Jus0RAQU3OznHXVuUyDIybnnEYt9vMVLPxXgmCz0g7Ik3dGipfK9NbgPb6tEMM9X/fRQ9i7Smz103JXbAXi3dY6tUTj2hb4jtVjoN28oNQR2g/C2TKZB1PEQsp/xCrl06x3LJap79ENEr0/m3LusUwzFQ9M73wv1r4H9tsKyiHw17qVvHcyTHp2yqKngZnMiuAQhuekTOBF3YrbtRcsI8QUnLYfg+5YZKkwF8kdVfDThpT/GAp8oHBQqhbR3JiCLAYwKcOh/quKQRPv0pwMcE4D9L9OakE95nxbFb4DI7i8dirJAz4xn0xdZB6kV/oiePYFwHxIssJ/R9319VEL9WRoaAb4IBNNoavvucbMVCNtZ3a/1FGMLtvGYevoZWgnFmO/8r3WIoXjouCu3K8U2XA/7vdcKkbZ4NnXtYJ503/TOd/XEVv0GkIMqFcycYkHCSy2yjgEAI14dc3HPmFUnQPBB6ywB2gDgKoFeEvfcx6zDENF/PNzWPqbgdy4UxTFBjqvAozHxj2rx2p4NctxNQjXbE0X5lPd1Efwe9fUGdS1EPhv3WOQHyXf891tn2DY1P6pr5KoxjwDos84ROMHnH0p3DPsc+a6Z8yaEpOv7myhk/kELTlq7jYcFeYe8/ii8IPf2VVNp5IZ5APazzqGQcxLZ1KD2gC9tzU1ujPlLANRukQ880bBh5GzrEJvsvXhqn6PyFQCvW2cJwPNQnKOKXROe68a9NIt8ohAptHUeWCzHlgo00CIfwE1QfKQlW5kiH2ChPyz5lHeuCBYCaLTOUjWK51TxkUQ29XvrKLVG4YS+0A/D0v29F0/tA/CIdY4KaCqrTBvOAPmU16il8q8QjoZwb1SKSXnuNh+lNbrcuTrWSLHxe9YhhiKf8mZD8CXrHFDMSXqpHwz04YumLIoV0t45vqN/A/CeCiaztk6gX9zvquNDVVS3dKYeFOgJQKiPqtmSPhEsBvSI+Pju3RI598Jkzn3FOhQR/cdtmUxD3s2dDd+/A4IJgQ6uuGzN+O7PJHNuRU8v4dL9IdBMxunqHjcXwAzrLFV2b9F3PnfgvNZ/WQepRQL//4V85T5EdY11ho20AEjcOkXQFJLSTOYnkskM6XQDEfwYwIcDjjVsIrh+IHesVRAL9ysgvBTyw8TCE1+2zjFYS1tzk32xb76nkCsTudbTAXdAj38w3bGLr6uvVsXHK5vMnA+R4+NZ9yHrIJsT99K/6XKz31TITxH2X6CAD+AuCBarj18nPBb2RGG1JN3xIafbWQhoMuChiwo5JZlLtQc87max0B+k2zKZhq7l4xdAcJx1lqpS/HpNX9O0Q66YZj6jW7sk/DP6IqutMwAARApQtFrHqIDdC8vHnwhg3mCf2JXOHauq36hApmGTslw8oMfVagOzynu+b9S6AX2Ow+ShdMc7S6qLYL8q7ndrxy8/aaAnFSx1s8eUVeYDumOlg5kTfMfqKL2Binvpiwrp3EqodiKc72vvF+gvUGy8Nr7gpOXWYYhoyx6dsqhpw9jV/yuq5wBoCnj4Z3zxvzwp2/ZAwONuURh/IIbWU7MubV7T3fxLCD5vnaW69JL4zitOG+osI23bxlUiCH2hD9VQFPpOWbp8J4qrNbdNBBcsPWHhb1qumDbgz/WStvb3q6/zEc4ZrftbOlP3DOiRioZQ/h+EnEC/PXnOaeb9MwZj0ZRFsZKu/BWAXWyT6J29o9Z/8ZBMprStR95z6kUjm9dv9xN/42q+OvhO1V/Es+6FA13lYCmRTV2xxM2+6KhcAcHO1nkArFLI1eLIvERH68PWYYho27rc7Ic3YFVnZU5Q00WqkprktVV0qf5bsdAfoHzKG7WmT68DcJh1lipSgZ4d99I/sg5S65Z2j/sAItDQUSUchf7bRvQ8vKavuQj7mcBKeKff3JsBcMpAHpxPebuKj5sBbF/RVEOmcwb6SBHEavP2TUUtbRm/4mrrEIO1x9iV31fIocYxHlKVzwzkJsnS1txkf70uACJwQzYIgj+pL9MGusohDCZ56b/cc9K8fUY0lueq4isGERTAnYB2rult/g1XQBJFw0PHXbldaeSGHyowQ4LvX7cOwOkJL50LeNwBYaE/APmUt/3Gzvo1fGzOfytBpDWeda+wDlIXxDkQGv73Uw2+E4pCf8+5s3sLrvcwgIR1lsqQWQU3e2vCS/9ua49a0ta+u5TxZwC7VinYYD2/ZvyKAR9Tply6P2gCPSNqq6262nJHq6/WxwAuK8dKh+/fPnOrsyv3nHrRyObXt7vAF/0G6qeB8V3q4wvJnFu0DjJYk+dPXwngq4W2ziz88gWAfLTiF1X8Aw4Wxcryy6ieekFUr5a62T1L2HAdgA9VYPjfqeLkZM79ZwXGHhAW+tvQX+T/GcAB1lmqaL0qpia91B+sg9QLVf/AKKwELYuutM7wBneiZgt9OID8qsvNHhP30rdu7gFL0h0fd3znVxCMq3a4AVPMHciS6E0EqNENGRUi+FM8u/nvj7B6MN2xi+/rQhj+wBPgX77isP3bZ67Y2uPyKe8gWY8FEOxZrWzWFHgQiqOSOXe9dZbhSHS03gngY12tuU8ipilVfAbAiICGLwJ6H1RuRcy5nkvziaKpqzV3hA/9FYJfEfkioLMTXvq6gMcdNBb6W7GxyNebAKmnIv9VOM5RyY7W+6yD1Bc50DrBQDTFyuE5cUHkDqgOaHl7RG2nkD8VUt6PGxz/0v2ybS8BG+8++8AZUDkJ4Z5hXOf0NQ3qPHIFeisVpgaVffhnWocYDIVKF3JXABhrGGMDoEclc+llW3rAQ9M731tu8L+lihMR7tdY0LrKDcVPH3D5yVXdQ1pJ8c7ULQBuWXrCwh20ufdYBT4tkIMVeNcghnlJIHnAzytwb8P6UXeG7ahBIhqcfMqLq+h1CO4GIAD0AXppsanv+wfOnR2KU6pY6G/BG4r8SBRggVA8p8DhyY7Wx62j1JP7Zl06Gn2VaPwRuN59OtpWh+VUSfX1ThEoorAUYugaITinpM5ZeddbIUCTD7zTOtSAKK4YTEPBfpFqKGdJBAsnZdsesc4xGF3p3ClQfNIyg0J+lvDc/OY+VpjR+UGUy2eW4H8VWpP9P7ZC73N6m484wHNDsT0raP0/i+YDmK9Qeai1cy/f8T+oIrtDsSve2O9F8bI48gzKWBZTWbbfvNYXrHITUWUI8F0EWuTr7x3gtBYv/VRwYw4fC/3NqMsiH3gk5viHT8y2vWgdpN409YzYXx2NwqzRS2FqzJTMua8UXO8fAPayzlIFDQK821aQ65oAACAASURBVDrEIPhoiF0yhOdFerlwFb3u+/iOdYjByKe8faC40DoHVN+0Wq1r5rwJKJWOVciXUfaTtX3fcIvu2FBsPOqgK6attQ5SDQJRdOJRAI9aZyEiI4IPBjTSvT70u5O89F8CGi9QLPTf4q4T579dpFhXRb5AHmhwSofv2zFjlXWWuuREY38+gPAs2++nkDsEWg+FftTckGif/vSgnyXYgNDcSgoxwU+TntttHWOgnpp1afOaXlyNYJdIDokIbii42XsBKQGYoKXy7hH5+Vsher2qfO2gBSfxJhsR1Q2BPKvQofdfEdyjPs5L5tybA4wVOBb6b3DbCQtHjGos3qj1VeTf3dfUc2Q8JHtJ6pGKTI5GcaNbbVxlQvVOCNLWMejNfPGHeiQni41te7Hh9ZE/sQ4xGGt6m78Hwb7WOfo1VKUTezRcHB+/4vSondpARDRcPvAHAT41yKf1KGQRVNuTnnt/RYIFjIV+v3zKaxTpW6TAx62zVNFtzbHi0fG5s9dZB6lX95x60Uisj8b3nIg8b53hrZxSw+3aWKr1ffoRo3+dlG17YGhP5R79bVHFOVFqBFZo69wXvn+adQ56k7JCTk96qaFsryEiiry+UetyTeu3axVsu0eWQB5Q0atKseKvDrj85FerkS8oLPQBaCbjdHXrQkA+Y52levSvvaPWH5WYcxrfWBtqen27QyEYaZ1jQFSfs47wVvEFJy3Pu95DAky0zkIbqcpQZ/MBzuhvSyGxc/dV1iEGRf0O8L1GmLwK6NeSnnuTdRAiIiuT55y2YekJCw/S5t5TFTgEkFEAAMEqqL4AkedE9YlYOXZnlBty8pcvgK7u8ZcC+Kp1jqoR3DPCKR/DIt+eiB4ZlcloBZ61zrA5IvgjlIV+SHQNZ7+aCNZqJLax2BDoaVFaZr3EzR4JxWTrHLSRQB7wVackc+l/WmchIrLWfxrHd/v/1KQodPquqK609z0AM61zVFFBfRy5d/tMLtcPA5X/sY4wYE4sdDP6AKA+/mSdgfrJsGbz4auErw9EeFwX99J3WIcYjBicM6wz0Cba/vamno8lcy6LfCKiOlHXM/pdbvYkVZxrnaNaFHi03FA87IDLT37NOgv1HzclmGCdY6C07Iey0H9m1Zh79xi7aqUCY62z1Lmnlr26w7XDGUBUV0RkgUu19aniTOsQg9E1c94ELZUPts5R7wRYqdDWhJe+zjoLERFVV93O6C9xs59SSId1jip60Y+VjohaE4kaF53ZfGB9IpcK5Wzr1MVTy6oI9fEmdeKnUxdPLQ9rBNHIHBlXTSKYm8y5y6xzDIZfLH8ZUdmXVKsEf4uVnf1Y5BMR1ae6LPTzKW8fB/IbAI3WWarkNVUcsX/7zNB1Ta9nG/fnR4TiaYGEdve0iHL5vq3u0U29Px/2KE5seQBZas0r0tN0vnWIwRKpo7434VOE4pxlr475RJSbSBER0fDU3dL9rhPn76xS+gOA0dZZqqRXFZ9L5ty/Wweh/7hveue7AP/D1jkGSkWetM6wNcWG0h8aSo0l1OHPtFAQXLzn3Nm9wx3G8csrfE4Cv5ki098wKDLyKW88gA9Z56hLgnt8+O4kr+0R6yhERGSrrmb08ylvlDaWfg/gPdZZqkfbkjn3NusU9GaNjv9lRKgoFdFQF/r9W1L+ap2jTr26oa8hkG1QTbEyl+6/2bI1O3d71iEGSxz5qHWGOvSaQmbGx3V/dFKWRT4REdVRoa9QEWA+gBbrLFWjmJPw0gutY9BmCI6zjjA48pR1gm0R6CLrDPVIoBcftOCktUGM1X8aSCBj1QJV/PyQTKZknWOwVHGQdYY6ogr5lRQb9kp6qfYoHb9IRESVFZkZxeHqSufOgOJL1jmq6OZlq8bwaKMQerA1t3cZGrfOMRhOGaGe0QeAYkPphoZSYwfqp/dGGKzyVeYGPOZz4LJvQPGPkavGDOu4Qisi+kGEtqNHTelSxTeSudRd1kGIiCh86mJGv5DOHQbFhdY5quiZRqf8pWF3wKaKKIseb51hkLR3RE/ol4L2L9+/1TpHXVFcksy5gR7XqZDHgxwvolRU2vZePLXPOsiQKN5lHaHGvQSRVHx896RkzmWRT0REm1XzM/qFGfP2QLn8KwAx6yxV0qOKKft2zFhlHYT+m2YyTqEbX4lYu7H/O3Du7DXWIQZCRBar6uHWOerEa05f0yVBDyqqT9R9Pz7Fwnhn6m/WMYaBhX5lrFXIT0fGihf1b3MhIiLaopou9PMpbxTK5esBjLHOUi0CPTWRS3dZ56DNW/rizoeKo++2zjFID1sHGKieonNDc0O5A0CTdZZap5C5FekGL/p4PR+/LsBKHzjLOscwcZ94sPoA7ZC+pgsSC0982ToMERFFQ00v3RfBHNTRXk8R/DLupbPWOWjLfCdqTfgACB6yjjBQk+dPXwnF76xz1IG1fSVnTiUGVpXIfL9Vgq84LZlzX7HOMSyKl6wj1IgeAJeXY6U9El76lDiLfCIiGoSandHvcrNfUCBlnaOKnulr7G2zDkFb1jVtwU6K4hTrHIMXrcJLgYUCHGudo5YJ9LLJ86evrMTYa3fu/sfo7vHrAYyqxPihpvCSOffn1jGGTbACwL7WMSJsA6A5KTb+OL7gpOXWYYiIKJpqckZ/abpjN4V0WueoopLjy3FR2Uddt5r6XAAjrWMMVkNJHrTOMBjPrBpzExR8c1w563yViyo1+CGZTAmCSH3PBeRxBU6zDhEEhdxtnSGSBC9DkZG+xgkJL30Ki3wiIhqOmiv0b8tkGnw4vwCwg3WWqhFc0NKZusc6Bm3Zo1MWNSlkhnWOIXhpv3mt/2cdYjCmLp5aFgdXWueoYR2VXlouQL6S44dQHxzna8mcu946SCBUf28dIWIeA+D2jnx9QiLnnscl+kREFISaW7q/ffe4cxWYbJ2jigprxnWfbx2Ctq537MovATLeOsfg6QPWCYbCKcvCsqNnoZ67ulXGOulr/EmlL6KqfwNkdqWvExqCcxMdrQXrGEFJ5FJLu9zc4wA+YJ0lxNYDusgXnTcp28YVEEREFLiamtHvcrNJhXzLOkcVFVUx7ZBMpmQdhLZMoaKQM6xzDInIfdYRhmJiZ+pJgUT5eLJwEvysGrONqnIrgHKlrxMKimvj2VTFb55Uk0BUFd+0zhFCCsEtqpi6prdpx4SXnsYin4iIKqVmCv3bMpkGhXSgBlcpbIkILk3m3L9b56Cty6ezByOipz+ojyXWGYZKBfOsM9SY1Y1SvqQaF0rm3NeAutin/2xvOZYSiFoHCVoy5/5BILdb5wiJ1QAu98VPJLLup5I5d/EhV0zrsQ5FRES1rWaK4tErxp8GIGmdo4qejb0+8rvWIWjbHN85NaILyLUpVo5soT/i1R0W94xZ9WMIdrbOUgtUcdG+HTNWVe+CuAmCRNWuV329ji9TK3V6QRjEynJcKaZLAIyzzmJD7xRgXs+o9Ysnzzltg3UaIiKqLzUxo/9ga+7/QZGxzlFd2rbfVce/bp2Ctq7Lze4FwVHWOYbokaoWdgHbe/HUPgCXW+eoEa/0lBouruoVY871Vb1etSlOb+lMRfZG2kDsN6/1BceXYwH0WmepopcA/anvlD+Q8NIfi3vpK1nkExGRhZoo9H0HHiJ4bNlQKeRXCS99k3UO2jaFfB8RfZ1pDSy7VSAHgG+yh0vx44MWnLS2mpeMd0zvAvBsNa9ZNYqrEjm3Lm5CtXSm7lHFsQDWWWepFAFWAlioiqNGrBzznoSXPmNSx4wnrHMREVF9i2QB8kb5lDdFoR+3zlEtAqxslPIp1jlo2wptnQkAn7POMVSOIPLN7PqPgbvKOkfEdavBygiBqAiurfZ1K0/vHN3c22qdopqSOfcPji8fBfCidZYALYPiMlUc5ivGJTz3xGTO/UP/SiIiIiJzkd6jf8+pF42U11FT3Yq3xVd8O+61vWSdgwbA989HdI93U9/XyBf6ACDQSxTSiuh+LUwJ9AeJXNrkfHd1nPko+6ehVr52iqdLjaXP7Tl3dj0tZQcAtHSmHsynvEkCZCE42jrPELwK6L0K55YGH3+a2Jl60joQERHR1kT6zVOXm/12/9LouqDAk1B8KJlzi9ZZaOsKbZ0fhe/fYZ1jGP6e8Nx9rUMEpeB6NwL4jHWOCFo2YuWYvSxnKQtp73YoDra6flAEWOn48mEWiEBXOnesqp4P4APWWbagpMATorhfHLlbHbk33j798Vo8HYGIiGpXZGf0H0x37FJW+V/rHNXkQM+J59Is8qNg42x+ZIngNusMgXKc8+D7RyHiNzerTUTOMl+KrNoBSNQL/b6y+MfGO9vqvsgHgHg2da1Cr1vqeocqkALkcACjjeKsBfAEgC6BLvVVlvZt9/rD/91Ar652WxARUQ2IbKHvw7kAwHbWOapFIA+0eKlrgbR1FNqGQjp3GFQ/Zp1jOMqqf7bOEKRER2sh7+ZuFOgx1lmiQiB3x7Mp8z3ya8avuHZ09/hlAN5nnWWIyiLy9UnZttutg4SJQBQebgVwaz7lNTqiHwbwCQX2AeRDAHYHEAvgUn0AVkDwAlRfgMjTUH1aVZ4q+c5TB85r/VcA1yAiIgqdSBb6hRnz9tBy+avWOaqpLOWzuGww/DSTcbq69ULrHMPUIxr9jvtvFfOR8R0cDc7qD4T6qqdbhwCAQzKZUsHNXgDIAussQ+AL9MR41v21dZAw69+Odkf/HwDAbScsHLHDiJ5xJWCXGGLjVHVHCJpE9b9u8KvIaij6fz9q0Qf+JSrPNzr+v/bLsqcNERHVp0gW+iiVz4ZENPsQCOSPnA2KhqXd41IA4tY5hkMgdyZyKZPma5XU0pl6sOB61wP4vHWWsFPIr5O51P3WOTZRlatF8G1snOWNChVoKu6lr7QOEkWHXDGtBxuPV3zWNgkREVE0Re54vaXpjt0gOM46RxX56sjZ1iFo27qmLdgJkAuscwyff5N1gopxnPMA+NYxQq4nJuVvWYd4o2TOLaoiFCsMBkgFOiPupedbByEiIqL6FLlCv6yxswA0WueoosWJjtaHrUPQtmlj8YcKjLXOMVyO79TU/vw36n8t/dw6R5gp5JKWbNuz1jneKplzb4DiRuscAyHQb8S9dNY6BxEREdWvSBX6D6Y7dhHoNOsc1eT48jPrDLRtXW72wxDUwvfmMxM7U49ah6gkVZyDjZ226b+tgOoPrENsiQKzEO6vXUmg0+Neeq51ECIiIqpvkSr0fTgnA2i2zlE9+teWztQS6xS0dfmU1+hDOlEbTd7Mu6xXWjLndqviPOscYSTQWcmc+5p1ji1J5tx/quILAMrWWTbjNYhzGJfrExERURhEptB/atalzao40TpHNYnjXGKdgbbNEU0LsLd1jiBoRJZGD9f2zb2XAVhmnSNMBPKXuJf+jXWObUnm3JsFGrZeGM+q4tBEtvWv1kGIiIiIgAgV+mv7mr4I4J3WOapFgSdb3rX899Y5aOseTHfsopDvWecIyIrEzt33WIeohj3nzu6FyBnWOUKkR+DPtA4xUC3jV5wH6BXWOTbSP5caislkzu2yTkJERES0SWQKfRU52TpDNTnQOZLJsDt4iClUyirzAexgnSUgN9bT91wim7oeUN5MA6CQc1u89FPWOQZKMhk/Pn7FSQqxXCZfEui5y1aO/Z8DLj/5VcMcRERERP8lEoV+oa3zQCgmWeeoold6Rq1nZ/CQK6RyaUAOs84RGJHrrCNUmxQbXQCrrHNYEsjdz6zcYY51jsGSTMZPjF+eEsHPAGhVL654WhUHxb30+VMXTw1jvwAiIiKqc5Eo9FH2Z1hHqLKFk+ectsE6BG1ZYca8PUTwE+scQRHgX2vGLb/VOke1xRectFygp1jnMLRe4E+LarEqmYwfz7rfVMUXUZ1u/H0i+GHDhpETkzn3/ipcj4iIiGhIQl/o3zfr0tEQHGudo5pUcZV1BtqyRVMWxeCXfw5gO+ssgRFcc0gmU7KOYSHupa+s2yX8IqdEacn+liRz7uKYL0kAv6vQJRTQ38d82Seedc/e76rjX6/QdYiIiIgC0WAdYFua+pqmKDDKOkfVKB5O5ty/W8egLdt97OozoZhsnSNIUparrTNYkmKjq42lRwCMsc5SLSL4ZTyb6rTOEZSJnaknARy9JN3xEUfle4AcguEfeamA3qAq5ydzaTbbIyIiosgI/Yy+Qk6wzlBldV1whV2Xm91PoBnrHEFS4MmWztQS6xyW4gtOWg6R4wHUSzPCJ5qdkmsdohImZdvuTnjpT6hiTwjOw9COUXxcoOc64u+e8NKfZ0d9IiIiiprhznZUVGHGvD1QLj+JkOcMkB8Tf9eJ2bYXrYPQf3vouCu3K47acL8Ae1tnCZJCvpv0UrVyROCw5N3cdwR6nnWOClsT82XyxM7Uo9ZBqqXrxPk7a2PxQEAOFMFuqjoakNEAmgTSo9CVALpF5C5B+c6WbNuzxpGJiIiIhiXUS/e17H9d6qfIB4DbWOSHV2nUhmytFfkA/JiUr7QOERaJ8cvP71o+PgHB0dZZKqQsvnypnop8oH/FBnBd/x8iIiKimhfqpfui+iXrDFUl9b1POszyKa8NwNesc1TAzZy9/A/JZHwFjgfwhHWWilB8M96Z+pN1DCIiIiKqrNAW+oW2zn0h2MM6RxWVe4vOjdYh6L8tbc1NEkHkzhkfEJGcdYSwSebc1xzoZwCssM4SJBH8MJFzL7bOQURERESVF9pCX9T/gnWGKntg8vzpK61D0JvlU95439EbATRbZ6mAfy57dQfeXNqMFi/9lAP9GGqk2FfI+fGse7Z1DiIiIiKqjtAW+qr4rHWGalLIrdYZ6M00k3HEwXwA46yzVIJCrpy6eGrZOkdYtXjpp3zxjwGw1jrLsCjmJLzW71jHICIiIqLqCWWhX5gxbw8A+1jnqCYH/l+sM9CbFZaPPweKI6xzVEjZaXDmWYcIu0nZtgfEl88AWG+dZQh8gZ6eyLmnCUStwxARERFR9YSy0NeyX1ez+QDW+ir3Woeg/+hys18QQcY6RwX9Nn759OesQ0RBvDP1N1UcCsHL1lkGYYOITI176YusgxARERFR9YWy0BfRw6wzVNntyZxbtA5BG3W52Q8r5EqE9PURCMdhU7ZBSObc+30pHwggb51lAJYKNBnPpq61DkJERERENkJXyNxz6kUjoTjIOkc1qeIW6wy0UWHGvD1U5LcARlpnqaCuREfrndYhomZSx4xnRqwc8xEILgTQa51nM8oK+dGIlWMOjHvpx6zDEBEREZGdBusAb9W8ftTBAEZY56gmiTkPWGcg4L7pne9CufwXADtZZ6kkVfzMOkNU7b14ah+Acx5Md7SXfecHEBxnnWkj/X3Md06f2Jl60joJEREREdkLXaEPyKHWCarMHyF9j1iHqHe3nbBwRGOs7zcAdrPOUmHdI1eN+Y11iKibmG17EcDxhXTuF1D/TLOfW4qHIXpewktfZ3J9IiIiIgql0BX6CnxKrENUk+KZvdtnrrOOUc8UKl3NuSuA2t8yItBL+melKQCJbOrPAP68tDU3UWN6iio+B2B0hS/bC+hvfNGOSV7b3RW+FhERERFFUKgK/XzK216Afa1zVJOKPGidod51ubmLAHzROkelCbByfbGx3TpHLWrpTD0I4IR8ymtVx/+I4ztHQHAwNh4TOmq44yvwgkD/BHH+tKEvdstBC05aO+zQRERERFSzQlXoAzgAIWwQWFGqD1tHqGcF1/sxgFOsc1SDD7mEBWJl9Z+ecXv/Hyyasij2vp1e+39SLu+tKu8GsKuKjHNEG9SHAwfb//vJCl8Er6mPtRBdK8DjZdHHY73NjyYWnhilo/2IiIiIyFioCn1xMBlqnaK6xJGl1hnqVcHNXgzgG9Y5qmRVqamHR+pV2dTFU8sA/tH/h4iIiIioKsI1e644wDpCtcXKYJdsA11u9jxA6qXIBwQdB86dvcY6BhERERERVV5oCn2FClB3hb6uf9u6561D1Jt8yjtXId+xzlFFa9XHHOsQRERERERUHaEp9Aup3O4AxljnqCrBK5PnnLbBOkY9ybu5s0XwPescVaX4WTLnvmIdg4iIiIiIqiM0hb4Tk72tM1Sdj27rCPWkK+19T6AXWueospc2lBousg5BRERERETVE5pmfFrWD0GsU1SZYLV1hHqQT3mNIligiq9ZZ6k2VWTYaZ+IiIiIqL6EptAXB3trnXXch7LQr7R8yhslotcAcpR1lqpTPA1gnnUMIiIiIiKqrtAs3VfFB60zGFhvHaCW3Tfr0tEi+H1dFvkAIHpe/7nuRERERERUR0JR6Pd33H+/dY6qE5SsI9Sq+6Z3vquxr/l2AIdYZ7EgkAfi41f80joHERERERFVXygK/YfT2Z0AjLLOUW0iKFtnqEVdbnavxph/N4AW6yxG/LKUZ0km41sHISIiIiKi6gtFod8H7GadwYKv0mSdodYU0rkTFFIA8D7rLHZ0/qRs2wPWKYiIiIiIyEYomvGJ70you477AAT6NusMtaK/s/5lUE1ZZzG2WvqazrEOQUREREREdkJR6Dui79E6rPQF8nbrDLXg4bb2MUXFL6A4wjqLNYVckFh44svWOYiIiIiIyE4oCn1VeXcd1vlQ6DjrDFGXT3n7FMu4DoI9rLOEwN+heol1CCIiIiIishWKPfriYKx1BiPvtg4QZfmUN10E97LIBwCUffGn8zg9IiIiIiIKRaGvPsZYZzDytnzKe4d1iKjJp7x3FNzsdSLoBLCddZ4wUMglbMBHRERERERASAp9SN3O6EMcZ1/rDFGy1M0eIw4eA+Rz1llCQ/GP7Zt6vmUdg4iIiIiIwiEUe/QB7GAdwIr6/ocA/NU6R9jddsLCEaObe3/oQ2ajHjs3bpmKyuw9587utQ5CREREREThEI4ZfWC0dQArIphsnSHsutxscnRz3xJAvgGwyH8znRfvTN1inYKIiIiIiMIjLDP6TdYBzAgOVagIRK2jhE0+5b1DgIsU+BpY4G/OE6pyinUIIiIiIiIKl7DM6IflhkP1KXYqpHIt1jHCpuBmPy+CByE4DizyN6fs+HJiMueutw5CREREREThEpYCu9E6gCUBvgigyzpHGORT3gfEQRaKg62zhJlCvtfSmbrHOgcREREREYVPWGb067rQV8GURVMWxaxzWMqnvFGFlPctEeRZ5G9TAao/sA5BREREREThFJYZ/breny7Ae/fYcfVnAVxrnaXaFk1ZFNtjx9VfV9XvAdjFOk8ErFPF15I5t2gdhIiIiIiIwiksM/o91gGsKfQshdbVXvQlbvbI941d9aCqzgeL/AHStmTOfdw6BRERERERhVdYZvTrvtCHYlKX602Fh2uso1TaknTH/o7KDwA51DpLlIhgXjybvto6BxERERERhRtn9MNE5Uf3zbp0tHWMSsmnvE8XXO8WR537WeQP2t97Rr4+2zoEERERERGFX1hm9DdYBwgFwYTG3mYPwJetowTltkymYfvucVMUcgYAHiM4NOtUMXXynNP4OiEiIiIiom0KS6G/0jpAaAi+VEh7DySy7hzrKMORT3nbi4PjtBunKfBe6zwRpoBOT+bS3JdPREREREQDEo5CX/Ey6qoN3TYofppPeS8kc+5i6yiDtSTd8RFHZTqAqVCM4pd1eETwo3g2XfN9G4iIiIiIKDihKPRV5GWp7xP23soRwTWFtLd3IutmrMNsSz7l7QqRGYB+VRTvts5TK0SwuCWb+hbgWkchIiIiIqIICUWh74i+rKzz30qg+G4h5b1fgVnJnPuKdaA3un/mZTs2lpuOgeJYhX4C0GbrTLVEgSednqaUQPjKICIiIiKiQQlFoe/76Bau8d48wZdE8IkuN/tDXyWbzLnrraLkU954AJ8VwbEo4WCFhuL7pwatkZjz2ZYrpq22DkJERERERNETivK6kM4dBtWbrHNEwCsKubLBx4KJnalHK32xrhPn74zG4sEQ+aiv+JgAeyEk3zM1rAToZxJemq8HIiIiIiIaklAUbUvd7J4+5EnrHBHziEJugOpf1/Y13XvIFdN6hjpQPuU1Nqi8tyS6lyP6fh/OXqI6GYI9ggxMA+ImPDdnHYKIiIiIiKIrFIX+o1MWNfWMXbUeQMw6S0T5AF4QyDOq+gwcPAPFy//1KEETfOyoIjs6ojuq6o6ATADwPgCN1Q5Nb6H4cSLnnmUdg4iIiIiIoi0UhT4A5F3vGeF561S3dFF8/IovSybjWychIiIiIqJoc6wDbCKKv1tnILIgkLvX9DZ/nUU+EREREREFITSFPhwstY5AVG0CuTu2fsRhw+mxQERERERE9EbhKfQhD1knIKomBR6U3saj9rvq+NetsxARERERUe0ITaGvvj5snYGoahTP+bHS0S1XTFttHYWIiIiIiGpLaJrxAUDB9ZYDGG+dg6iiFM+VG0of3b995vPWUYiIiIiIqPaEZka/373WAYgqSvCy7/hHscgnIiIiIqJKCVWhr5A7rDMQVYxieawsB03Ktj1iHYWIiIiIiGpXqAr9mI97rDMQVcirInrkxM7Uk9ZBiIiIiIiotoWq0J+4y/ICgJescxAFbIXvlD8S99I8WYKIiIiIiCouVIW+ZDK+CG6xzkEUoFdU8T+TOmY8YR2EiIiIiIjqQ6gKfQDwffzBOgNRQJ5qKDv7J3Nul3UQIiIiIiKqH6Er9J1i418A+NY5iIbpsYayc+h+81r/zzoIERERERHVl9AV+vGFJ74MwV+tcxANwx2qmLzfvNYXrIMQEREREVH9CV2hv5Essk5ANEQ3NawfeWQy575mHYSIiIiIiOpTKAt9p6dxMYBe6xxEg6K4bNnKMUftd9Xxr1tHISIiIiKi+iXWAbakkPJ+C8HR1jmIBkBV8d1kzv2+dRAiIiIiIqJQzugDgC/qWWcgGoANgH6BRT4REREREYVFaAv9deNX3AzgRescRFuxWqCfSXjp66yDcljZvQAABjZJREFUEBERERERbRLaQv+QTKYEwTzrHERbUCjHSvvGvfSt1kGIiIiIiIjeKLSFPgA0lJx5AIrWOYjeRHFjsan30P3bZz5vHYWIiIiIiOitQtuMb5O8m5sn0JOscxABKAv0nBbP/bFA1DoMERERERHR5oR6Rh8AVMoXA2BRRdbWQGRK3Ev/iEU+ERERERGFWegL/UnZtkcA/YN1DqprBVXEE9nU9dZBiIiIiIiItiX0hT4A+KJnA/Ctc1Dd8SE4b8347gOTOXeZdRgiIiIiIqKBCP0e/U0KrncVgK9Z56D6IMC/4MvX4p2pW6yzEBERERERDUYkZvQBwIF+D+zAT9Vxh4h/IIt8IiIiIiKKosjM6ANAIeX9CIIzrXNQzVoH4PS4l+pkwz0iIiIiIoqqyMzoA8CGUsP5UCy3zkG1SO/0nfJ+Cc/NscgnIiIiIqIoi1Shf9CCk9aK6Hesc1BNKUFxwYiVYz85qWPGM9ZhiIiIiIiIhitSS/cBQKHSlc7dDMUnrbNQ1Ol9Md+ZPrEz9ah1EiIiIiIioqA0WAcYLIFowZnXhnL5YQAjrfNQJK0F8M2453IvPhERERER1ZxILd3fJNE+/WmBXmidg6JI74z5kuRefCIiIiIiqlWRm9Hf5OmVY3/wvrErPw3IR62zUCR0q+LsRM69kgU+ERERERHVssjt0X+j+6Z3vqsx5j8IYJx1FgqtdQI9v2fU+ksnzzltg3UYIiIiIiKiSot0oQ8AhXTuKKj+FhHdhkAV9TsHenqLl37KOggREREREVG1RL7QB4C8m/uOQM+zzkGhsdSHnjXJS//FOggREREREVG11UShr1ApuJ3XC/QY6yxkSPEcRL8dH7/il5LJ+NZxiIiIiIiILES2Gd8bCUTvGXXRl5vXb3czgIOs81DVrQDwXQUWJr100ToMERERERGRpZqY0d/koXTHO0u+czcEe1hnoapYDcElTk/TxS1XTFttHYaIiIiIiCgMaqrQB4Albe27ix/7mwDvts5CFcMCn4iIiIiIaAtqrtAHgMKMeXugXL4dwC7WWShQqyC4lAU+ERERERHRltVkoQ8AS93snj7kZgC7WWehYXtWIRePjBXn790+c511GCIiIiIiojCr2UIfAO6fedmO/7+9uwetq4zjOP79n5ukQahNl9QOtQjSLgptqGkFQQsuggji6NJiTaKi4GLXTu5W+pKU2g6idAkWEcG3LPEFTWyzmjpIWwmIJE3Aps295++gQSgqjVIfc+/3s53hwHf9wXOe09Xsfh94uHSL/oHgEzKPDmyd+8Bb9CVJkiTp9rT10AeYGhrdFBXvkjxRukW35Sbke5lxcs/Y8ETpGEmSJElab9p+6AMkGReGR19L4nWgKt2jPzUDHM/k3J6x4WulYyRJkiRpveqIob9qemTsSTJPA/2lWwTAdZLzkXF696nnPw0iSwdJkiRJ0nrXUUMf4KtDp7Z0V/UYwVOlWzpUDUwQ8fZK9/L4vjdfWSwdJEmSJEntpOOG/qrpkbGnyXwD2Fa6pUNMk5xrVPU7u06+cLV0jCRJkiS1q44d+gATB870btywMhzkYWBr6Z42UwNfEIxHozE+cOzQD6WDJEmSJKkTdPTQXzX78tENSyu9z2bmq8ADpXvWsaUkPovID1tV8/zg8ZfmSgdJkiRJUqdx6N9iamj0wah4JjIeT/IhoKd00/9YC5iK4KOM6uPFLVe/3H/kSLN0lCRJkiR1Mof+35gaGr0rqmpfZOvRJB4DBoHewlkl3QhiqobJCCar5e7J3WcPLpSOkiRJkiT9waG/BhMHzvT2da8M1JGDwN4M9gbcV7rrDkmS76PiQl3zbTSqzxevd32z/+zB5dJhkiRJkqS/5tD/l2ZGTvQ3aQxG1ruS2BnEjiR3AH2l29ZgDnI2qb6LyItZc3G52TXzyFvPLZUOkyRJkiStjUP/DpkZOdHfjK6d1K37idhO5naIbcC9/PZLv//uE4DgJ5IfIS8n1ZXIvJwwm1V96cbNnksOekmSJElqHw79Qr5+8dg9DXo2R6vVR1311ZGbieiLyM2ZsTGoGxB3R1ABm259PzMXIPL3x2skCwnzVRXzmfVCZsxHV+PnxV8aVzxuL0mSJEmd41fKdsRdBmWHXgAAAABJRU5ErkJggg==" parent="1" vertex="1">
                    <mxGeometry x="1414.99" y="399.38" width="39.98" height="30" as="geometry"/>
                </mxCell>
                <mxCell id="66" value="" style="shape=image;verticalLabelPosition=bottom;verticalAlign=top;imageAspect=0;aspect=fixed;image=data:image/png,iVBORw0KGgoAAAANSUhEUgAAAggAAAIICAYAAAAL/BZjAAAAAXNSR0IArs4c6QAAIABJREFUeF7t3QeUFUXa//Fn7mQmB5ghIyKomNNrTmsWEXV1zWvAvC6orO4aVll1zQoqBkyomHPOOYuKmMVMhsk5z7ynLqsiDtYNHau+fc57zv/8t7qr6vMU+KNvd3VK7Td79wgHAggggAACCCCwgkAKAYH1gAACCCCAAAIrCxAQWBMIIIAAAggg8DsBAgKLAgEEEEAAAQQICKwBBBBAAAEEENALcAdBb0QLBBBAAAEErBMgIFhXciaMAAIIIICAXoCAoDeiBQIIIIAAAtYJEBCsKzkTRgABBBBAQC9AQNAb0QIBBBBAAAHrBAgI1pWcCSOAAAIIIKAXICDojWiBAAIIIICAdQIEBOtKzoQRQAABBBDQCxAQ9Ea0QAABBBBAwDoBAoJ1JWfCCCCAAAII6AUICHojWiCAAAIIIGCdAAHBupIzYQQQQAABBPQCBAS9ES0QQAABBBCwToCAYF3JmTACCCCAAAJ6AQKC3ogWCCCAAAIIWCdAQLCu5EwYAQQQQAABvQABQW9ECwQQQAABBKwTICBYV3ImjAACCCCAgF6AgKA3ogUCCCCAAALWCRAQrCs5E0YAAQQQQEAvQEDQG9ECAQQQQAAB6wQICNaVnAkjgAACCCCgFyAg6I1ogQACCCCAgHUCBATrSs6EEUAAAQQQ0AsQEPRGtEAAAQQQQMA6AQKCdSVnwggggAACCOgFCAh6I1oggAACCCBgnQABwbqSM2EEEEAAAQT0AgQEvREtEEAAAQQQsE6AgGBdyZkwAggggAACegECgt6IFggggAACCFgnQECwruRMGAEEEEAAAb0AAUFvRAsEEEAAAQSsEyAgWFdyJowAAggggIBegICgN6IFAggggAAC1gkQEKwrORNGAAEEEEBAL0BA0BvRAgEEEEAAAesECAjWlZwJI4AAAgggoBcgIOiNaIEAAggggIB1AgQE60rOhBFAAAEEENALEBD0RrRAAAEEEEDAOgECgnUlZ8IIIIAAAgjoBQgIeiNaIIAAAgggYJ0AAcG6kjNhBBBAAAEE9AIEBL0RLRBAAAEEELBOgIBgXcmZMAIIIIAAAnoBAoLeiBYIIIAAAghYJ0BAsK7kTBgBBBBAAAG9AAFBb0QLBBBAAAEErBMgIFhXciaMAAIIIICAXoCAoDeiBQIIIIAAAtYJEBCsKzkTRgABBBBAQC9AQNAb0QIBBBBAAAHrBAgI1pWcCSOAAAIIIKAXICDojWiBAAIIIICAdQIEBOtKzoQRQAABBBDQCxAQ9Ea0QAABBBBAwDoBAoJ1JWfCCCCAAAII6AUICHojWiCAAAIIIGCdAAHBupIzYQQQQAABBPQCBAS9ES0QQAABBBCwToCAYF3JmTACCCCAAAJ6AQKC3ogWCCCAAAIIWCdAQLCu5EwYAQQQQAABvQABQW9ECwQQQAABBKwTICBYV3ImjAACCCCAgF6AgKA3ogUCCCCAAALWCRAQrCs5E0YAAQQQQEAvQEDQG9ECAQQQQAAB6wQICNaVnAkjgAACCCCgFyAg6I1ogQACCCCAgHUCBATrSs6EEUAAAQQQ0AsQEPRGtEAAAQQQQMA6AQKCdSVnwggggAACCOgFCAh6I1oggAACCCBgnQABwbqSM2EEEEAAAQT0AgQEvREtEEAAAQQQsE6AgGBdyZkwAggggAACegECgt6IFggggAACCFgnQECwruRMGAEEEEAAAb0AAUFvRAsEEEAAAQSsEyAgWFdyJowAAggggIBegICgN6IFAggggAAC1gkQEKwrORNGAAEEEEBAL0BA0BvRAgEEEEAAAesECAjWlZwJI4AAAgggoBcgIOiNaIEAAggggIB1AgQE60rOhBFAAAEEENALEBD0RrRAAAEEEEDAOgECgnUlZ8IIIIAAAgjoBQgIeiNaIIAAAgggYJ0AAcG6kjNhBBBAAAEE9AIEBL0RLRBAAAEEELBOgIBgXcmZMAIIIIAAAnoBAoLeiBYIIIAAAghYJ0BAsK7kTBgBBBBAAAG9AAFBb0QLBBBAAAEErBMgIFhXciaMAAIIIICAXoCAoDeiBQIIIIAAAtYJEBCsKzkTRgABBBBAQC9AQNAb0QIBBBBAAAHrBAgI1pWcCSOAAAIIIKAXICDojWiBAAIIIICAdQIEBOtKzoQRQAABBBDQCxAQ9Ea0QAABBBBAwDoBAoJ1JWfCCCCAAAII6AUICHojWiCAAAIIIGCdAAHBupIzYQQQQAABBPQCBAS9ES0QQAABBBCwToCAYF3JmTACCCCAAAJ6AQKC3ogWCCCAAAIIWCdAQLCu5EwYAQQQQAABvQABQW9ECwQQQAABBKwTICBYV3ImjAACCCCAgF6AgKA3ogUCCCCAAALWCRAQrCs5E0YAAQQQQEAvQEDQG9ECAQQQQAAB6wQICNaVnAkjgAACCCCgFyAg6I1ogQACCCCAgHUCBATrSs6EEUAAAQQQ0AsQEPRGtEAAAQQQQMA6AQKCdSVnwggggAACCOgFCAh6I1oggAACCCBgnQABwbqSM2EEEEAAAQT0AgQEvREtEEAAAQQQsE6AgGBdyZkwAggggAACegECgt6IFggggAACCFgnQECwruRMGAEEEEAAAb0AAUFvRAsEEEAAAQSsEyAgWFdyJowAAggggIBegICgN6IFAggggAAC1gkQEKwrORNGAAEEEEBAL0BA0BvRAgEEEEAAAesECAjWlZwJI4AAAgggoBcgIOiNaIEAAggggIB1AgQE60rOhBFAAAEEENALEBD0RrRAAAEEEEDAOgECgnUlZ8IIIIAAAgjoBQgIeiNaIIAAAgggYJ0AAcG6kjNhBBBAAAEE9AIEBL0RLRBAAAEEELBOgIBgXcmZMAIIIIAAAnoBAoLeiBYIIIAAAghYJ0BAsK7kTBgBBBBAAAG9AAFBb0QLBBBAAAEErBMgIFhXciaMAAIIIICAXoCAoDeiBQIIIIAAAtYJEBCsKzkTRgABBBBAQC9AQNAb0QIBBBBAAAHrBAgI1pWcCSOAAAIIIKAXICDojWiBAAIIIICAdQIEBOtKzoQRQAABBBDQCxAQ9Ea0QAABBBBAwDoBAoJ1JWfCCCCAAAII6AUICHojWiCAAAIIIGCdAAHBupIzYQQQQAABBPQCBAS9ES0QQAABBBCwToCAYF3JmTACCCCAAAJ6AQKC3ogWCCCAAAIIWCdAQLCu5EwYAQQQQAABvQABQW9ECwQQQAABBKwTICBYV3ImjAACCCCAgF6AgKA3ogUCCCCAAALWCRAQrCs5E0YAAQQQQEAvQEDQG9ECAQQQQAAB6wQICNaVnAkjgAACCCCgFyAg6I1ogQACCCCAgHUCBATrSs6EEUAAAQQQ0AsQEPRGtEAAAQQQQMA6AQKCdSVnwggggAACCOgFCAh6I1oggAACCCBgnQABwbqSM2EEEEAAAQT0AgQEvREtEEAAAQQQsE6AgGBdyZkwAggggAACegECgt6IFggggAACCFgnQECwruRMGAEEEEAAAb0AAUFvRAsEEEAAAQSsEyAgWFdyJowAAggggIBegICgN6IFAggggAAC1gkQEKwrORNGAAEEEEBAL0BA0BvRAgEEEEAAAesECAjWlZwJI4AAAgggoBcgIOiNaIEAAggggIB1AgQE60rOhBFAAAEEENALEBD0RrRAAAEEEEDAOgECgnUlZ8IIIIAAAgjoBQgIeiNaIIAAAgggYJ0AAcG6kjNhBBBAAAEE9AIEBL0RLRBAAAEEELBOgIBgXcmZMAIIIIAAAnoBAoLeiBYIIIAAAghYJ0BAsK7kTBgBBBBAAAG9AAFBb0QLBBBAAAEErBMgIFhXciaMAAIIIICAXoCAoDeiBQIIIIAAAtYJEBCsKzkTRgABBBBAQC9AQNAb0QIBBBBAAAHrBAgI1pWcCSOAAAIIIKAXICDojWiBAAIIIICAdQIEBOtKzoQRQAABBBDQCxAQ9Ea0QAABBBBAwDoBAoJ1JWfCCCCAAAII6AUICHojWiCAAAIIIGCdAAHBupIzYQQQQAABBPQCBAS9ES0QQAABBBCwToCAYF3JmTACCCCAAAJ6AQKC3ogWCCCAAAIIWCdAQLCu5EwYAQQQQAABvQABQW9ECwQQQAABBKwTICBYV3ImjAACCCCAgF6AgKA3ogUCCCCAAALWCRAQrCs5E0YAAQQQQEAvQEDQG9ECAQQQQAAB6wQICNaVnAkjgAACCCCgFyAg6I1ogQACCCCAgHUCBATrSs6EEUAAAQQQ0AsQEPRGtEAAAQQQQMA6AQKCdSVnwggggAACCOgFCAh6I1oggAACCCBgnQABwbqSM2EEEEAAAQT0AgQEvREtEEAAAQQQsE6AgGBdyZkwAggggAACegECgt6IFggggAACCFgnQECwruRMGAEEEEAAAb0AAUFvRAsEEEAAAQSsEyAgWFdyJowAAggggIBegICgN6IFAggggAAC1gkQEKwrORNGAAEEEEBAL0BA0BvRAgEEEEAAAesECAjWlZwJI4AAAgggoBcgIOiNaIEAAghYLdDVLdLT3SNpaSlWO9g2eQKCbRVnvgggYL1AZXWXPPRMvXz9Xbv09Og5enp6RDWLpMQeEAoLIjLmT7my3lpZkk6w0CMHsAUBIYBFYUgIIICAUwJffNMml1xXJRXVnb9cUoWCjs4e6e52qpffX0dlCXXHITXy2/9t0/Wz5cTDiqSsb5p7nXNlRwQICI4wchEE3BNQf5EvXvrrX+7u9eTelYsLUyU3Z6X/UrjXnXVXbmrulqqarui8v/yuTW5/oE6WVIRjzYwYliHHHVIkfYtTo+Mf2D/9d6HCuoIGZMIEhIAUgmEgsCqBBYs75PBTFoUa6NRjSqK3mzmcE1ChYPbnrdLa1iOfzW2Tx59vcO7iPl5pwlHFktMnIiWFqbLmiAzJziJY+lUOAoJf8vSLQIwCBIQYoSxp9vYHzTL78zapb+yStz5okeYWF38n8NG0rDRNNlwnS3KyIzJmp1wZOjDdx9HY2TUBwc66M+sQCRAQQlQsl4aqfmZ66c0meeaVRllc0SnqIUObjmGD0iUvRwWFPNl5mxybpu7rXAkIvvLTOQJ6AQKC3sjkFn87e7F8O69DurpEurpieOXAYIzU1BRJSxU5+++lstUmfQyeaTCmRkAIRh0YBQKrFCAg2LU42jt6ZNHSTrnzoTp55Z0muyYfx2yzs1LkoLEF8qetcqS0OFXS02N/BTOObqxuSkCwuvxMPgwCBIQwVMmZMb7wRlP07YPb7q915oIWXKW8b1r0Adht/6+PDOrPcwpOlpyA4KQm10LABQECgguoAbvkrDkt8sEnrfLg0/UxbVwUsOEHYjgbrZMl66+dJYftWxCI8ZgwCAKCCVVkDkYLEBDMLW+nevjw7Sa57b5aqajuIhwkWeqM9BRZY7UMGbdrXvSnB47kBAgIyflxNgKuCxAQXCf2rYNdDp0n3d3u7mjo2+R87DgSETli/0I5aGy+qAcbORITICAk5sZZCHgmQEDwjNqTjtSOh+p1xRkP1rq61bEnkwlBJzOuHCADy9IICgnUioCQABqnIOClAAHBS233+lLfP5i/qEOumVEtH37a6l5HXPk3AgV5ETl8vwLZaN1sNluKc20QEOIEozkCXgsQELwWd6e/m+6pkc/ntsknX7a50wFXXaWA+nDUOqMy5fTjS2VgOR+JinWpEBBilaIdAj4JEBB8gnew24mTl4r6qqJ6KJHDPwG1XfMNF5VLZgbfd4ilCgSEWJRog4CPAgQEH/Ed6PqUyUtlzpf8pOAApSOXUJ+fvvSsMtlwdJYj1zP5IgQEk6vL3IwQICCEr4zqeYOaui657s4aefktdkMMWgXV65C775AbfdNBPaPA0bsAAYGVgUDABQgIAS9QL8P76rs2uefRenljVnP4Bm/JiCMpIjtsmSMnHl4kRQWplsw6vmkSEOLzojUCngsQEDwnT6rD92a3yO0P1spX37UndR1O9kZg6037yL8nlkoa+yX8DpyA4M0apBcEEhYgICRM5/mJ785ulqm31sjSik7P+6bDxAVGDs+QG/7bP/ELGHomAcHQwjItcwQICOGo5Xc/tcuF11TKjws6wjFgRvkbgWGD0+XWywagsoIAAYHlgEDABQgIAS+QiKjdEa++rVreeJ9nDoJfrVWPcJvN+sikY0skL5cHF5USASHMq5mxWyFAQAh2mZuau+X6O2vk6Vcagz1QRqcVyMxIkUP3KZA/75kv6v9t+0FAsH0FMP/ACxAQgl2i/0ytlFff4VXGYFcp9tH175cm553SN/pVSNsPAoLtK4D5B16AgBDcEk04b4l8+hVbJwe3QomNTG3HfNsVA6x/s4GAkNj64SwEPBMgIHhGHVdHb81qlvOvrpT2DrZPjgsuRI1fumeoqO842HoQEGytPPMOjQABIXilqqjqknOuWCZzv2evg+BVx7kRDRmQLlMnl1u72yIBwbm1xJUQcEWAgOAKa8IXXVbZKVNvrZZ3PmpJ+BqcGA6BrMwUOWSfAjlkXEE4BuzwKAkIDoNyOQScFiAgOC2a3PXUq4wXXFMpHfy0kBxkSM4e1D9dTh1fLBtY+HEnAkJIFinDtFeAgBCc2i+r6pSJ5y2VJeyUGJyieDCSvsWpcvG/ymS1weke9BacLggIwakFI0GgVwECQnAWxrQ7auShp+uDMyBG4pnAP44vkd22y7XqoUUCgmfLi44QSEyAgJCYm9Nnzf2hXY7/12KnL8v1QiRwzX/KZfTIzBCNOLmhEhCS8+NsBFwXICC4ThxTB+PGz5f6xu6Y2tLIXIFHbxos+Xl2bMVMQDB3HTMzQwQICP4X8r4n6uWW+2qls5M9D/yvhr8j2Ge3PDn5iGJ/B+FR7wQEj6DpBoFEBQgIico5d96kC5fKR5+2OndBrhRagYyMFDlobL789c+FoZ1DrAMnIMQqRTsEfBIgIPgE/79up99dI/c+zoOJ/lYhWL3vtn1u9KuPEcN/aSAgBGvdMRoEfidgREAYXyJjdsoNXXXVMwfTbq+WF97gY0yhK57LAz7qgEL5y9h8SU8zdy9mAoLLi4jLI5CsgBEB4ZgSGfOn8AWE199rlslTKqSHRw+SXcbGnT+of5pc+I9+MniAuXsjEBCMW7ZMyDQBAoI/FW1r75G7HqmTmY/U+TMAeg2swMjVMkT9zLDDljlGf6eBgBDYJcjAEFguQEDwZyWoby6MP2OxNDbxaqM/FQhmr+oDTpee1U9KitIklWcQglkkRoWALQImBIRTxpfIXiF7BmHewg454rRFtiwz5qkRSE9PkTuuHCBlfdOsseIOgjWlZqJhFTAhIJwawmcQdj1snnUfZCouTJX+/dIkEsdzd909IkuWdUpVbVdY/4j94bgL81NFPW9w2jElMnSQuc8b9IZAQDBySTMpkwRMCAhhvIOw44E/mbSMVjmXYYPTZeN1sqPfGFDbCG+1SbakxfFkfldXj7z1QYt8+lXbLz+JvfexGZ/CVoHp+EOLZMetcuIKTaYsHAKCKZVkHsYKEBC8L+21t1fLw880eN+xhz1uun627LxNjgwoS5O113Du+wJLKzrl06/boncVHn+hQSprwnln4YwTSqSoIFU22yDbw6oEqysCQrDqwWgQ+J0AAcH7RbHPMfOlrsHMhxMz0lNk+sX9JS83Ev0PoFtHe0ePVFZ3yTc/tMsVN1WF5mHPgryIqJ/Ett60j1VfbuQnBrf+JHBdBFwUICC4iNvLpbu7RfY5dr40GPZhJvWQ3WnHFMsu2/qzH8V/r60Uta+ECg5BPNTPKrttlxMNBxzLBbiDwEpAIOACBARvC/TkSw1y7YyawP6HLBGN0uJU+cdxJaJ+VvDz+OKbNrliepUsXNIZKN9118yUPXfMk122zfGTJ3B9ExACVxIGhMBvBQgI3q6I0/+7VD74xJwPM/UrSZW/HVEcvWUehEO9PqruJNzzeJ20tPp7N2G1wemy3ppZctIRRZKWGserG0GA9GAMBAQPkOkCgWQECAjJ6MV/rkkBITVV5JJ/lclG62TFD+HyGW/OapZ/X1Hhci+rvvw6ozLlhMOKZMSwDKO/p5AMMAEhGT3ORcADAQKCB8j/66KuoUvOubxCPvt6+St7YT/umDJQBpUHd2Mf9WrkhPOWeM58/YXl0rckTdRrjByrFiAgsDoQCLiAGQGhWPbaKS/g0iK33V8b/f6C2vwnzId64O7Gi/qLuoUe9EPtmaDuJHS4/PCiensjOytF7rl2kGRl8nNCLOuCgBCLEm0Q8FGAgOAd/s331srdj4b/40wH710gh+5bEJr/ED73WqNcf2eNqM9rO32oXSH7labJcYcUyXabB+M5DKfn6Nb1CAhuyXJdBBwSMCMghONbDCYEBPWbutoWeNTqGQ6tQG8u88yrjXLNbdXS2ubs7ZuDxxXIBmtlySbrB+85DG9kE++FgJC4HWci4IkAAcET5mgnJgSEvXfJkwlHFXuH5mBPT7/cIJdPr3bkihuOzpLdd8iVnbbm1cVEQQkIicpxHgIeCZgREIL/DEJTc3f0NvfTrzR6VFnnuxk8IF0mn1oqwwaF6+7BzxLquw5/OWmhVCf54aeDxubL/mPypSAv1frdEJNZZQSEZPQ4FwEPBAgIHiCLRN9cuGhapSxe1ulNhy70staITJl2QbkLV/buklU1XXLYxIUJ/dSgHsq85Mx+UloU3Dc3vJNMvicCQvKGXAEBVwUICK7y/nLxN95vlnOv9O+9/GRnqZ7L32HLHDn776XJXsr382d/3irnX10ptXWxfehJPXeRnxeRy88q833sJg2AgGBSNZmLkQIEBG/KGvaAEImI3Hb5AFE/M4T9aG7plhtm1siTL/3xzz1qzhuMzpIJRxYbMe+g1Y2AELSKMB4EVhIgIHizJMIeENSuiS/cNdQbLA96+WF+R/Qnn29/bO+1t8L8VDllfLEMH5IhAwO8GZQHVK51QUBwjZYLI+CMAAHBGUfdVQgIOiHv//cHn66Xm++p/d2HnUaPzJB/T+gnfUvYCdHNqhAQ3NTl2gg4IEBAcAAxhksQEGJA8qHJ4acsEvVnQP2ckJUZkQsm9Y3+rMDhvgABwX1jekAgKQECQlJ8MZ9MQIiZyvOGux0+T3beOkf22z1Phg0O5yucnqM50CEBwQFELoGAmwIEBDd1f702AcEb50R6ue+JevnLXvmJnMo5SQgQEJLA41QEvBAgIHihLEJA8MaZXsIjQEAIT60YqaUCBARvCk9A8MaZXsIjQEAIT60YqaUCBARvCk9A8MaZXsIjQEAIT60YqaUCJgSEiUcXy9id8wJdQQJCoMvD4HwQICD4gE6XCMQjYEJAUBva7LUTASGeusfb1rSNkuKdP+2dFyAgOG/KFRFwVICA4CjnKi8W9jsIkRSRU48tkT12yPUGjF6MFyAgGF9iJhh2AQKCNxUMe0BQSuuumSlTzwv31xy9qTa9xCJAQIhFiTYI+ChAQPAG34SAMGr1DLnmP+WSlqq+7ciBQHICBITk/DgbAdcFTAgIE48ukbE7B/vW95uzln/uuafH9ZK61kFxYar8/ahi2XazPq71wYXtESAg2FNrZhpSAQKCN4X75KtW+e+1VbKsstObDl3qRb0tMuGoYknhJoJLwvZcloBgT62ZaUgFCAjeFK6uoUum3V4jL77Z5E2HLvVS1jdNJh1bIhuvyweNXCK25rIEBGtKzUTDKkBA8KZy6qeFm++tlXseq/OmQxd72WnrHPnbX4slPy/iYi9c2nQBAoLpFWZ+oRcgIHhXQhUQ7n40/AFBiV1+dplstA53EbxbPeb1REAwr6bMyDABAoJ3BTUpICi1C0/vJ1tslO0dID0ZJUBAMKqcTMZEAQKCd1U1LSBEIiJnnVwqO2yR4x0iPRkjQEAwppRMxFQBAoJ3lX3prSa57o4aqanr8q5Tl3sqK02TYw8pJCS47Gzi5QkIJlaVORklQEDwrpwdnT3yz4uXyezPWr3r1OWe1OuOOX0iMum4EvZHcNnatMsTEEyrKPMxToCA4G1JT//vUvngE3MCwop6V5xdJhvy4KK3CyrEvREQQlw8hm6HAAHB2zqbHBCU5PmT+srg/ukyZGC6t7D0FjoBAkLoSsaAbRMgIHhb8fueqJdb76sV9XODiYf6yWGdUZly8N4F8n8b8oaDiTV2ak4EBKckuQ4CLgkQEFyCXcVlm5q75aCTF0pjU7e3HXvcW3nfNNlgdJYcc1ChFBWketw73YVBgIAQhioxRqsFCAjel3/v8fOlodHsgKBU1WuQuX0iMuPKAVKYT0jwfqUFu0cCQrDrw+gQEAKC94tg/OmL5ft57d537GOPa43IlH9PLJWCvFTJyuRLTz6WIjBdExACUwoGgkDvAgQE71dGV3eP7HzwPO87DkCPf94jX9ZdM1O24ZPRAaiGv0MgIPjrT+8IaAUICFoiVxrseOBPrlw3LBc9eFyBDOiXJnvsmBuWITNOhwUICA6DcjkEnBYgIDgtGtv1Hn62Qa6dUR1bY0Nb5eVGZNTwDDlkXIGsvzYffjK0zKucFgHBtooz39AJEBD8KdmipZ1y6ISF/nQesF6zs1IkLS1FHrpxkKSl8nxCwMrj2nAICK7RcmEEnBEgIDjjGO9VKqq65Lh/LZbaenO+yxCvQW/thw5Kl5OPKJYhA9KluDA1+iYEh5kCBAQz68qsDBIgIPhXzNfebZbJUyr8G0CAe1YfgTp03wIpzI/IVpv0CfBIGVqiAgSEROU4DwGPBAgIHkH30s0X37TJpddXybxFHf4NIuA9Z6SnyL6758k6o7Lk/zbIklR+ggh4xWIfHgEhditaIuCLAAHBF/Zop+3tPXLDzBp59PkG/wYRkp77laTJwPK06DbORx5QGJJRM8w/EiAgsD4QCLgAAcHfAj3ybL3ccl+tNLeY+W0Gp3XVQ4xqo6WN182Sc0/p6/TluZ6HAgQED7HpCoFEBAgIiag5e84ZFy2lc0YpAAAgAElEQVSTWXNanL2oJVc75qAi2XqzbMnLibCdc8hqTkAIWcEYrn0CZgSEYhm7c15oi6fuItww09wvPHpRmE3Xz5Ldts+VYYMyZLXBfGraC/Nk+yAgJCvI+Qi4LEBAcBk4xsurVx6/+cGu7zPESBNXs9EjM6PPKRy0d4Hk5/KOZFx4HjcmIHgMTncIxCtAQIhXzJ3238/rkPGnL3Ln4hZede01MqMB4cC9C2S9NTMtFAj+lAkIwa8RI7RcgIAQnAXw9MuNcvn0quAMKOQjUXsyZmSkSG5ORM4+uZTtnANWTwJCwArCcBBYWYCAEJw1sbSyU/529hKpqmV3RbeqcsdVAyQ7KyIlRaludcF1YxQgIMQIRTME/BIgIPgl33u/b85qlguvqZS2dl57dKsyI4dnyP575svoNTKlrG+apPD5B7eo//C6BARf2OkUgdgFCAixW3nRUt1FuPrWannnI157dNt7s/WzZcjAdBm3a54MKEtzuzuuv5IAAYElgUDABQgIwSvQ4qWdcu5VFfLtj7zV4EV1Vh+aIWuuniEHji2I7tbI4Y0AAcEbZ3pBIGEBAkLCdK6e+OSLDXLNjBrp6OSnBleh/3fxSIpIenqK7LVTrow/qEjUNyA43BUgILjry9URSFqAgJA0oWsXOOGsxfL1d9xFcA34Dy78tyOKZOtN+kQfZuQDUe5UgIDgjitXRcAxAQKCY5SuXOjsy5bJ2x/yPIIruJqLDhuUHt2hc+tN+0hpMW89OF0DAoLTolwPAYcFCAgOgzp8ubqGbrnshkpCgsOu8Vxuq02ypbxvupz016J4TqOtRoCAwBJBIOACJgSECUcXy94h/hbDHy2Rnh6R9z5ukStvqpLKavZH8POP07qjMmXDdbLkiP353LQTdSAgOKHINRBwUcCEgDDx6HB/rElX3u4ekel31cgDT9WLCgwc/glEIhJ9JfKcCX1ljWEZ/g3EgJ4JCAYUkSmYLUBACE99L7m+Sp5/vZGQEJCS/ee0vrLa4AxejUywHgSEBOE4DQGvBAgIXkk704/6qeHJlxqduRhXSVqguDBVTjysSNYckclmS3FqEhDiBKM5Al4LEBC8Fk++v1vurZW7Hq1L/kJcwREBtX/C+mtlyoSjimVgeboj17ThIgQEG6rMHEMtYEJAMPkhxd4Wl/pOwz2P1ckdDxESgvSHb9jgdMnPiciU88qDNKzAjoWAENjSMDAElgsQEMK5EtSDi9Nur5ZHnm0I5wQMHvXwIely48X9JVVtz8ixSgECAosDgYALEBACXiDN8KbcXCWvvNssDY3d4Z6IYaNPTZXotx0OGVcgWZkEhd7KS0AwbNEzHfMECAjhr+kzrzbKa+82y/sfs+Ni0Kp58LgC2e7/+sgaq/FK5Mq1ISAEbbUyHgRWEiAgmLEkKqs75eZ7auX5N5rMmJBBsxg1PEO22rSPHLpPgUGzSn4qBITkDbkCAq4KEBBc5fX04mpb5qm3Vsmr7zR72i+d6QUyM1LkoL0L5PD9CAk/axEQ9OuGFgj4KkBA8JXf8c67u0Wm3lYlT77IhkqO4yZ5wZQUid5FUD87qMBg+0FAsH0FMP/ACxgREI4qlr13yQu8tZcD7OrukaMmLZb5izq87Ja+YhAY1D9Nzj65r4wcbvdzCQSEGBYLTRDwU4CA4Ke+u31XVHfJdXdUy6dftUl1LR96clc7/qtPPrWvbLNZn/hPNOQMAoIhhWQa5goYERAM/ppjsiuvsalb5nzZKtNur5ElFZ3JXo7zHRTIz43IiYcXyy7b5jh41fBcioAQnloxUksFjAgI/MSgXb0/LeyQx55vkEefY2MlLZaHDQryIjLx6BLZbnP77iQQEDxcaHSFQCICRgQE7iDEXPpvf2yXY/+5OOb2NPRGYNoF5bLWiExvOgtILwSEgBSCYSCwKgEjAgJ3EOJa4C2t3XL3o/XyyHMN0tzCDoxx4bnY+LoL+8uaq9vz4CIBwcXFxKURcEKAgOCEYjiv8dAz9fLTgg4+Hx2g8p13al/Z1pIHFwkIAVp4DAWB3gQICKyLJ15skDlftMnLb7MLo9+rIT8vIiceZseDiwQEv1cb/SOgESAgsESUQG19l7zzUYvccm8tr0T6vCRUSDjFggcXCQg+LzS6R0AnQEDQCdn3v5916TJ5d3aL9PTYN/egzFjtszjN8GcSCAhBWW2MA4FVCBAQWBq9CSxc0hn9rsN3P3VE7y4QFrxfJ+uOypSrziuXiKG7MhMQvF9T9IhAXAIEhLi4rGv82nvNMufzVnnu9UZpaeWWgtcL4OQjimWf3czcRpyA4PVqoj8E4hQgIMQJZmlz9QDjgsWdot58aGjk1Ugvl8GRBxTKYfua9xVIAoKXq4i+EEhAgICQAJqlp7R39MiipZ3y5vvNct+T9dLUTFDwYikUFqTK348sku03N2tLZgKCF6uHPhBIQoCAkASe5ae+/3GLnHXZMunpFunm1wdXV8OeO+bKqceUiPpktCkHAcGUSjIPYwUICMaW1rOJvfJOkzz4VIN8P69d2tpJCm7BH/WXQvnLmHxJTzcjJRAQ3FopXBcBhwQICA5BchmZ+UidVFZ3yXsft8hSvhzp+IroV5oql/6rTIYMTHf82n5ckIDghzp9IhCHAAEhDiyaagXUTw2zP2uVRUs75KmXG2Xu9+3ac2gQu8CWG2fLBf/oF/sJAW5JQAhwcRgaAkqAgMA6cENABYWKyk5paumW8afz9UgnjV+8e4hEDNgcgYDg5KrgWgi4IEBAcAGVS/5OYN7CDrloWqV8N69Durp62HgpiTWiHlR88e6hoX9gkYCQxCLgVAS8EDAhIPz9qBIZt0uuF1z0kaSAejXyshurpKKqS778ti3Jq9l7+iX/6iebrp8dagACQqjLx+BtECAg2FDl4M1R7akw/a4aWbysUz7+opVdGuMs0RrDMuTqyeWSmRneNxoICHEWneYIeC1AQPBanP5WFFhW1Slfftsefevhhpk14MQokJsTkWMOKpS9dgrvNswEhBiLTTME/BIgIPglT78rCnR29siCJZ3yxTdtcvmNVeDEIDB25zyZeHRxDC2D2YSAEMy6MCoEfhEgILAYgigw5ZYqeeGNJlE/RXR1BXGEwRjTpGNLZI8dw/n8DQEhGGuIUSCwSgECAosjyAKPPtcgL77ZJEsrO6WqhqSwcq0O369ADtq7QDIzwvcsAgEhyH/yGBsChuyDwFsMZi/ljo4eeXd2i8z5slWefbVJmlv4SNTPFVfPIqiHFYcNCt/uigQEs//cMjsDBLiDYEARLZmC+srDW7Oapbq2S6bcUm3JrPXTnH5xfxkxLEPfMGAtCAgBKwjDQWBlAQICayJsAl3dIgsXd8jjLzbIw880hG34jo+3f780uevqgY5f1+0LEhDcFub6CCQpQEBIEpDTfRc4/JRFUlHdKW1t9n5J8uV7h/peh3gHQECIV4z2CHgsYEZAKJZxu4T3fXCPS25kdw1N3XLO5RXR/RTUA422Heo5hHVGZYZq2gSEUJWLwdooQECwsepmzrmnR2TWnBZ54sUGef/jVunotOeOQlZmijx9+5BQFZaAEKpyMVgbBYwICEcWy7hduYNg4/rtbc6V1V3y+dw2mTylwhqS1FSRF+4K188MBARrlicTDasAASGslWPcOgG1tj/8tFWm3mr+Gw+RiMgtlw2QoQPD87ojAUG3gvnfEfBZgIDgcwHo3nWBux+tk7serZPWNrM/M73WiEyZdkG5655OdUBAcEqS6yDgkgABwSVYLhsoAfXw4jUzquXtD1sCNS4nB0NAcFKTayGAgBAQWAQ2CVx1c3X0IUYTDwKCiVVlTgj4KEBA8BGfrj0XaGvvkdvur5X7n6z3vG+3Oyzrmyb/PKFE1l87y+2uHLk+PzE4wshFEHBPgIDgni1XDqaAehbhxrtq5LHnzbqToB5U3G/3fDnhsKJgwq80KgJCKMrEIG0WICDYXH275z75qgp5/f1mUfsnmHLsvUueTDiqOBTTISCEokwM0mYBAoLN1Wfu515ZIW+832wMBAHBmFIyEQT8FyAg+F8DRuCfgLp7MObIedLSasZtBAKCf2uJnhEwToCAYFxJmVCcAs++2iiX3lAV51nBbL7d5n1k4tHFUpCXGswBrjAqfmIIfIkYoO0CBATbVwDzV2823PFQrdzzWPjfbOhXkiqTjiuRTdbLDnxhCQiBLxEDtF2AgGD7CmD+SuCtD5pl8lWV0tkV/p8aTj++RHbbPjfwhSUgBL5EDNB2AQKC7SuA+SsB9YEntdOiCQ8sEhBY0wgg4IgAAcERRi5igMDN99aK+m5D2A8CQtgryPgRCIiACQFBvfetnt7mQCAZAfXlxytvqpLFyzqTuYzv5xIQfC8BA0DADAETAsKpxxTLmD8REMxYkf7NQj1/8M+LlslHn7X6NwgHeiYgOIDIJRBAQIz4WNNZJ5fKn7bKsbacjc3d8sO8DrnviTr5x/EloXjFLajFOv2/S+WDTwgIXtSHhxS9UKYPBJIQMOEOwqVn9gvFa11JlKnXU9s7emTu9+0y5ZZq+X5ee7SN+qnl6AMLJbdPxOnurLgeAcG7MhMQvLOmJwQSEjAhIMy4YoAMGZie0PzDetIP8zvkhTca5YU3mqSqpuuXaaRGRKaeVy5rj8wM69R8HfdVN1fJUy83Sne3r8NIqnN+YkiKj5MRQOBnARMCwrN3DJGMjBRrinrO5RVSUd0ZvXvQ27HemplyxTllkppqj4lTxX/nw2Y5/+pKUV98DOtBQAhr5Rh3aASefqVR8nIiss1mfUIz5kQG+tasZjnniopETg3MOS/fOzQwY3FzII+90CD3PV4vSyr0T9kP6p8md1w10M3hGHlttR/CkZMWSVNzeG8hEBCMXJpMym+Bzs4eqartkmPPWCwNTcv/gjD99vX5UyvklXfC/TU7kwNCV7dIdU2X3PZArahvBsRzPHD9ICkpCv6e/PHMye22NXXd8tdTFop68DOsBwEhrJVj3IEV+O6ndnl/TovcdHftb8Z4yvhi2Wsnc1+h2/ngn0T9RyjMh6kBQb1ut2hpZ/Td/ESO8r5pcv6kvrL60IxETrfynLnft8mp5y+T5pbw/qEgIFi5dJm0GwLqluKzrzXKa+82iwoJvR3P3D5EMjPN/D13xwN/coPV02uaFhDUmnxzVrPcfG+NNLck91v4hqOz5LRjS2RAWZqnNQlrZw89XS/T76mVjo7k3P2cPwHBT336NkZg8bIOufi6Kvns6zZR34Vf1bHVJtly/qR+xsx7xYkQEIJV1k+/aosGg29/bJeW1uT/I5WVmSJ/P7I4FB/vCUIlzr2yIhrO/ujvgyCM84/GQEAIeoUYX+AFJl2wNPrueG29/laiehr82IMLZf898wM/r3gHSECIV8y99vufsEDa23t+ef7FqZ5y+kTkyn+XyRrD+KlBZ8o+CDoh5/539kFwzpIrOSCgbhs+93qj3HRPrTQ06oPBil2uvUamXHJmP8nJNmcDGvX79qETFjog6+8lwvoTg/pXalNLt9xwZ030Zy63372/d9pA6VfCTw1/+K9vdlL07A8zAcEzajrSCbz9YXP0tu2MBxL/Wtt+u+fLiYcXSYohjyP85cQFUlH96yY7OsOg/u9hDAjqPft3P2qWZ15tlFlzvNva9+rJ5bLOKDZR6m0tz1/UIRdcXSnf/Nj7s0hBXf8rj4ufGMJSKcbpu4D6TXfOl61y632/fTshkYGNWj1DTjumREYYcqt2zJHzQ/20tqrhiGHpMv3iAYmU07dz7n28TipruuThZxo8H8PgAely5kmlotYyx28Fbru/VmY+Uhfq5w/UjAgIrGwENALq9q26a6BeW1ywpMOx27cjh2fIhf/oF/r3y9Vv3fsetyD0AeHciaWy3ebh+FDT19+3y2PPN8iLbzaJ2nPDj0M9T7P1ptly/KFFUlbKzw0/16Crqyf69sIDT9b7URZH+zz9hBLZbbtcR6/pxsX4icENVa6pFVDh4M/HL5C2th5pbo3vWQPtxUXklssGyGqDw733/7+vqJC3Pgj309qqVrddPkCGDgp2LdR6VNaX3lAVDWRuP2ugW8NpqSmyz255cvh+BaIeYOQQeXd2i0yeUhH9OyPMx/Ah6dHXWtcaEfyfkQgIYV5pIRy72v3wlntr5fEX3L91e//1g6Q0pLvUqY2R1Fscc77w7rdvt5ZTkHe6rG/slrb2HlHPegTxOHSfAjlwbL70MejB20Sc1d2DJ15slKtvq07k9ECdM3bnPJlwVHEonpMiIARq6Zg7GLUt6seft0Zv3374qTf/0VPvl9986YBQbkDz8RetcvmNVdFd+sJ+BDEgqFCgXqG9cWaNfKrZY8Nv/z9tnSMHjMm3+hVItUmauntgwqE+960CQhgOAkIYqhTyMapbg2++3yzq40peHpGIyB475Mop40tCkdZXtLnxrhq574nw/9aq5hS0gKA+8qMedpv1SYvMXxSOADZiaIYcsX+BbLmJ2R8mW9XfD2r/iRU/me3l3yNO90VAcFqU64VW4Nrbq+WtD1pkaQxft3Njkvm5ETn24CLZY8fgPxD08/w/+bJVLrm+ShYvC8d/vP6obltunC2TjiuRwvxgfJDogmsqox9WUndownao/RFOPaZYNtsgO2xDT2q86tPOr7zdlNQ1gnQyASFI1WAsvgiop8Cvu6MmuuOc+v3QzyMzI0XOPrlUtto0+P/66ujskUeebZAbZtb4SeZY3+pp7V23zfX9Ds5TLzXIzEfqZVlVZ6hfkcvOisg1/ymT4UPseAVShYNX32kKdc1W/MOkgrLap2WnrcPxVg8/MTj2VyEXUgJLKztlxgO18txrwUv8V51bJuuvlRXoQqn9IE6ZvDTQY4xncGf+rdTXvwwXLO6Qh55piD77YtKx9y65cti+hVJcGIw7M07bqmdEpt9dEw3LJh3qzYVpF5SHZkoEhNCUKtgDVV9ZVA/UqQeJ/H5F7I+k1P4IW2wczFu0X37bJiedvSTYhY5zdH4FhC++aZPK6k4576rKOEccnuYDy9PkjBNLow8vqrtkphwqHNzxYK3c87gZz+CsWBcCgimrlHnEJKD+ML//cYvc9UidzP0h+NufZqSnRJ8g3n2HYD2TsKSiU866rEJ+mBd8w5gWhoiMXC0j+r73Gqt5dztc/YTwytvNon5SWLAk/M9w6KzVJ6LVMwmHjCsI/cZgaq5qDwr1GvQjz5l15+DnOq63VqZMOZc7CLp1zf9uiMCp5y8VdRu3MkTfC1APLh6jHlzcwf/fxtUy+GlhR3SbabVRT5DvvsS7ZMftmicn/bVYUj3c50e9oaDeAHnyJW/fmInXxun26kNluTkRufif4f3k+a3318qnX7bKnC/bnOYJxPXUW1XTLugvo4Z7F5iTnTg/MSQraOn5Z16yTD7/pi3uLy4GhUvdSVDfCDh/Uj8pKvDvd9xZc1qibyzU1ncZFQ5UndWHs076a5HnJX/w6frov0LV3S3bjoK8iIzZKU+O/kthaKau/nFx0z010Ts/nT4/0OwmWmqqyAt3DXWzC8evTUBwnNTcC6q96b/6rj36Dvnsz8P3mtiqKnP31QMlIyPF0we+Kqq6ZPGyDplo0AOJK/qmp6dEb3urrYL9ONSzMK+/F/5tqpOxU3cThgxMjwbgoD2joMKbCsVqs6qzLjVjAyRdrVQdHrpxkK5ZoP53AkKgyhHcwbz9QXP0IcTr7jTj9buVpVcfmiFqW9vRIzOltNi9Owo/LuiQeQs75JoZ1cZs/NLbqlWOU84tE/XhIT8OtTHXxdcv/66CzYe6rX3g2ILog4yrDUmXQeXpov7//Dqqa7tEfb1VPdSs7vSoT2rbclx6Zj/ZZL1gPiC9qhoQEGxZnQnOU+1V//zrjdbcst160z4yqH9a9EMq22zm3L4Jz7/eJD8uaJfPvm6Tz+e2GfNe96qW1bqjMmXqZH8fxrr53lq5+9G6BFe+eaett1aWrLl6RjS0qQCnNrHy4lAhQIUBFdbUPzLUnR0bj5fvDdfPC6pGBAQbV2occ1Z/sNVPCi2t9iR9xaPuIqjbs+pYe0SmHLR3gWRnxfavYbUx1HuzW+TZ15p++VLl9z91RG+p2nCohxLV7pX7j8n3dbrqP0hjjpzv6xiC2rnalXHQgF8/Jb3fbnmyxcbOBWL1Fskr7y4PAl2dIuq1U7UJmK3HztvkyL9OKg3d9AkIoSuZtwNWvxWedv7S6B9wWw/16d3MzBSJLR4sV1J/GbZ39Bh/p6C3NaGe53jy1sGSlhaPmDurS/2cc8Rpi9y5uEFXVc8opPdSL7XuRwzLEPUTnArN2Zkp0Yc/1YOF6o7Y53PbpaPj9//hV2tf/R/HcoHrL+wvo1YPz9sLP9eNgMAK1gqcP7VSXn3XnO1OtROmQVIC5X3T5O5rBiZ1DadOVndt1OZTJnzXwikTruOtgNpeWe3iOvR/dyS97T253ggIyflZc/YeR8yTVst+ZrCmuA5P9Nr/lMvaIzMdvmril/v6u3a56LrK6MOhHAh4LTDp2JJQfSxuRR8CgterJaT9PfxsvVw7w8w3GEJaksAOO2gPY/X0iNz2QK3MfJgHFgO7aAwd2IB+aXLqsSWy0TrB/gbMqvgJCIYuTDemdeRpi6K7/nEgsCqB048vkd22D9Y21mqsaivrC66utPpZGlat9wK7bJsjE48ukaxM/5/HSWT2BIRE1Cw9Z+737XL8mYstnT3TjkXg1ssHyLBBy9/+CNrR1tYjB5280Jq3SYLmb9t4cvpE5OgDC2XcLnmhnToBIbSl837g6sn8h56ul+l313rfOT0GXmC37XPkhMOKJS/Hx514NEpXTK+Sp1626zsNgV84hg4wbB9m6q0MBARDF6db0/rkqza54sYqmb+YnxrcMg7jddWroGecWCJ/2ion8MM/54oKeWuWnZv1BL44Bg3wrJNLQ/Hn4Y/ICQgGLUivpnL7g3Vy92N1vb7/7NUY6CdYAuohrFPGl8jA8l833wnWCH8dTUtrt1wzo0aefZU7CUGtUdjHtcs2OfLPEG6MtLI7ASHsK9GH8VdUd4n6mqPaT50DAbW3//575stxh3j/5cZE9b/9qV0uu6FKvvmBNZyoIeetWuDh6YNE7X8Q9oOAEPYK+jT+9vYeGXPUfFFfeOSwW0B9t2LqeWWB2Dkx1kqoVx9vf7BWZj5SZ9xntmM1oJ07AldPLpd1RgVnH5BkZklASEbP8nMvmlYhL7zBb7k2L4OUlOVfCzzmoMJQMlx5U5U8/UojISGU1QveoNV21JedFc5dE3vTJCAEb42FakTqp4Z3Z7eEaswM1jmBDUZnyZXnlDl3QR+uNOWWann8hQYfeqZLkwT690uT044pkY3WDeemSAQEk1ZjQOZSVdMV/S33/TmEhICUxNNh3DFlgAwqD+a+B/FAzHigVu54iJ0W4zGj7W8F9tgxV04dXyyRSDg3RSIgsKIdF+juEXnmlUaZckuVdNnxNWPHDcN6QfVa467bBm/XxEQ81RcJ73+yXm65jz0+EvGz/ZzB/dPlon/2kwFlwX+LJ55a8RNDPFq07VWgu1tk6q3V8sSL3Ka1ZYmoXeLUR5mGBnTXxETq0NUtcvM9NXLfE/WJnM45Fgs8d+cQSU83587Bz6UkIFi8qJ2eutrr/uW3m5y+LNcLmEBebkT+cVyJbL1pn4CNLPnhqLcbrripKrpHggq+HAj8kYB6xXfqeeUyOkBfL3WyYgQEJzW5lkyeUiGvvcubDaYuhbS0FDlgTL6MPzCcby3EUhcVEq6+rVoee547YrF42dxmhy1y5JwJpcYSEBCMLa0/E2tq7pbT/7tUvvyWDWj8qYC7vQ7qny7nTiyV1YdmuNtRAK7Og4sBKEKAh7D9Fn3k5COKpagg/BsirYqZgBDgBRjWoX30WaucP7VC6hq4RxvWGvY2bnU7dfrF/WX4EPPDgZp/+/8eXLyVBxdNWsaOzGWLjbOjrzQWF5obDhQUAcGR5cJFVhRQt2ifebVRrrqpStSDXxxmCDw/c0iodkt0Ql29pTP9rproGw4cCCgBdffshov6S2pwP1rqWKEICI5RcqGVBe56pC66lW1bO9sxh3l1qOcOJh1bLLsY8kpjIrVQOy6+8EYTazkRPIPOGT4kXW6+dIBBM/rjqRAQrCm1PxO986E6mfFgrai7ChzhFNhy42w51YLbqbrqqG83fPJlm8z+vFXXlP/dQIEtNsqW8yf1E/VTmy0HAcGWSvs4T7WN7Q0za6S1jZTgYxkS6nq9tTKjn3EeOjD8uyUmBLDSSYuXdsrMR+uim4Nx2CNgwwOJvVWTgGDPGvd1pm9/2BwNCQsWd/o6DjqPXUCFArU7XHlfs3aHi12g95b1jd1y7YxqefFN9vxI1jIM56s7B5OOKzH6bYVV1YGAEIYVasgYl1V1ylU3V8t7fNwp8BVVX2l84a6hVt1Ojaco6uHF2Z+1yNmXVfBcQjxwIWu76fpZctEZZdb+OSAghGzBhn246keGC9lxMbBlVA8kDu6fJrdcZs+DWMkW46hJi2Txsk6CQrKQATp/UHmanDOhr6yxmh2v9HIHIUCLj6GIXH5jlTzN77iBWgp9S1Jlq437yKH7Fhj/freT8I3N3fLocw3yyttN8sP8DicvzbV8EFh7jUw582+lxn14KRFK7iAkosY5jgiod8vfmNUsn3/d5sj1uEjiAv1K0mTi+GJZf60syc4y76MzicvEfubnc9ui33BQ/8f+H7G7BaVlQX5E/rxHvmyxUR9RrzNysFESa8BHAfWXaEVVp0y7vUbe+oDvN/hYCrn18gEyzKAvM/pl2dDYHf254fgzF/s1BPpNUODmS/vL4AHpkp5GQP6ZkDsICS4mTnNW4NwrK+SN9wkJzqrqrzZiWIbceFF/UQ8lcjgnoPb9UG85XDSt0rmLciVXBM44vkR23jbX2gcR/wiVgODKkuOiiQioz+2Nxe8AAAb7SURBVOuOP32RLKnoZM+ERABjPEeFgYL8VJlwZLFst7l5n2yOkcGTZuqOwtUzquXTL1tlWVWXJ33SiV4gIz1FVhucLgfslS/qi4wcvQsQEFgZgRKore+Sp15ulOdfa5L5i3ngy43ijN05TzYcnSnbbc5fjG749nbNj79ojW6u9OlXbdEAzOGfwE5b50QfQDxif3M/We6ULgHBKUmu46jAnC9aZf7iTlF74HM4I7D5htmy5cZ9ZMxOuc5ckKvEJdDe3iOffNUqsz9vi4YFFYY5vBPYYO0s2WrTbNlzxzzJyuQ3tVjkCQixKNHGN4G5P7SLCgvX31nj2xjC3rH6y/DgcQWy+/a5UlJk9udpw1ArteW4uotQU9slp12wNAxDDvUYiwpS5ZTxxTJyeIaUFqXxrEEc1SQgxIFFU/8E6hq65LIbquSdj1r48FOMZVDPGqi/FK+/sH+MZ9DMD4FnX2uMrm0+aOasvlr/D1w3UIqL2Co8UVkCQqJynOeLQFtbj0z8zxJpae2ReQt5RmHlIqiHr8r6pklRfkSuOKdMUlO5lerLQk2g03dnt4j6+mlLa7f8tLCDwJCA4cDyNMnNici+u+XLztvwjE0ChL85hYCQrCDn+yKwaGmnqI2WFi7piD741d7BlyL33HH5Twg7bpUjQwaw0YsvC9OBTiuru+Tux+pEvdXz+nvNPKugMc3pE5FN1suSgrxUGbtzrgwfYvf2yA4swV8uQUBwUpNreS6ggoLawa65pVum3V4tnZY996X+xaSeLSjMT5Vdt8vhjoHnK9DdDtUGYnX13bK0qlNmPlzHXYUVuNcemSl7bJ8rKiBsODpL8vMi7hbDwqsTECwsuolTVl/X+2Fee/Qv0DseqpW3PjD7WQX1qtYBY/Kj2yL3K01j9zcTF/UKc2pr75EFi5f/7PDy201y7+P1hs+49+ltvG6WHDg2P3q3IC83ImWlPF/g5kIgILipy7V9FVA/O1xyfZW8/l5TdBzqlm3YHgSLROSXXQ7V/gVHHVAY/RcTBwJK4P2PW2TqrdWiPqWujp5uERWWw36suO4337CPnD+pb9inFMrxExBCWTYGnYjAg0/VyyvvLN/Oubu7J7qznXoXPUihQT1gWFzw66uIf92/QDZbPzuR6XKOZQJqHb/0VpM88mzDLzPv7Fp+50E91BvUo092RPr3SxP1gK06srNTokFYfVWRw18BAoK//vTuk0BHR0/0S5JfzG375ct76g7DTwvb5Yu57aL+YnXzUA8Tjh6ZKeod7RUPtfWx2tCFAwEnBJqau6M7k6oPSK14tLZ1y1fftot6hqej0921/nO/6jmZ0SMzpLT4158F1KuIalfDnbbKkcKV/iw4MX+ukZwAASE5P842SEAFBPWvLbU5U6fmL031Klp9Y3f0X2bqX27qr9jM9BRR/xpSn42NaN4uLC5Mje5RoP7S5EDAawG1WdO3P7ZHN2zSrXX11dXGpm5R35Vobe+Rzv99yzo9NUWyMiPRhwPzcvQ/e+Xnpcqo4Rls1uV1sZPoj4CQBB6n2ivQ1aX+ovz5uYbl/wKLRFIkNVUkLS1F2H3A3rVh2sxVAP51vff88oyDCsFqzaeliaSx34ZpZY/Oh4BgZFmZFAIIIIAAAskJEBCS8+NsBBBAAAEEjBQgIBhZViaFAAIIIIBAcgIEhOT8OBsBBBBAAAEjBQgIRpaVSSGAAAIIIJCcAAEhOT/ORgABBBBAwEgBAoKRZWVSCCCAAAIIJCdAQEjOj7MRQAABBBAwUoCAYGRZmRQCCCCAAALJCRAQkvPjbAQQQAABBIwUICAYWVYmhQACCCCAQHICBITk/DgbAQQQQAABIwUICEaWlUkhgAACCCCQnAABITk/zkYAAQQQQMBIAQKCkWVlUggggAACCCQnQEBIzo+zEUAAAQQQMFKAgGBkWZkUAggggAACyQkQEJLz42wEEEAAAQSMFCAgGFlWJoUAAggggEByAgSE5Pw4GwEEEEAAASMFCAhGlpVJIYAAAgggkJwAASE5P85GAAEEEEDASAECgpFlZVIIIIAAAggkJ0BASM6PsxFAAAEEEDBSgIBgZFmZFAIIIIAAAskJEBCS8+NsBBBAAAEEjBQgIBhZViaFAAIIIIBAcgIEhOT8OBsBBBBAAAEjBQgIRpaVSSGAAAIIIJCcAAEhOT/ORgABBBBAwEgBAoKRZWVSCCCAAAIIJCdAQEjOj7MRQAABBBAwUoCAYGRZmRQCCCCAAALJCRAQkvPjbAQQQAABBIwUICAYWVYmhQACCCCAQHICBITk/DgbAQQQQAABIwUICEaWlUkhgAACCCCQnAABITk/zkYAAQQQQMBIAQKCkWVlUggggAACCCQnQEBIzo+zEUAAAQQQMFLg/wEjlYQ5bwkvhgAAAABJRU5ErkJggg==" parent="1" vertex="1">
                    <mxGeometry x="1459.98" y="550" width="33.75" height="33.75" as="geometry"/>
                </mxCell>
                <mxCell id="118" style="edgeStyle=orthogonalEdgeStyle;curved=1;html=1;entryX=1;entryY=0.5;entryDx=0;entryDy=0;" edge="1" parent="1" source="67" target="89">
                    <mxGeometry relative="1" as="geometry"/>
                </mxCell>
                <mxCell id="120" style="edgeStyle=orthogonalEdgeStyle;curved=1;html=1;entryX=1;entryY=0.5;entryDx=0;entryDy=0;" edge="1" parent="1" source="67" target="91">
                    <mxGeometry relative="1" as="geometry">
                        <mxPoint x="640" y="620" as="targetPoint"/>
                    </mxGeometry>
                </mxCell>
                <mxCell id="122" style="edgeStyle=orthogonalEdgeStyle;curved=1;html=1;entryX=1;entryY=0.5;entryDx=0;entryDy=0;" edge="1" parent="1" source="67" target="95">
                    <mxGeometry relative="1" as="geometry"/>
                </mxCell>
                <mxCell id="67" value="Asset Library&lt;br&gt;images, svgs, videos. etc" style="rounded=0;whiteSpace=wrap;html=1;fontColor=#000000;strokeWidth=0;fillColor=#FFFFFF;verticalAlign=top;" parent="1" vertex="1">
                    <mxGeometry x="1354.98" y="658" width="160" height="80" as="geometry"/>
                </mxCell>
                <mxCell id="71" value="" style="shape=image;verticalLabelPosition=bottom;verticalAlign=top;imageAspect=0;aspect=fixed;image=data:image/svg+xml,PHN2ZyB4bWxucz0iaHR0cDovL3d3dy53My5vcmcvMjAwMC9zdmciIHZpZXdCb3g9IjAgMCA2NDAgNTEyIj48IS0tISBGb250IEF3ZXNvbWUgUHJvIDYuMS4xIGJ5IEBmb250YXdlc29tZSAtIGh0dHBzOi8vZm9udGF3ZXNvbWUuY29tIExpY2Vuc2UgLSBodHRwczovL2ZvbnRhd2Vzb21lLmNvbS9saWNlbnNlIChDb21tZXJjaWFsIExpY2Vuc2UpIENvcHlyaWdodCAyMDIyIEZvbnRpY29ucywgSW5jLiAtLT48cGF0aCBkPSJNMzUyIDQzMmMwIDguODM2LTcuMTY0IDE2LTE2IDE2SDE3NmMtOC44MzggMC0xNi03LjE2NC0xNi0xNkwxNjAgMTI4SDQ4QzIxLjQ5IDEyOCAuMDAwMyAxNDkuNSAuMDAwMyAxNzZ2Mjg4YzAgMjYuNTEgMjEuNDkgNDggNDggNDhoNDE2YzI2LjUxIDAgNDgtMjEuNDkgNDgtNDhMNTEyIDM4NGgtMTYwTDM1MiA0MzJ6TTEwNCA0MzljMCA0Ljk2OS00LjAzMSA5LTkgOWgtMzBjLTQuOTY5IDAtOS00LjAzMS05LTl2LTMwYzAtNC45NjkgNC4wMzEtOSA5LTloMzBjNC45NjkgMCA5IDQuMDMxIDkgOVY0Mzl6TTEwNCAzMzVjMCA0Ljk2OS00LjAzMSA5LTkgOWgtMzBjLTQuOTY5IDAtOS00LjAzMS05LTl2LTMwYzAtNC45NjkgNC4wMzEtOSA5LTloMzBjNC45NjkgMCA5IDQuMDMxIDkgOVYzMzV6TTEwNCAyMzFjMCA0Ljk2OS00LjAzMSA5LTkgOWgtMzBjLTQuOTY5IDAtOS00LjAzMS05LTl2LTMwQzU2IDE5NiA2MC4wMyAxOTIgNjUgMTkyaDMwYzQuOTY5IDAgOSA0LjAzMSA5IDlWMjMxek00MDggNDA5YzAtNC45NjkgNC4wMzEtOSA5LTloMzBjNC45NjkgMCA5IDQuMDMxIDkgOXYzMGMwIDQuOTY5LTQuMDMxIDktOSA5aC0zMGMtNC45NjkgMC05LTQuMDMxLTktOVY0MDl6TTU5MS4xIDBIMjM5LjFDMjEzLjUgMCAxOTEuMSAyMS40OSAxOTEuMSA0OHYyNTZjMCAyNi41MSAyMS40OSA0OCA0OCA0OGgzNTJjMjYuNTEgMCA0OC0yMS40OSA0OC00OHYtMjU2QzY0MCAyMS40OSA2MTguNSAwIDU5MS4xIDB6TTMwMy4xIDY0YzE3LjY4IDAgMzIgMTQuMzMgMzIgMzJzLTE0LjMyIDMyLTMyIDMyQzI4Ni4zIDEyOCAyNzEuMSAxMTMuNyAyNzEuMSA5NlMyODYuMyA2NCAzMDMuMSA2NHpNNTc0LjEgMjc5LjZDNTcxLjMgMjg0LjggNTY1LjkgMjg4IDU2MCAyODhIMjcxLjFDMjY1LjEgMjg4IDI2MC41IDI4NC42IDI1Ny43IDI3OS4zQzI1NSAyNzMuOSAyNTUuNSAyNjcuNCAyNTkuMSAyNjIuNmw3MC05NkMzMzIuMSAxNjIuNCAzMzYuOSAxNjAgMzQxLjEgMTYwYzUuMTEgMCA5LjkxNCAyLjQ0MSAxMi45MyA2LjU3NGwyMi4zNSAzMC42Nmw2Mi43NC05NC4xMUM0NDIuMSA5OC42NyA0NDcuMSA5NiA0NTMuMyA5NmM1LjM0OCAwIDEwLjM0IDIuNjcyIDEzLjMxIDcuMTI1bDEwNi43IDE2MEM1NzYuNiAyNjggNTc2LjkgMjc0LjMgNTc0LjEgMjc5LjZ6Ii8+PC9zdmc+" parent="1" vertex="1">
                    <mxGeometry x="1376.85" y="700" width="37.5" height="30" as="geometry"/>
                </mxCell>
                <mxCell id="72" value="" style="sketch=0;pointerEvents=1;shadow=0;dashed=0;html=1;strokeColor=none;fillColor=#505050;labelPosition=center;verticalLabelPosition=bottom;verticalAlign=top;outlineConnect=0;align=center;shape=mxgraph.office.concepts.document;fontColor=#121212;" parent="1" vertex="1">
                    <mxGeometry x="1426.83" y="700" width="30" height="30" as="geometry"/>
                </mxCell>
                <mxCell id="74" value="" style="shape=image;verticalLabelPosition=bottom;verticalAlign=top;imageAspect=0;aspect=fixed;image=data:image/svg+xml,PHN2ZyB4bWxucz0iaHR0cDovL3d3dy53My5vcmcvMjAwMC9zdmciIHZpZXdCb3g9IjAgMCAzODQgNTEyIj48IS0tISBGb250IEF3ZXNvbWUgUHJvIDYuMS4xIGJ5IEBmb250YXdlc29tZSAtIGh0dHBzOi8vZm9udGF3ZXNvbWUuY29tIExpY2Vuc2UgLSBodHRwczovL2ZvbnRhd2Vzb21lLmNvbS9saWNlbnNlIChDb21tZXJjaWFsIExpY2Vuc2UpIENvcHlyaWdodCAyMDIyIEZvbnRpY29ucywgSW5jLiAtLT48cGF0aCBkPSJNMjU2IDB2MTI4aDEyOEwyNTYgMHpNMjI0IDEyOEwyMjQgMEg0OEMyMS40OSAwIDAgMjEuNDkgMCA0OHY0MTZDMCA0OTAuNSAyMS40OSA1MTIgNDggNTEyaDI4OGMyNi41MSAwIDQ4LTIxLjQ5IDQ4LTQ4VjE2MGgtMTI3LjFDMjM4LjMgMTYwIDIyNCAxNDUuNyAyMjQgMTI4ek05NiAzMmg2NHYzMkg5NlYzMnpNOTYgOTZoNjR2MzJIOTZWOTZ6TTk2IDE2MGg2NHYzMkg5NlYxNjB6TTEyOC4zIDQxNS4xYy00MC41NiAwLTcwLjc2LTM2LjQ1LTYyLjgzLTc1LjQ1TDk2IDIyNGg2NGwzMC45NCAxMTYuOUMxOTguNyAzNzkuNyAxNjguNSA0MTUuMSAxMjguMyA0MTUuMXpNMTQ0IDMzNmgtMzJDMTAzLjIgMzM2IDk2IDM0My4yIDk2IDM1MnM3LjE2NCAxNiAxNiAxNmgzMkMxNTIuOCAzNjggMTYwIDM2MC44IDE2MCAzNTJTMTUyLjggMzM2IDE0NCAzMzZ6Ii8+PC9zdmc+" parent="1" vertex="1">
                    <mxGeometry x="1466.85" y="700" width="26.25" height="35" as="geometry"/>
                </mxCell>
                <mxCell id="75" value="" style="sketch=0;aspect=fixed;html=1;points=[];align=center;image;fontSize=12;image=img/lib/mscae/Docker.svg;fontColor=#000000;strokeColor=default;strokeWidth=0;fillColor=none;" parent="1" vertex="1">
                    <mxGeometry x="415" y="959.5" width="50" height="41" as="geometry"/>
                </mxCell>
                <mxCell id="84" value="" style="verticalLabelPosition=bottom;html=1;verticalAlign=top;align=center;strokeColor=none;fillColor=#000405;shape=mxgraph.azure.git_repository;fontColor=#000000;" parent="1" vertex="1">
                    <mxGeometry x="417" y="1077" width="50" height="51" as="geometry"/>
                </mxCell>
                <mxCell id="88" value="" style="endArrow=none;dashed=1;html=1;strokeColor=#B3B3B3;" parent="1" edge="1">
                    <mxGeometry width="50" height="50" relative="1" as="geometry">
                        <mxPoint x="440" y="800" as="sourcePoint"/>
                        <mxPoint x="440" y="320" as="targetPoint"/>
                    </mxGeometry>
                </mxCell>
                <mxCell id="32" style="edgeStyle=entityRelationEdgeStyle;html=1;startArrow=classic;startFill=1;strokeWidth=3;fontColor=#FFFFFF;labelBackgroundColor=#FFFFFF;labelBorderColor=default;shadow=0;sketch=0;fillColor=#dae8fc;strokeColor=#6c8ebf;" parent="1" source="2" target="55" edge="1">
                    <mxGeometry relative="1" as="geometry">
                        <mxPoint x="100" y="484.3800000000001" as="targetPoint"/>
                    </mxGeometry>
                </mxCell>
                <mxCell id="89" value="Front-end Style Guide" style="rounded=1;whiteSpace=wrap;html=1;fillColor=#f5f5f5;fontColor=#333333;strokeColor=#666666;" vertex="1" parent="1">
                    <mxGeometry x="560" y="440" width="120" height="40" as="geometry"/>
                </mxCell>
                <mxCell id="90" value="Code Style Guide" style="rounded=1;whiteSpace=wrap;html=1;fillColor=#f5f5f5;fontColor=#333333;strokeColor=#666666;" vertex="1" parent="1">
                    <mxGeometry x="590" y="358.76" width="120" height="40.62" as="geometry"/>
                </mxCell>
                <mxCell id="99" style="edgeStyle=orthogonalEdgeStyle;html=1;entryX=0;entryY=0.5;entryDx=0;entryDy=0;curved=1;fillColor=#d5e8d4;strokeColor=#82b366;strokeWidth=3;dashed=1;startArrow=classic;startFill=1;" edge="1" parent="1" source="91" target="22">
                    <mxGeometry relative="1" as="geometry"/>
                </mxCell>
                <mxCell id="113" style="edgeStyle=orthogonalEdgeStyle;curved=1;html=1;entryX=0;entryY=0.5;entryDx=0;entryDy=0;" edge="1" parent="1" source="91" target="109">
                    <mxGeometry relative="1" as="geometry"/>
                </mxCell>
                <mxCell id="91" value="CMS&lt;br&gt;Wordpress" style="rounded=1;whiteSpace=wrap;html=1;fillColor=#f5f5f5;strokeColor=#666666;fontColor=#333333;align=center;verticalAlign=middle;" vertex="1" parent="1">
                    <mxGeometry x="480" y="678" width="120" height="40" as="geometry"/>
                </mxCell>
                <mxCell id="100" style="edgeStyle=orthogonalEdgeStyle;curved=1;html=1;entryX=0;entryY=0.5;entryDx=0;entryDy=0;startArrow=classic;startFill=1;fillColor=#d5e8d4;strokeColor=#82b366;strokeWidth=3;dashed=1;" edge="1" parent="1" source="94" target="22">
                    <mxGeometry relative="1" as="geometry"/>
                </mxCell>
                <mxCell id="94" value="RD - DBM&lt;br&gt;PhpMyAdmin" style="rounded=1;whiteSpace=wrap;html=1;fillColor=#f5f5f5;strokeColor=#666666;fontColor=#333333;align=center;verticalAlign=middle;" vertex="1" parent="1">
                    <mxGeometry x="520.5" y="560" width="120" height="40" as="geometry"/>
                </mxCell>
                <mxCell id="101" style="edgeStyle=orthogonalEdgeStyle;curved=1;html=1;entryX=0;entryY=0.5;entryDx=0;entryDy=0;fillColor=#d5e8d4;strokeColor=#82b366;startArrow=classic;startFill=1;strokeWidth=3;dashed=1;" edge="1" parent="1" source="95" target="22">
                    <mxGeometry relative="1" as="geometry"/>
                </mxCell>
                <mxCell id="105" style="edgeStyle=orthogonalEdgeStyle;curved=1;html=1;entryX=0;entryY=0.5;entryDx=0;entryDy=0;" edge="1" parent="1" source="95" target="104">
                    <mxGeometry relative="1" as="geometry"/>
                </mxCell>
                <mxCell id="111" style="edgeStyle=orthogonalEdgeStyle;curved=1;html=1;entryX=0;entryY=0.5;entryDx=0;entryDy=0;" edge="1" parent="1" source="95" target="109">
                    <mxGeometry relative="1" as="geometry"/>
                </mxCell>
                <mxCell id="112" style="edgeStyle=orthogonalEdgeStyle;curved=1;html=1;entryX=0;entryY=0.5;entryDx=0;entryDy=0;" edge="1" parent="1" source="95" target="18">
                    <mxGeometry relative="1" as="geometry"/>
                </mxCell>
                <mxCell id="95" value="SPA&lt;br&gt;ReactJS&amp;nbsp;" style="rounded=1;whiteSpace=wrap;html=1;fillColor=#f5f5f5;strokeColor=#666666;fontColor=#333333;align=center;verticalAlign=top;" vertex="1" parent="1">
                    <mxGeometry x="550" y="798" width="119" height="40" as="geometry"/>
                </mxCell>
                <mxCell id="102" value="Asset Servers" style="text;html=1;align=center;verticalAlign=middle;resizable=0;points=[];autosize=1;strokeColor=none;fillColor=none;fontColor=#FFFFFF;" vertex="1" parent="1">
                    <mxGeometry x="1380" y="318" width="90" height="20" as="geometry"/>
                </mxCell>
                <mxCell id="104" value="Database&lt;br&gt;NoSQL" style="rounded=1;whiteSpace=wrap;html=1;fillColor=#d5e8d4;strokeColor=#82b366;fontColor=#191919;verticalAlign=top;" vertex="1" parent="1">
                    <mxGeometry x="795" y="960.5" width="120" height="40" as="geometry"/>
                </mxCell>
                <mxCell id="109" value="API--beta" style="rounded=1;whiteSpace=wrap;html=1;fillColor=#F6E9FC;strokeColor=#9673a6;fontColor=#000000;align=center;verticalAlign=middle;" vertex="1" parent="1">
                    <mxGeometry x="1080" y="798" width="120" height="38" as="geometry"/>
                </mxCell>
                <mxCell id="110" value="APIs&amp;nbsp; External and Internal" style="text;html=1;align=center;verticalAlign=middle;resizable=0;points=[];autosize=1;strokeColor=none;fillColor=none;" vertex="1" parent="1">
                    <mxGeometry x="1060" y="320" width="160" height="20" as="geometry"/>
                </mxCell>
                <mxCell id="114" value="" style="endArrow=none;dashed=1;html=1;strokeColor=#B3B3B3;" edge="1" parent="1">
                    <mxGeometry width="50" height="50" relative="1" as="geometry">
                        <mxPoint x="1280" y="798" as="sourcePoint"/>
                        <mxPoint x="1280" y="318" as="targetPoint"/>
                    </mxGeometry>
                </mxCell>
                <mxCell id="123" value="User" style="text;html=1;align=center;verticalAlign=middle;resizable=0;points=[];autosize=1;strokeColor=none;fillColor=none;" vertex="1" parent="1">
                    <mxGeometry x="-25" y="490" width="40" height="20" as="geometry"/>
                </mxCell>
                <mxCell id="128" style="edgeStyle=orthogonalEdgeStyle;curved=1;html=1;entryX=0;entryY=0.25;entryDx=0;entryDy=0;strokeWidth=3;fillColor=#d5e8d4;strokeColor=#82b366;" edge="1" parent="1" source="126" target="55">
                    <mxGeometry relative="1" as="geometry"/>
                </mxCell>
                <mxCell id="126" value="" style="html=1;verticalLabelPosition=bottom;align=center;labelBackgroundColor=#ffffff;verticalAlign=top;strokeWidth=2;shadow=0;dashed=0;shape=mxgraph.ios7.icons.user;fillColor=#d5e8d4;strokeColor=#2B3B21;" vertex="1" parent="1">
                    <mxGeometry x="20" y="400" width="40" height="40" as="geometry"/>
                </mxCell>
                <mxCell id="127" value="UX/UI Designer" style="text;html=1;align=center;verticalAlign=middle;resizable=0;points=[];autosize=1;strokeColor=none;fillColor=none;" vertex="1" parent="1">
                    <mxGeometry x="-80" y="409.38" width="100" height="20" as="geometry"/>
                </mxCell>
                <mxCell id="133" style="edgeStyle=orthogonalEdgeStyle;curved=1;html=1;entryX=0;entryY=0.75;entryDx=0;entryDy=0;strokeWidth=3;fillColor=#f8cecc;strokeColor=#b85450;" edge="1" parent="1" source="131" target="55">
                    <mxGeometry relative="1" as="geometry"/>
                </mxCell>
                <mxCell id="131" value="" style="html=1;verticalLabelPosition=bottom;align=center;labelBackgroundColor=#ffffff;verticalAlign=top;strokeWidth=2;shadow=0;dashed=0;shape=mxgraph.ios7.icons.user;fillColor=#f8cecc;strokeColor=#3D1C1B;" vertex="1" parent="1">
                    <mxGeometry x="20" y="561.75" width="40" height="40" as="geometry"/>
                </mxCell>
                <mxCell id="132" value="Content Author" style="text;html=1;align=center;verticalAlign=middle;resizable=0;points=[];autosize=1;strokeColor=none;fillColor=none;" vertex="1" parent="1">
                    <mxGeometry x="-75" y="571.75" width="90" height="20" as="geometry"/>
                </mxCell>
                <mxCell id="138" style="edgeStyle=orthogonalEdgeStyle;curved=1;html=1;entryX=0.25;entryY=1;entryDx=0;entryDy=0;startArrow=classic;startFill=1;strokeColor=#d79b00;strokeWidth=3;fillColor=#ffe6cc;" edge="1" parent="1" source="136" target="55">
                    <mxGeometry relative="1" as="geometry"/>
                </mxCell>
                <mxCell id="136" value="" style="html=1;verticalLabelPosition=bottom;align=center;labelBackgroundColor=#ffffff;verticalAlign=top;strokeWidth=2;shadow=0;dashed=0;shape=mxgraph.ios7.icons.user;fillColor=#f5f5f5;strokeColor=#666666;fontColor=#333333;" vertex="1" parent="1">
                    <mxGeometry x="20" y="640" width="40" height="40" as="geometry"/>
                </mxCell>
                <mxCell id="137" value="Database Admin" style="text;html=1;align=center;verticalAlign=middle;resizable=0;points=[];autosize=1;strokeColor=none;fillColor=none;" vertex="1" parent="1">
                    <mxGeometry x="-85" y="650" width="100" height="20" as="geometry"/>
                </mxCell>
            </root>
        </mxGraphModel>
    </diagram>
</mxfile>